<svg 
          width="36.78205108642578" 
          height="36.78205108642578" fill="none" 
          xmlns="http://www.w3.org/2000/svg">
          <path d="M 7.435766559834472 0.14032375446267084 C 7.1591704192911605 0.2204753928797044 6.921154114128191 0.2970327844530059 6.9067854828805855 0.31047525689403566 C 6.874025004107085 0.34109821438029075 8.048157857778762 4.973503444568696 8.11683991199491 5.084709352749729 C 8.153623609187793 5.144230031465278 8.301261285006463 5.1334472802224 8.663638170359581 5.044813224138686 C 8.936642156570267 4.978104060305018 9.187446298420587 4.898814710096679 9.220997052431922 4.868694946697232 C 9.266545613047908 4.827864335287335 8.342714778549572 0.9910812580501499 8.074955339377393 0.10898194032372598 C 8.029622309734238 -0.040322941982608926 8.065399967337333 -0.042120070760315625 7.435766559834472 0.14032375446267084 Z M 25.520844799437402 0.23844660353266559 C 25.267094770726835 0.4162897873112942 25.226287082180043 0.5525834558959373 25.037339575867765 1.8521901791793989 C 24.93898629945814 2.528698773682353 24.82489945473015 3.145111690697992 24.783733325825715 3.222028512739975 C 24.655852511683044 3.4610457318243864 24.384285421462895 3.59532658121507 24.13807892541521 3.5411972674092786 C 23.955884682951265 3.501157392318798 23.765859144942485 3.292763109297279 23.090102417570986 2.392045621070622 C 22.217639137380235 1.2290201364547837 22.024956948465054 1.0666322293147903 21.67508079102121 1.1997630211765256 C 21.56968688184239 1.2398747845030786 21.070735163404436 1.584490830734478 20.566324377550977 1.965624451291778 L 19.64910293830655 2.6586668773467728 L 18.99691056521815 2.6175485544597006 C 17.099676455588412 2.4981477729869312 15.028870078943948 2.941318156237645 13.237317298800116 3.8503743027975283 C 12.099106161883217 4.427825518300235 11.225133770921557 5.064581537861319 10.309492766533785 5.98334215925439 C 8.407660754170262 7.891598067152597 7.291146013600262 10.181490924662098 6.957290883321544 12.858268050286135 C 6.87294701737353 13.534417212178072 6.860159057573339 13.569425523451653 6.697649834555175 13.569425523451653 C 6.603607143344701 13.569425523451653 6.4383678813208665 13.658419003577038 6.330459464109212 13.76710893489702 C 6.164645455679284 13.93416938028679 6.101782900452652 14.123657927009768 5.924976898052016 14.989151842013849 C 5.809812317098337 15.5525854941833 5.689331068533863 16.013511337685305 5.657073491795148 16.013511337685305 C 5.624887757286649 16.013511337685305 5.219836086169872 15.747753288680112 4.756950648936296 15.42283364651191 C 3.5468963568519145 14.57351385622981 3.644244073276555 14.554176820507541 2.2954606661035974 15.912082101069956 C 1.3884408321141268 16.825163783185616 1.221333637847208 17.02708797499707 1.221333637847208 17.209819336025657 C 1.221333637847208 17.363509203637477 1.3983551883494192 17.6846913773549 1.8320004567708121 18.318069018302413 C 2.1678672208817886 18.808539530026966 2.442667275694416 19.22755398774529 2.442667275694416 19.249119451668992 C 2.442667275694416 19.270756799544095 1.9820089518797013 19.382611244331898 1.4189023145577857 19.4978427052074 C 0.5539107290818913 19.674751384763812 0.36453216082395135 19.737649349501428 0.19756867671057776 19.903559651668797 L 0 20.09987854915466 L 0 21.512703322834852 L 0 22.92552809651504 L 0.19756867671057776 23.121989587903425 C 0.3641729539550603 23.287684233931923 0.55268938119293 23.350726849214887 1.400941525765915 23.5241131680213 C 1.9541338068525382 23.637259964313497 2.4207549779656206 23.740989894417535 2.4379254915196578 23.7546480208551 C 2.45502416284348 23.768306147292666 2.184391113683123 24.197818352689744 1.8365265558140516 24.70899171663653 C 1.2696122331866784 25.541921777473846 1.2085454939130291 25.663264132605388 1.2486339765176762 25.876905978356483 C 1.2831186902272744 26.06071560294074 1.5284630987822085 26.350196050024874 2.3200309572040245 27.140785936472895 C 3.6506380274835366 28.469865448312177 3.5462499866070782 28.44880323203369 4.737553238213777 27.62787793247436 C 5.229175944365844 27.289084520583735 5.6503923185438065 27.01189640486057 5.67359765865637 27.01189640486057 C 5.696731154397626 27.01189640486057 5.809812317098337 27.472822248362576 5.924976898052016 28.036255900532026 C 6.101782900452652 28.901749815536107 6.164645455679284 29.091238362259084 6.330459464109212 29.258298807648853 L 6.526663322579685 29.455982219094224 L 7.938668646006852 29.455982219094224 L 9.350674517553795 29.455982219094224 L 9.546877279784717 29.258298807648853 C 9.712691288214645 29.091238362259084 9.775554939680827 28.901749815536107 9.952360942081464 28.036255900532026 C 10.067525523035142 27.472894128029303 10.18060613761608 27.01189640486057 10.203739633357335 27.01189640486057 C 10.2269449734699 27.01189640486057 10.648161895767636 27.289084520583735 11.139784601919702 27.62787793247436 C 12.25866992625971 28.398915109922548 12.294518946488218 28.399345976594347 13.045854676384627 27.6526059089238 L 13.562910311390738 27.13862947791631 L 13.591216312818649 28.279369729320504 C 13.615355612629477 29.25470372743631 13.641865680344297 29.469352933981693 13.77391340379006 29.760271025816444 C 13.975505296778927 30.20423203398509 14.244270467223519 30.551578612055565 14.546370929221586 30.75875082505656 L 14.789775574008683 30.92559665976756 L 14.812693558046943 32.90444244512297 L 14.835611542085203 34.883290424230715 L 15.036843851372835 35.314599685566066 C 15.298352943719118 35.87515794540214 15.717126746302544 36.296259008660435 16.264068680563273 36.54864680552279 C 16.69462471167448 36.7473366008571 16.734138940324392 36.75201075442843 18.20886341714202 36.776307842782714 C 19.853137646974545 36.80348032561271 20.399863896103753 36.739717253351856 20.87043657615376 36.46597963585065 C 21.30307604478777 36.21431068707164 21.694548943452208 35.79191525851286 21.90404357597285 35.35054212401068 C 22.090404727739887 34.95805069345332 22.091912934969606 34.94072642550894 22.115477490515435 32.94239874822164 L 22.13911460769868 30.929622195323336 L 22.422895947601877 30.731149033033237 C 22.578939275692573 30.62195590119944 22.803807391814612 30.379344441698304 22.922564127100916 30.19201245636405 C 23.297369868157794 29.60075931652827 23.34902542943192 29.294312543044725 23.34902542943192 27.660944361592744 C 23.34902542943192 25.27666681758098 23.561608477083087 24.78073461661608 25.02886125918586 23.742213832555294 C 25.99515168248551 23.05830111821871 26.183095264607754 22.886422438573717 26.10708520870155 22.756310815517505 C 26.071953906355645 22.696143172670013 25.896009336273337 22.484300332383203 25.7161859173818 22.28561053704889 L 25.389228086551075 21.924387275678654 L 25.141440676041935 22.132208016717076 C 25.005154213909424 22.24650497337036 24.59241592089315 22.555897142167428 24.22429158860783 22.819714645835266 C 23.179476567111653 23.568467549838463 22.656241429760588 24.230382960958874 22.3310793078282 25.21477448262994 C 22.195798645483077 25.624158868853936 22.17144451911897 25.90537197169479 22.13422976426261 27.48497032336807 L 22.09177021400097 29.28791446432624 L 21.89046555290302 29.551732927760728 C 21.511852126540685 30.048026103818767 21.58635308024035 30.03810519732097 18.408802163760313 30.015461461272253 L 15.554043093760031 29.99511879576341 L 15.319475235987783 29.827698197937636 C 14.862409083634438 29.5014846189362 14.839993494191951 29.39703664198258 14.793582813966824 27.371320789306694 C 14.74645370287517 25.313616188352626 14.693648931413117 25.051955828788984 14.159064014908116 24.228298896229727 C 13.808182057676886 23.687652743727124 13.477488516518676 23.36948934462535 12.644395309476977 22.771263431511066 C 11.750594617134562 22.129331458952763 11.295395943112613 21.73216856988311 10.693422166792827 21.069102467102212 C 9.432215555902875 19.679783475595436 8.565715921638134 17.89977049080543 8.179774476457002 15.905684022351467 C 8.030987294979587 15.137019045292183 8.053402156450495 12.971630888337733 8.218066672068234 12.203612862556376 C 8.88125083358243 9.110981735096935 10.700966761437776 6.600473898645339 13.336892025871162 5.141570316694135 C 14.712472871820895 4.38030945946848 16.126992283626695 3.961580210978562 17.763220115160127 3.8313966996862776 C 18.29557788398878 3.7890565081582905 18.32000456770812 3.7937288236050932 18.32000456770812 3.9385768580779055 C 18.32000456770812 4.15538164910667 18.39443457415439 4.274494569138726 19.226162757411068 5.388782074865823 C 19.99754274787964 6.422199094092541 20.10192941845666 6.673364816649704 19.880293282024375 6.962270140706566 C 19.658010552673595 7.25196620965219 19.531136600300375 7.2590111196777745 18.138097865452465 7.058739851704627 C 16.67285668292447 6.848117157620364 16.477012356769002 6.866088428258741 16.31292259612173 7.226375437260356 C 16.18389228916687 7.509817512456061 15.698950713444287 11.055467565829282 15.757646569194929 11.286146143719158 C 15.84019435797663 11.610275040998598 16.0807974341274 11.70085048221549 17.34954754342275 11.885307075216366 C 18.005475558323667 11.980698308425128 18.62224873985973 12.07889221450472 18.720099116375664 12.103476842949272 C 19.08556523903897 12.195201947505238 19.235717187370266 12.729306433342801 18.982972975575827 13.038267624066586 C 18.91465013679294 13.121725967094743 18.402552467826652 13.531686230448376 17.844834053439303 13.949337361061488 C 16.825451515449853 14.712754745398488 16.7394551540235 14.803616779793018 16.7394551540235 15.11832875518356 C 16.7394551540235 15.312130390406606 19.010417486875898 18.399080924705032 19.245631971824128 18.525023227163977 C 19.55599441448035 18.691221065136947 19.740775628124283 18.606613949981607 20.812028932914572 17.807613559811013 C 21.397335140536967 17.371128585420106 21.94758105515854 16.995961405668435 22.034798644572653 16.97396463375166 C 22.272599484066124 16.914012647043037 22.581454229072726 17.043837359855843 22.699492533492506 17.253381773245742 C 22.792888631784486 17.41907641927424 22.786277142541746 17.57175865187273 22.639142353770215 18.64938485393318 C 22.548260763511074 19.314895071047093 22.48496806486762 19.985509190104597 22.498402735346414 20.139774129327616 C 22.53956886425085 20.612560974774155 22.672909546577756 20.66395750728778 24.57625025862236 20.940570517122364 C 26.5730589582932 21.230769778012462 26.886295449861635 21.244140989921945 27.083073857757658 21.04724830622665 C 27.258371160477214 20.871849202503654 27.26246583787119 20.854166016108962 27.476917648509477 19.356157016158097 C 27.637343416876096 18.235759293153226 27.66744666878921 18.12067273133408 27.83936733102023 17.97237423291669 C 28.02615952760419 17.81128022833255 28.259001321947032 17.76944334015052 28.485379105524128 17.8563521556926 C 28.55090006307113 17.881511862175362 28.945175819309807 18.35868147560934 29.361506908986566 18.916651896056326 C 29.777909836611357 19.474694196170038 30.18317733417178 19.987881313369396 30.262061122108456 20.057034565828044 C 30.59685021422653 20.350540531329266 30.78313858596467 20.2611160559919 32.4729614320816 18.9952233300976 C 34.069675583084894 17.799130867925285 34.25330756941215 17.612231463131852 34.16759868824349 17.27063453857458 C 34.14690786044595 17.18796693186584 33.77749023098681 16.651130667349484 33.346646813826 16.0775612280691 C 32.91587526887071 15.504063668455444 32.54229086713842 14.96816123975239 32.5164273302504 14.886715673071468 C 32.45054715727014 14.678896491653855 32.576847138312885 14.389703614652703 32.79632798214559 14.245790084402108 C 32.97270292260056 14.130127319818207 33.05201749842301 14.133577543821122 34.34153024777082 14.31314595957204 C 35.73212642387075 14.506731938656214 35.93120388590612 14.500622355509977 36.132364716949326 14.25808277567557 C 36.21670858289734 14.156365677619506 36.77730066829402 10.666067200882864 36.782042316509376 10.212833064436158 C 36.78297627754582 10.126068016796877 36.71099017525677 9.970940581558544 36.62204834662437 9.868145211377463 C 36.47283012033003 9.69554962032112 36.35328329608098 9.665429332049287 35.07002089355907 9.476731530215071 C 34.21314757858778 9.350789227756128 33.640845482655344 9.233473183706096 33.578413779547276 9.17107711265717 C 33.41188134025082 9.004376082739729 33.339462393823915 8.646604793518812 33.43364876949482 8.455678567767833 C 33.4797720765169 8.362300110906306 33.9532910502348 7.955791031322241 34.48600804306109 7.5523012233758395 C 35.56537961835599 6.734826422038466 35.777891273406446 6.5242040021732475 35.777891273406446 6.271816205310888 C 35.777891273406446 6.161041609407599 35.38735189123405 5.574676672529811 34.69126355149827 4.640460791636794 C 33.32114280068862 2.801501818406582 33.30734936654716 2.7866937158488465 32.967100179289 2.7866937158488465 C 32.73641181051275 2.7866937158488465 32.54516394827666 2.9004874891270043 31.63347433934789 3.580446513297156 C 31.048168131725497 4.016931487688064 30.498928445109886 4.391883054147587 30.41293218645599 4.413520402022689 C 30.166294628462644 4.4757008212174165 29.86031323008979 4.287937386495896 29.773885918054603 4.0213882669668255 C 29.713896885031343 3.8362128258826056 29.733151951617568 3.53638108979688 29.861679358678735 2.6564382991818 C 30.068875022703743 1.2378621923967645 30.069377854082465 1.1147232397869147 29.868791760880985 0.8814568225079507 C 29.71562215625639 0.7032542061183047 29.605414727727243 0.6786695776737517 27.76737947223211 0.41233611428355355 C 26.700508590589003 0.2577117424495161 25.79442216603693 0.13025986188092337 25.75383078353859 0.12910970379606618 C 25.713167558810035 0.1278876608225369 25.60834976633675 0.17712880460875538 25.520844799437402 0.23844660353266559 Z M 28.719014063439083 1.809993764123557 C 28.734819557490287 1.825808436953493 28.69372555558142 2.2057202595669754 28.62770169385854 2.65420999523587 C 28.456643138390106 3.8159414401863323 28.468927684434313 4.196787233580299 28.691713313678786 4.636650792249058 C 29.135560324385075 5.51314308464218 30.227504568309733 5.893989015145667 31.07123061383948 5.466633409699368 C 31.190274718046645 5.406321998949075 31.636421510863862 5.097936136916843 32.062595118827886 4.781283239137759 C 32.48876872679191 4.464630341358674 32.847265796632364 4.217849693013953 32.85933544653778 4.232945516689377 C 33.149150728728145 4.595604726079898 34.21070503696854 6.046672528861251 34.23362300387806 6.111512688535157 C 34.25144010606841 6.161975873688153 33.96485761075981 6.4213365895078836 33.57834142773695 6.704419232092571 C 32.44530303416802 7.534401986652402 32.168418648127044 7.929984688484986 32.16798758919229 8.719855709710972 C 32.167628373424485 9.451212431825681 32.59243681234371 10.100404833438919 33.25181332280994 10.376083339051288 C 33.39391908695142 10.435532133815437 33.9456746861568 10.548176440849456 34.47781694114136 10.62638719115533 C 35.009959196125926 10.70466982112793 35.454381615906556 10.777703953241167 35.4654454617424 10.788774224222122 C 35.47643746427748 10.79977261018051 35.40646161615396 11.324820557937498 35.30990441691065 11.95546656588509 C 35.213347217667334 12.586184487776787 35.1336734203898 13.121007125438409 35.132811302520295 13.144082171622536 C 35.132021027817736 13.167157217806663 34.7190668585774 13.12452997678341 34.21530264851369 13.049338395283062 C 33.711538438449985 12.974146813782713 33.133703274650216 12.928211921235704 32.931321112846796 12.947333298676764 C 31.847926338402353 13.049553597246645 31.10478083685978 14.060183279624074 31.326632504264897 15.129470823351296 C 31.391578715405803 15.442457583908238 31.530523468521857 15.682840945127726 32.047866044230254 16.376817566908514 C 32.40025673540005 16.849604412355053 32.68863560120469 17.24842183094405 32.68863560120469 17.2631582305778 C 32.68863560120469 17.277822745188985 32.25534894014618 17.61532215169161 31.7257930568356 18.013133054637983 L 30.76302286427683 18.73643733454592 L 30.127282854359105 17.898116812864753 C 29.306402989177077 16.81553053674893 29.021904845637938 16.623813582712295 28.23996395740181 16.626185783636785 C 27.58805914165044 16.62819856025181 27.23566930691779 16.78483572530398 26.83852035392186 17.24914015308384 C 26.532612206618335 17.606623649418804 26.411339199038668 17.995376480371828 26.288918462907336 19.010390933821114 C 26.240352490082632 19.413305670156316 26.177131477369617 19.78092422520788 26.148466059245713 19.827361857666407 C 26.109311538480423 19.890764321173624 25.809006575553592 19.871211196560555 24.938195670939983 19.748288054337788 C 23.603852753303045 19.560021564781316 23.72052638507703 19.687474428548366 23.887849093188038 18.601365808821235 C 24.049424354366845 17.55256544403868 24.030745186094677 17.175458764409754 23.794955946175982 16.72387796312992 C 23.438039155962944 16.040324681404353 22.762354677629308 15.67083611529498 22.010085020151028 15.74796858490649 C 21.53872208841521 15.796275221524779 21.331598587784345 15.906546989680763 20.415023587299732 16.597001199295484 L 19.66519573490474 17.16180029091371 L 18.956678573722687 16.215938738579922 C 18.567001315441615 15.695707885355258 18.248161412540636 15.247578377104137 18.248161412540636 15.22004647023247 C 18.248161412540636 15.192586447312202 18.60292285876787 14.901812151230622 19.036568127189263 14.574017116729042 C 19.470141557662625 14.246150202560734 19.90737975121008 13.85897764453823 20.00810385119211 13.713482658787491 C 20.614388246968534 12.838068595672661 20.351945483971523 11.624076759667389 19.44083057862699 11.089828343109469 C 19.203604476975244 10.950731110442105 18.883901696518247 10.871010750025436 18.096141489144404 10.754413481219316 C 17.52779030478398 10.670236290107814 17.052906778321493 10.593534968885326 17.040908971716842 10.583974280164796 C 17.00549029616789 10.555579753022311 17.331586429184764 8.290630753046432 17.37907475570968 8.235279399212825 C 17.40292668231746 8.207459952250884 17.85884320696977 8.24908147779411 18.392134937637778 8.327795420044454 C 19.684952575169806 8.518577886461976 20.13971994744369 8.430878231768338 20.684650282129645 7.885703317488103 C 21.016206426783985 7.553882713153364 21.13948992913451 7.266127772260564 21.177423114857394 6.735186060313767 C 21.221175598307067 6.123733328754989 21.09430088798697 5.831520923035819 20.368613189698863 4.872792327642357 C 20.06622534165119 4.473256175585006 19.82907002452978 4.117354783878079 19.841714419770742 4.081915539520274 C 19.86377026921221 4.019878892513019 21.663010037382417 2.6429239620703964 21.721993266336106 2.6429239620703964 C 21.73787060368807 2.6429239620703964 22.02998461136003 3.014712574682906 22.371024084561487 3.4690250089626655 C 22.71213539571097 3.9234093229091522 23.112159254056266 4.373839860995758 23.259940618617552 4.470093710190663 C 24.023130466376 4.966890078193174 24.923397259190796 4.857265839745913 25.591466743745865 4.186220511242806 C 25.915048328049142 3.8610852300744214 26.03380452378004 3.511077596130292 26.188123621216825 2.427269331402721 C 26.252854305667086 1.9725974987893247 26.316506918810624 1.5652257603723885 26.329582372785612 1.5219510646221845 C 26.346034455473124 1.467534210726121 26.712722000963645 1.4952818144410502 27.521819620489154 1.612238507288841 C 28.164456621537497 1.7051856518726234 28.70320856938788 1.794179091293621 28.719014063439083 1.809993764123557 Z M 1.9706577681688449 3.832331238185875 C 1.7860927021324917 4.091116788131609 1.647076154960814 4.31223461088853 1.6616603150401588 4.323664305911158 C 1.9183559051648562 4.524007453551032 5.794509536665749 7.26612769942113 5.852486961549865 7.288412011428177 C 5.9251203940962744 7.316303344483853 6.652245206766392 6.395673954588012 6.596423074481851 6.346504697698905 C 6.429531428316507 6.199500118976059 2.405308904892596 3.3617727309626475 2.3637117183246836 3.3617727309626475 C 2.3321007302222787 3.3617727309626475 2.155222834205198 3.5735456882401406 1.9706577681688449 3.832331238185875 Z M 25.24316951382929 5.913182120147579 C 23.757884139244105 6.236376513204802 22.53561753302463 7.197477411819311 21.883712717273262 8.55473580965856 C 21.503375043128273 9.346547753273088 21.38684424593466 9.858943859933989 21.388999540541512 10.729972886327262 C 21.392160639351754 12.038421391333662 21.865822909992275 13.16528931266541 22.81321861691818 14.118554642059024 C 23.297657014404997 14.606077881783472 23.507654101472017 14.757754964478714 24.072269472732497 15.028113980563381 C 24.96183141782379 15.454175649176447 25.373924787974012 15.547194255671382 26.330516368882456 15.538064876015092 C 26.97300969403474 15.531882776392669 27.228268422426385 15.495508548464906 27.69553631706463 15.343256377019776 C 29.03031033090472 14.908352858129012 30.032738153949573 14.02812323439463 30.64857764770617 12.75008205644365 C 31.55789643306253 10.862816519434583 31.08100071180145 8.488530009156266 29.50576764884588 7.060896310261209 C 28.96608186119843 6.571719735369889 27.96631317272771 6.059899625809461 27.26447738605973 5.913326359364359 C 26.64978736798658 5.785011856516509 25.83249892060123 5.784939496966456 25.24316951382929 5.913182120147579 Z M 13.451122379489966 7.278851090264162 C 11.735867049866314 8.527635152936885 10.524806546904715 10.413176263492105 10.103230910189447 12.491152370113277 C 9.435233229324922 15.78362336757467 10.785884765721509 19.186437091654177 13.542434749070512 21.15579517233013 C 13.858544638658934 21.381657452636777 14.602839941331068 21.801392013847497 15.196408095354128 22.08857208879338 C 16.185544630486522 22.567109718906675 16.315508453933422 22.652941410615984 16.75288956971224 23.116814526118095 C 17.30213048959735 23.69936957500963 17.646905878671202 24.352945916468254 17.75653853510114 25.019462517471112 C 17.897710337403268 25.87726472541989 17.815020037480032 25.789853497743742 18.48581956960514 25.789853497743742 L 19.07988932173743 25.789853497743742 L 19.030317369273536 25.304630578741474 C 18.962712961357173 24.643002137849884 18.903370071622906 24.39449692272829 18.681877628215425 23.84659037544813 C 18.429205254369016 23.221479478889734 18.04678532458449 22.657757896724807 17.541225028790098 22.164987064278073 C 16.990690923068 21.628366447331246 16.728894119225995 21.457710373290848 15.740763383880989 20.9913931777331 C 14.665702428042728 20.484029710341915 14.075008477090572 20.097362932206103 13.411967991472435 19.467220116202984 C 12.197243855933785 18.31267704925383 11.401221205425726 16.704036981360808 11.20379622173995 15.004894208852138 C 10.90995770614255 12.475912372562329 12.019790900911048 9.870157430717265 14.027376046451021 8.375527083599012 C 14.294129685835813 8.176981047598154 14.51231734383153 7.988498655534138 14.51231734383153 7.95665365587773 C 14.51231734383153 7.904105810426101 13.939727213098351 6.956016301204858 13.907972538394421 6.956016301204858 C 13.900572693403607 6.956016301204858 13.69495805196524 7.101295442291133 13.451122379489966 7.278851090264162 Z M 27.106206704747773 7.1349376457070175 C 28.405921196380476 7.473659177930913 29.442617707569642 8.501829221428192 29.78882985560409 9.795469486767335 C 30.106735830923196 10.983295204550528 29.718927387015473 12.348532896666747 28.8032863826277 13.264705644393349 C 27.366854375481193 14.701971835622725 25.116080133255696 14.69320135085105 23.668368780346363 13.244649263565721 C 22.224105785972395 11.79954753739283 22.234953761472187 9.540637044272565 23.693082404767992 8.113147173265723 C 24.643208159263942 7.182884982539138 25.903911459170367 6.821591452539057 27.106206704747773 7.1349376457070175 Z M 3.0406179898946006 9.927881087771922 C 1.7692096367197518 10.250428529551218 0.7090919504100018 10.534590299053097 0.6847371217674347 10.559318697542786 C 0.6358837757396841 10.608991146376363 0.8518443160343535 11.558805386263208 0.9326678655977717 11.649739754499755 C 0.9708884245237049 11.692726910159687 5.256763669085916 10.679222276770153 5.722522829785593 10.517121871158379 C 5.831005993403342 10.479310424269332 5.548662363105972 9.325413934760421 5.433210413231432 9.334830853435815 C 5.388739498915233 9.33849698208861 4.31202634306945 9.605405525659354 3.0406179898946006 9.927881087771922 Z M 7.3551584213426855 17.446321195241865 C 7.419242517156637 17.66104132168732 7.471688137418214 17.843772240859053 7.471688137418214 17.852470310915518 C 7.471688137418214 17.861096495949415 7.301994605734799 17.9076780725179 7.094511572788929 17.95598470913619 C 5.625534542903503 18.298084825637936 4.443858261482491 19.64254590060927 4.271362844281006 21.168086766727416 C 4.12623967221299 22.451303692011336 4.848335233297217 23.927244571678095 5.947176297065064 24.59354549940339 C 7.689875709770216 25.6501813305747 9.837267573876696 25.198671791968742 10.956368377803306 23.540287704071844 L 11.188924636000781 23.195600947889325 L 11.395833273679788 23.36424127201974 C 11.509560984336044 23.457044648700723 11.817337363635657 23.683985081161552 12.079780417821299 23.8686573303013 C 12.64762870228803 24.268337241692105 13.07574157514525 24.73681298672664 13.29004970988748 25.192922515506726 L 13.446380047195433 25.525605058849347 L 12.796558840254297 26.175732341735987 L 12.146737633313162 26.825929824697713 L 11.421768108960432 26.335172068525292 C 11.022966746129878 26.065244347579682 10.57430691835172 25.813360149705684 10.424729468059752 25.775333050962438 C 9.91974394436457 25.647090427781315 9.35290130552654 25.922841438622605 9.096852308320338 26.421147416735913 C 9.041676764672106 26.52861530802808 8.921698758576186 26.98048272819359 8.83031426842335 27.425234446973615 L 8.664068992502843 28.233939311977394 L 7.934070469213181 28.233939311977394 L 7.204000690352752 28.233939311977394 L 7.083088756674958 27.624859329245613 C 6.822944688113695 26.314110537794416 6.609139316235215 25.963958167611487 5.9628382715199875 25.789781103916308 C 5.5453577061597805 25.677353155707458 5.263732600937022 25.779431151732553 4.441559515660516 26.341211468735132 L 3.731389773356411 26.82657698163992 L 3.179634319745352 26.274501653631237 L 2.6278788661342927 25.72242632562255 L 3.116340462770655 25.006811147689003 C 3.38503386378219 24.613241453575974 3.6330364990878787 24.167411025634326 3.6675212127974772 24.01616523807814 C 3.80524454522741 23.412116626352994 3.4165013344294084 22.780249846640658 2.793190145957957 22.59507440555644 C 2.598279661740648 22.537135195195052 2.164849753004657 22.435273587987837 1.8300606608865826 22.36878007600837 L 1.221333637847208 22.24779902160508 L 1.221333637847208 21.512918310564807 L 1.221333637847208 20.778039793276875 L 2.028994429897153 20.61708857112085 C 2.4732725025491065 20.528526403273208 2.9220048876824984 20.411930535555012 3.0262493040491267 20.357944993936695 C 3.4882007794433463 20.118927774852285 3.781823695552943 19.510207104760685 3.6704668084690932 19.02225255275849 C 3.6376344874653768 18.87819526317444 3.3963852701667054 18.44623927336414 3.1344451330035006 18.062374019806914 C 2.8725049958402957 17.678580645916416 2.6581967411968646 17.342806051488168 2.6581967411968646 17.31620864669638 C 2.6581967411968646 17.289611241904595 2.899230665184013 17.028381894691616 3.193787594519195 16.73559479441243 L 3.7293063700910944 16.203287368797813 L 4.485742902614981 16.715970582797055 C 5.300947193070325 17.268477737244194 5.568850565069708 17.36135254798596 6.005441429162716 17.24295815897148 C 6.486072141344074 17.112630879776397 6.819208755112552 16.710003919188456 6.933583058687304 16.121338653019144 C 6.988830444565751 15.837177729740095 6.9909139720144555 15.840987660573068 7.114053139012311 16.444820599020655 C 7.182519666537814 16.780882412188735 7.291074325528734 17.231529189129677 7.3551584213426855 17.446321195241865 Z M 8.16325030959578 19.481955550714243 C 8.581377485003225 20.307697164995496 9.047208620680875 20.98089881494566 9.835399855742898 21.898437379172226 L 10.22852560958928 22.356056312398827 L 10.059119326925526 22.67565751049943 C 9.82620381047293 23.11494599755699 9.269994404084034 23.5949925008174 8.779377497719354 23.78016794190162 C 8.447749480859498 23.905319516610493 8.260310468683386 23.928970075727094 7.794982335671887 23.904169793286005 C 6.832786983727299 23.852843992146866 6.1568865119447675 23.392206335720683 5.730569228084685 22.497239632160785 C 5.529911296935175 22.075922364325532 5.5169793871790365 22.00001195188053 5.547225355778607 21.41896647882241 C 5.570287009289647 20.975005470653763 5.625462662133615 20.698392409403105 5.737609826596391 20.46462278304098 C 6.101710925474679 19.705374693593214 6.939761533307683 19.128353736338806 7.703957180853515 19.11074194115817 C 7.957347985566448 19.104919266113004 7.982708459837716 19.125406558601497 8.16325030959578 19.481955550714243 Z M 30.102282015175305 23.381710121954704 L 30.102282015175305 23.992731575513115 L 32.22165509261605 23.992731575513115 L 34.34102817005679 23.992731575513115 L 34.34102817005679 23.381710121954704 L 34.34102817005679 22.77068866839629 L 32.22165509261605 22.77068866839629 L 30.102282015175305 22.77068866839629 L 30.102282015175305 23.381710121954704 Z M 29.457059533147614 26.405835025357533 C 29.245409590898653 26.666920896025445 29.104307851578564 26.901553031256903 29.140013900330565 26.933182376916776 C 29.175360733649306 26.96459606858011 29.993942167750014 27.647717200374448 30.959083115366216 28.4513182319894 L 32.71392365515066 29.912306838436404 L 33.09469369302578 29.486462214196116 C 33.30411648759839 29.252261292694936 33.47618121527056 29.037181506550812 33.477187019473945 29.008643209363193 C 33.478480196211294 28.969034642265786 30.598431265717927 26.531058488302474 29.951842869210584 26.02441388613332 C 29.85521382345487 25.9487191126885 29.782077979183942 26.005076850411054 29.457059533147614 26.405835025357533 Z M 17.888945636703223 27.910457365975883 L 17.888945636703223 28.809018327091195 L 18.499612455626828 28.809018327091195 L 19.110279274550432 28.809018327091195 L 19.110279274550432 27.910457365975883 L 19.110279274550432 27.01189640486057 L 18.499612455626828 27.01189640486057 L 17.888945636703223 27.01189640486057 L 17.888945636703223 27.910457365975883 Z M 26.43828110163368 29.740645717324895 L 26.43828110163368 31.900068033327877 L 27.050026620274764 31.900068033327877 L 27.66176994643675 31.900068033327877 L 27.642732650406497 29.761492945873428 L 27.623693161897148 27.622917858418983 L 27.030987131765414 27.60207062987045 L 26.43828110163368 27.58115320124683 L 26.43828110163368 29.740645717324895 Z M 20.906358153737504 31.864125594883262 L 20.906358153737504 32.47514704844168 L 18.463690878043085 32.47514704844168 L 16.02102360234867 32.47514704844168 L 16.02102360234867 31.912072246167774 C 16.02102360234867 31.60232031055523 16.04257708288748 31.327360657310876 16.068943521810283 31.301050792609363 C 16.09523811636178 31.27466904181411 17.194437320734266 31.25310414132485 18.511609701265147 31.25310414132485 L 20.906358153737504 31.25310414132485 L 20.906358153737504 31.864125594883262 Z M 20.906358153737504 34.14172534979074 C 20.906358153737504 34.695167008460096 20.720500158795303 35.103401919870606 20.35611167386741 35.35054212401068 C 20.09647050519984 35.52666007581702 20.06026101057546 35.53068620479995 18.541065657981306 35.55016700628268 C 16.797216701077737 35.57259508833486 16.68427905369112 35.547649915406765 16.28942908631957 35.0530100745156 C 16.128500418059257 34.85144488684791 16.071672860678582 34.69193184074189 16.041283205477487 34.35702020507359 C 15.976265152106365 33.63889030140337 15.75908291706569 33.6971899555585 18.49738489686065 33.6971899555585 L 20.906358153737504 33.6971899555585 L 20.906358153737504 34.14172534979074 Z" fill="rgb(255,255,255)"/>
        </svg>