<svg 
          width="25" 
          height="25" fill="none" 
          xmlns="http://www.w3.org/2000/svg">
          <path d="M 24.5 24 L 23.5 24 L 23.5 0.5 C 23.5 0.19999998807907104 23.30000001192093 0 23 0 L 11 0 C 10.699999988079071 0 10.5 0.19999998807907104 10.5 0.5 L 10.5 7.550000190734863 L 6.800000190734863 5.050000190734863 C 6.650000184774399 4.950000189244747 6.4000000059604645 4.950000189244747 6.25 5.050000190734863 L 1.75 8.050000190734863 C 1.5999999940395355 8.200000196695328 1.5 8.349999994039536 1.5 8.5 L 1.5 24 L 0.5 24 C 0.19999998807907104 24 0 24.19999998807907 0 24.5 C 0 24.80000001192093 0.19999998807907104 25 0.5 25 L 2 25 L 4.5 25 L 8.5 25 L 11 25 L 15 25 L 19 25 L 23 25 L 24.5 25 C 24.80000001192093 25 25 24.80000001192093 25 24.5 C 25 24.19999998807907 24.80000001192093 24 24.5 24 Z M 5 24 L 5 22.5 C 5 21.649999976158142 5.649999976158142 21 6.5 21 C 7.350000023841858 21 8 21.649999976158142 8 22.5 L 8 24 L 5 24 Z M 9 24 L 9 22.5 C 9 21.100000023841858 7.899999976158142 20 6.5 20 C 5.100000023841858 20 4 21.100000023841858 4 22.5 L 4 24 L 2.5 24 L 2.5 8.75 L 6.5 6.100000381469727 L 10.5 8.75 L 10.5 24 L 9 24 Z M 15.5 24 L 15.5 20.5 C 15.5 19.69999998807907 16.149999976158142 19 17 19 C 17.80000001192093 19 18.5 19.649999976158142 18.5 20.5 L 18.5 24 L 15.5 24 Z M 19.5 24 L 19.5 20.5 C 19.5 19.149999976158142 18.399999976158142 18 17 18 C 15.649999976158142 18 14.5 19.100000023841858 14.5 20.5 L 14.5 24 L 11.5 24 L 11.5 8.5 L 11.5 1 L 22.5 1 L 22.5 24 L 19.5 24 Z" fill="rgb(116.00000068545341,116.00000068545341,116.00000068545341)"/>
        </svg>