<svg 
          width="5.625000953674316" 
          height="5.625000476837158" fill="none" 
          xmlns="http://www.w3.org/2000/svg">
          <path d="M 2.8124872893093618 0 C 2.2562279232506226 0.0000027812967010297382 1.7124611693285399 0.16495501709953947 1.2499497590788158 0.47399819148380573 C 0.7874383488290916 0.7830413658680719 0.4269553067700954 1.2222943333475813 0.21408599096892628 1.7362117859321786 C 0.001216675167757142 2.250129238516776 -0.054478124361336124 2.815628867612964 0.054044395792209564 3.361199515984849 C 0.16256691594575526 3.9067701643567343 0.4304324415487832 4.407908008504749 0.8237681997685227 4.8012417809234265 C 1.217103957988262 5.194575553342104 1.7182438443878603 5.462439086823916 2.2638150544438327 5.570958882283944 C 2.809386264499805 5.679478677743972 3.374885281919211 5.623781566501656 3.888801675518894 5.41090968137799 C 4.402718069118577 5.198037796254323 4.841969055208227 4.837551710680399 5.151009912236627 4.375038766198892 C 5.460050769265027 3.9125258217173844 5.625000953667364 3.3687593780127316 5.625000953674316 2.81250001490116 C 5.62418515601757 2.0668265705536544 5.327604935147143 1.3519273956222126 4.800332537495631 0.8246576829733192 C 4.2730601398441195 0.2973879703244259 3.5581607376075866 0.000812069288013523 2.8124872893093618 0 L 2.8124872893093618 0 Z M 2.8124872893093618 4.687500024835266 C 2.441647330094609 4.687500024835266 2.0791349035277316 4.57753304489057 1.7707927340154375 4.371505402837886 C 1.4624505645031431 4.165477760785201 1.2221271767328392 3.872641736670422 1.0802128652952796 3.530030269252088 C 0.9382985538577201 3.187418801833754 0.9011673021626468 2.8104201014974772 0.9735145895522375 2.4467057119300923 C 1.045861876941828 2.0829913223627075 1.2244384027378499 1.7488986067001606 1.48666185970875 1.48667515111857 C 1.74888531667965 1.2244516955369795 2.082978592905834 1.0458747236522516 2.4466929844002467 0.9735274366459706 C 2.8104073758946595 0.9011801496396896 3.1874074193328683 0.9383114011380345 3.5300188885664228 1.080225711823705 C 3.872630357799977 1.2221400225093757 4.165465265879156 1.462462961971563 4.371492909023414 1.770805129850202 C 4.577520552167671 2.0791472977288414 4.6874866386253125 2.4416600576511875 4.6874866386253125 2.81250001490116 C 4.686916569886786 3.3096059400848845 4.489190169681795 3.78618824439049 4.1376829585783454 4.137695453631587 C 3.7861757474748967 4.489202662872684 3.3095932171268476 4.6869299560997595 2.8124872893093618 4.687500024835266 L 2.8124872893093618 4.687500024835266 Z" fill="rgb(116.00000068545341,116.00000068545341,116.00000068545341)"/>
        </svg>