<svg 
          width="21.125001907348633" 
          height="25" fill="none" 
          xmlns="http://www.w3.org/2000/svg">
          <path d="M 9.458333015441895 0.8333333134651184 L 9.458333015441895 6.916666030883789 C 9.458333015441895 8.6666659116745 8.500000357627869 10.20833271741867 7.000000476837158 11.041666030883789 L 7.000000476837158 24.16666603088379 C 7.000000476837158 24.62499937415123 6.625000327825546 25 6.1666669845581055 25 L 3.2916665077209473 25 C 2.8333331644535065 25 2.4583330154418945 24.62499937415123 2.4583330154418945 24.16666603088379 L 2.4583330154418945 11.041666030883789 C 0.9583331346511841 10.20833271741867 0 8.6666659116745 0 6.916666030883789 L 0 0.8333333134651184 C 0 0.3749999701976776 0.3749999701976776 0 0.8333333134651184 0 C 1.2916666567325592 0 1.6666666269302368 0.3749999701976776 1.6666666269302368 0.8333333134651184 L 1.6666666269302368 6.916666030883789 C 1.6666666269302368 8.166666030883789 2.416666865348816 9.29166665673256 3.5833334922790527 9.75 C 3.9166668355464935 9.875 4.124999523162842 10.166666060686111 4.124999523162842 10.541666030883789 L 4.124999523162842 23.333332061767578 L 5.333333492279053 23.333332061767578 L 5.333333492279053 10.541666030883789 C 5.333333492279053 10.208332687616348 5.541666656732559 9.875 5.875 9.75 C 7.041666626930237 9.29166665673256 7.791666030883789 8.166666030883789 7.791666030883789 6.916666030883789 L 7.791666030883789 0.8333333134651184 C 7.791666030883789 0.3749999701976776 8.166665703058243 0 8.624999046325684 0 C 9.083332389593124 0 9.458333015441895 0.3749999701976776 9.458333015441895 0.8333333134651184 Z M 21.125001907348633 13.166666030883789 C 21.125001907348633 13.416666030883789 21.083334609866142 13.624999359250069 20.916667938232422 13.791666030883789 C 20.7500012665987 13.95833270251751 20.541667938232422 14.041666984558105 20.291667938232422 14.041666984558105 L 17.91666603088379 14.041666984558105 L 17.91666603088379 24.16666603088379 C 17.91666603088379 24.62499937415123 17.54166540503502 25 17.083332061767578 25 L 14.208332061767578 25 C 13.749998718500137 25 13.374999046325684 24.62499937415123 13.374999046325684 24.16666603088379 L 13.374999046325684 0.8333333134651184 C 13.374999046325684 0.3749999701976776 13.749998718500137 0 14.208332061767578 0 C 17.458332061767578 0 20.208335250616074 2.5416669845581055 20.500001907348633 5.7916669845581055 L 21.125001907348633 13.166666030883789 Z M 19.375 12.375 L 18.83333396911621 5.9166669845581055 C 18.66666729748249 3.833333730697632 17.083332777023315 2.1250002086162567 15.041666030883789 1.750000238418579 L 15.041666030883789 23.333332061767578 L 16.25 23.333332061767578 L 16.25 13.208333015441895 C 16.25 12.749999672174454 16.624998718500137 12.375 17.083332061767578 12.375 L 19.375 12.375 Z M 3.5833334922790527 6.958333492279053 C 4.0416668355464935 6.958333492279053 4.416666507720947 6.583333343267441 4.416666507720947 6.125 L 4.416666507720947 0.8333333134651184 C 4.416666507720947 0.3749999701976776 4.0416668355464935 0 3.5833334922790527 0 C 3.125000149011612 0 2.75 0.3749999701976776 2.75 0.8333333134651184 L 2.75 6.125 C 2.7499999999999987 6.583333343267441 3.0833334922790527 6.958333492279053 3.5833334922790527 6.958333492279053 Z M 5.916666030883789 6.958333492279053 C 6.37499937415123 6.958333492279053 6.749999523162842 6.583333343267441 6.749999523162842 6.125 L 6.749999523162842 0.8333333134651184 C 6.749999523162842 0.3749999701976776 6.37499937415123 0 5.916666030883789 0 C 5.458332687616348 0 5.083332538604736 0.3749999701976776 5.083332538604736 0.8333333134651184 L 5.083332538604736 6.125 C 5.083332538604736 6.583333343267441 5.458332687616348 6.958333492279053 5.916666030883789 6.958333492279053 Z" fill="rgb(116.00000068545341,116.00000068545341,116.00000068545341)"/>
        </svg>