<svg 
          width="28.37837791442871" 
          height="28.37837791442871" fill="none" 
          xmlns="http://www.w3.org/2000/svg">
          <path d="M 25.0398631770565 10.81081063406808 L 17.56756728036063 10.81081063406808 L 17.56756728036063 3.3385134486231567 C 17.56756728036063 1.5027026626704747 16.025675369859204 0 14.189188957214355 0 C 12.352702544569508 0 10.81081063406808 1.5027026626704747 10.81081063406808 3.3385134486231567 L 10.81081063406808 10.81081063406808 L 3.3385134486231567 10.81081063406808 C 1.5027026626704747 10.81081063406808 0 12.352702544569508 0 14.189188957214355 C 0 16.025675369859204 1.5027026626704747 17.56756728036063 3.3385134486231567 17.56756728036063 L 10.81081063406808 17.56756728036063 L 10.81081063406808 25.0398631770565 C 10.81081063406808 26.87567396300918 12.352702544569508 28.37837791442871 14.189188957214355 28.37837791442871 C 16.025675369859204 28.37837791442871 17.56756728036063 26.87567396300918 17.56756728036063 25.0398631770565 L 17.56756728036063 17.56756728036063 L 25.0398631770565 17.56756728036063 C 26.87567396300918 17.56756728036063 28.37837791442871 16.025675369859204 28.37837791442871 14.189188957214355 C 28.37837791442871 12.352702544569508 26.87567396300918 10.81081063406808 25.0398631770565 10.81081063406808 Z" fill="rgb(251.81250303983688,251.81250303983688,251.81250303983688)"/>
        </svg>