<svg 
          width="5.625001430511475" 
          height="5.625000476837158" fill="none" 
          xmlns="http://www.w3.org/2000/svg">
          <path d="M 2.812487080693028 0 C 2.256227711687122 0.0000027812967010297382 1.7124615136776142 0.16495501709953947 1.2499501009774174 0.47399819148380573 C 0.7874386882772206 0.7830413658680719 0.4269556443083173 1.2222943333475813 0.2140863273793264 1.7362117859321786 C 0.0012170104503355095 2.250129238516776 -0.05447823990114194 2.815628867612964 0.054044280827376515 3.361199515984849 C 0.16256680155589498 3.9067701643567343 0.4304327791054276 4.407908008504749 0.8237685394091341 4.8012417809234265 C 1.2171042997128405 5.194575553342104 1.718243182939176 5.462439086823916 2.2638143958856873 5.570958882283944 C 2.8093856088321987 5.679478677743972 3.374885746834833 5.623781566501656 3.8888021431573416 5.41090968137799 C 4.40271853947985 5.198037796254323 4.841969527896735 4.837551710680399 5.151010386562492 4.375038766198892 C 5.460051245228248 3.9125258217173844 5.625001430504524 3.3687593780127316 5.625001430511475 2.81250001490116 C 5.6241856328504065 2.0668265705536544 5.327605410408641 1.3519273956222126 4.800333009963541 0.8246576829733192 C 4.273060609518441 0.2973879703244259 3.5581605329419714 0.000812069288013523 2.812487080693028 0 Z M 2.812487080693028 4.687500024835266 C 2.4416471195134957 4.687500024835266 2.0791361438891984 4.57753304489057 1.7707939727432493 4.371505402837886 C 1.4624518015973 4.165477760785201 1.2221270714491888 3.872641736670422 1.0802127592597404 3.530030269252088 C 0.9382984470702921 3.187418801833754 0.9011671951784903 2.8104201014974772 0.9735144829513905 2.4467057119300923 C 1.0458617707242908 2.0829913223627075 1.2244387445012879 1.7488986067001606 1.486662202861497 1.48667515111857 C 1.7488856612217063 1.2244516955369795 2.0829783804244255 1.0458747236522516 2.4466927738458657 0.9735274366459706 C 2.810407167267306 0.9011801496396896 3.1874076597377754 0.9383114011380345 3.53001913078655 1.080225711823705 C 3.8726306018353243 1.2221400225093757 4.165464840913733 1.462462961971563 4.371492485149564 1.770805129850202 C 4.577520129385395 2.0791472977288414 4.6874871104953435 2.4416600576511875 4.6874871104953435 2.81250001490116 C 4.686917041753796 3.3096059400848845 4.489189746431527 3.78618824439049 4.137682533465727 4.137695453631587 C 3.7861753204999262 4.489202662872684 3.3095930111442753 4.6869299560997595 2.812487080693028 4.687500024835266 Z" fill="rgb(116.00000068545341,116.00000068545341,116.00000068545341)"/>
        </svg>