<svg 
          width="30" 
          height="11.718814849853516" fill="none" 
          xmlns="http://www.w3.org/2000/svg">
          <path d="M 29.835850596427917 9.681755698286015 C 29.83038840829977 9.662171745690879 29.82381534995511 9.642915689668696 29.816163182258606 9.624079261422262 C 29.28813038393855 8.351038549896723 29.499387907708297 5.787104732325361 29.501677751541138 5.7614687939370235 C 29.50373766143457 5.734958748740874 29.50373766143457 5.708328851055645 29.501677751541138 5.681818805859496 C 29.398679311852902 4.467828939856351 28.059487268328667 4.274652788193334 27.17325210571289 4.146937151608473 C 26.8898381665349 4.118769391161189 26.610009502619505 4.061944684915328 26.338056921958923 3.977335704277723 C 25.31670279800892 3.521262084921297 24.451698325574398 2.77539923904312 23.850329518318176 1.8322539330012657 C 22.63015452772379 -0.024664142241316744 20.40403797989711 -0.00040456288670587763 20.32209813594818 0.00005481213743427356 L 13.380988240242004 0.00005481213743427356 C 13.369316364987753 0.00005481213743427356 13.35741231276188 0.0005243097834473636 13.34574043750763 0.0014289973332160158 C 11.412594392895699 0.1472266629086998 9.551317384466529 2.2820078765059764 9.348069727420807 2.5216469449660055 C 8.155453205108643 3.6516314740677647 6.636934652924538 4.37684835048985 5.008447766304016 4.594171383158582 C 3.2281962409615517 4.736994828061495 1.6095414943993092 5.33643693956658 0.9308969601988792 5.854623704954048 C 0.672148447483778 6.053489450811899 0.45697799418121576 6.303354693014403 0.2987089566886425 6.588747918480259 C 0.14043991919606924 6.874141143946114 0.04244187846779823 7.188985249111261 0.010782885365188122 7.513786860071626 C 0.009409447884536348 7.527748579290261 0.008493041968904436 7.541941188518531 0.008493041968904436 7.555902907737166 C 0.008111010729408008 7.61747088079391 0.002188354374084156 8.46234564643677 0.0004703856393462047 9.370635533153123 L 0.000027416846819505736 9.375055813789528 L 0.0004563230868370738 9.37933304327265 C -0.0008608644020569045 10.079176836054325 0.00034147873520851135 10.815222125986265 0.008495385409332812 11.258753400202579 C 0.010816989015438594 11.38154635882433 0.06122077815234661 11.49852794816305 0.14887341298162937 11.584554189941002 C 0.23652604781091213 11.670580431718955 0.35443050786852837 11.718784270255815 0.47724539414048195 11.718805909156435 L 3.5482046753168106 11.718805909156435 C 3.5048122715670615 11.407812226947549 3.5048122715670615 11.09229955321856 3.5482046753168106 10.781305871009673 L 0.9405086562037468 10.781305871009673 C 0.9384484998736298 10.502441785164311 0.9376610442996025 10.177673031265716 0.9376610442996025 9.843805832862909 L 1.4062868803739548 9.843805832862909 C 1.530607114546001 9.843805832862909 1.6498354193754494 9.79442016726581 1.7377430945634842 9.706512488500824 C 1.825650769751519 9.618604809735837 1.8750366568565369 9.49937605302015 1.8750366568565369 9.375055813789528 C 1.8750366568565369 9.250735574558906 1.825650769751519 9.131506817843217 1.7377430945634842 9.04359913907823 C 1.6498354193754494 8.955691460313243 1.530607114546001 8.906305794716147 1.4062868803739548 8.906305794716147 L 0.9393509477376938 8.906305794716147 C 0.9415118853212334 8.249973748293574 0.945071933674626 7.70161853543202 0.9457727149128914 7.585199783929252 C 0.9671153471572325 7.392133574900643 1.0271910578012466 7.20535794254872 1.1224041134119034 7.036051887467593 C 1.2176171690225601 6.866745832386466 1.3460102258250117 6.718390051768455 1.4998985454440117 6.599863887159952 C 1.9759751111268997 6.236170132142419 3.4026041999459267 5.66350693110472 5.08352056145668 5.528467075471837 C 6.941789723932743 5.300255503105387 8.675339631736279 4.473573896523886 10.022359192371368 3.1732726643249682 C 10.03311700449558 3.1625148517630226 10.043416190310381 3.1515292400183634 10.053030252456665 3.1398550208486613 C 10.532770100980997 2.5635268464699172 12.064905390143394 1.049932929102346 13.399530351161957 0.9375547999163787 L 20.33148229122162 0.9375547999163787 C 20.35116979095619 0.9380235499577165 22.127528004348278 0.9178678319808429 23.066638112068176 2.3472389788849917 C 23.772854804992676 3.447451433744857 24.786752611398697 4.315932978470759 25.98237633705139 4.84479342742924 C 26.324729416519403 4.961985989279371 26.679490925744176 5.039174781566195 27.039586901664734 5.074820575975876 C 27.889196276664734 5.197501831763483 28.499634393956512 5.317206478036018 28.56372892856598 5.72919555968697 C 28.55482267885236 5.845553374751201 28.534058889490552 6.153386262100246 28.525004982948303 6.562553464174968 L 28.125189542770386 6.562553464174968 C 28.00086930859834 6.562553464174968 27.881640556734055 6.611939129772065 27.79373288154602 6.699846808537052 C 27.705825206357986 6.78775448730204 27.656439542770386 6.90698234994802 27.656439542770386 7.031302589178642 C 27.656439542770386 7.155622828409264 27.705825206357986 7.274851585124951 27.79373288154602 7.362759263889939 C 27.881640556734055 7.450666942654927 28.00086930859834 7.5000521612171696 28.125189542770386 7.5000521612171696 L 28.530328273773193 7.5000521612171696 C 28.53329663463228 8.334213554975886 28.670859038829803 9.162429776331829 28.937712907791138 9.952760743759894 C 29.006993346847594 10.224059099977357 29.048785526538268 10.501644079407017 29.06245529651642 10.781314811706752 L 27.389504313468933 10.781314811706752 C 27.432896717218682 11.092308493915638 27.432896717218682 11.407821167644629 27.389504313468933 11.718814849853516 L 29.47719097137451 11.718814849853516 C 29.575567301362753 11.718825749586916 29.671454227063805 11.687885042651242 29.751269817352295 11.630375262476537 C 29.831085407640785 11.572865482301832 29.890783403534442 11.49170243840419 29.921910166740417 11.39838026650257 C 30.119893765076995 10.804192714430178 29.884830282535404 9.864167418302657 29.835850596427917 9.681755698286015 Z" fill="rgb(116.00000068545341,116.00000068545341,116.00000068545341)"/>
        </svg>