<svg 
          width="6.328114032745361" 
          height="3.2810280323028564" fill="none" 
          xmlns="http://www.w3.org/2000/svg">
          <path d="M 6.328114032745361 2.8122825047800757 L 6.328114032745361 0.46920759390285205 C 6.328107817295468 0.34488927416330245 6.27871987037194 0.22566532148005297 6.190813546585298 0.13775899478068152 C 6.102907222798657 0.04985266808131006 5.983682366026355 0.00046382105881219394 5.859364050406027 0.0004576056087125111 L 3.641488414896469 0.0006927459039986697 C 2.1677103939527607 -0.04576975318872986 0.3059755103867008 2.259528403153051 0.09975129362626202 2.523200276955555 C 0.0455512415219585 2.5923849524540663 0.011892747559012973 2.675413598262976 0.0026177765280934466 2.7628100537947384 C -0.006657194502826081 2.850206509326501 0.008825270592215523 2.9384502006420754 0.047297118545159576 3.017469705348134 C 0.08576896649810363 3.0964892100541923 0.1456806637408002 3.1631012664410028 0.2201949908324943 3.2097036245724326 C 0.2947093179241884 3.2563059827038625 0.3808242544475819 3.2810207145230144 0.46871148146555053 3.2810280323028564 L 5.8593622622667505 3.2810280323028564 C 5.983680172761773 3.2810224384999143 6.102905057473753 3.231635607537686 6.1908117584460225 3.143730223802417 C 6.278718459418292 3.055824840067148 6.3281065741691656 2.936600419394307 6.328114032745361 2.8122825047800757 L 6.328114032745361 2.8122825047800757 Z M 5.390614068066692 2.343532506908957 L 1.5018857822214489 2.343532506908957 C 2.2084466653490766 1.6122543738575734 3.079576264524476 0.9214912592492338 3.6256910984636046 0.937970164628671 L 5.390606915509589 0.937970164628671 L 5.390614068066692 2.343532506908957 Z" fill="rgb(116.00000068545341,116.00000068545341,116.00000068545341)"/>
        </svg>