<svg width="60" height="16" viewBox="0 0 60 16" fill="none" xmlns="http://www.w3.org/2000/svg">
<path d="M47 11.25L51 7.5L47 3.75" stroke="#111111" stroke-width="2" stroke-linecap="round" stroke-linejoin="round"/>
<path d="M10.925 4.682H8.558V11H10.925C12.941 11 14.237 9.713 14.237 7.841C14.237 5.96 12.941 4.682 10.925 4.682ZM10.097 9.668V5.996H10.826C11.987 5.996 12.671 6.68 12.671 7.841C12.671 9.002 11.987 9.668 10.826 9.668H10.097ZM17.3111 7.139C17.8241 7.139 18.2561 7.454 18.2561 8.003H16.3301C16.4201 7.445 16.8071 7.139 17.3111 7.139ZM19.7141 9.335H18.0761C17.9501 9.605 17.7071 9.821 17.2751 9.821C16.7801 9.821 16.3751 9.515 16.3211 8.858H19.8041C19.8221 8.705 19.8311 8.552 19.8311 8.408C19.8311 6.878 18.7961 5.906 17.3291 5.906C15.8351 5.906 14.7911 6.896 14.7911 8.489C14.7911 10.082 15.8531 11.072 17.3291 11.072C18.5801 11.072 19.4711 10.316 19.7141 9.335ZM20.886 9.254C20.886 10.559 21.615 11 22.659 11H23.442V9.695H22.893C22.551 9.695 22.425 9.569 22.425 9.272V7.256H23.433V5.978H22.425V4.754H20.886V5.978H20.274V7.256H20.886V9.254ZM23.9932 8.48C23.9932 10.064 24.9742 11.072 26.1982 11.072C26.9452 11.072 27.4762 10.73 27.7552 10.289V11H29.2942V5.978H27.7552V6.689C27.4852 6.248 26.9542 5.906 26.2072 5.906C24.9742 5.906 23.9932 6.896 23.9932 8.48ZM27.7552 8.489C27.7552 9.29 27.2422 9.731 26.6572 9.731C26.0812 9.731 25.5592 9.281 25.5592 8.48C25.5592 7.679 26.0812 7.247 26.6572 7.247C27.2422 7.247 27.7552 7.688 27.7552 8.489ZM30.4076 11H31.9466V5.978H30.4076V11ZM31.1816 5.456C31.7216 5.456 32.0906 5.087 32.0906 4.628C32.0906 4.16 31.7216 3.791 31.1816 3.791C30.6326 3.791 30.2636 4.16 30.2636 4.628C30.2636 5.087 30.6326 5.456 31.1816 5.456ZM33.0619 11H34.6009V4.34H33.0619V11ZM39.7932 9.542C39.7662 7.67 37.0482 8.237 37.0482 7.436C37.0482 7.193 37.2462 7.049 37.6062 7.049C38.0382 7.049 38.2992 7.274 38.3442 7.616H39.7662C39.6672 6.626 38.9472 5.906 37.6512 5.906C36.3372 5.906 35.6082 6.608 35.6082 7.463C35.6082 9.308 38.3442 8.723 38.3442 9.533C38.3442 9.758 38.1372 9.938 37.7412 9.938C37.3182 9.938 37.0032 9.704 36.9672 9.353H35.4462C35.5182 10.325 36.4182 11.072 37.7592 11.072C39.0192 11.072 39.7932 10.415 39.7932 9.542Z" fill="#111111"/>
<rect y="15" width="60" height="1" fill="#111111"/>
</svg>
