<svg width="66" height="99" viewBox="0 0 66 99" fill="none" xmlns="http://www.w3.org/2000/svg">
<path fill-rule="evenodd" clip-rule="evenodd" d="M33.4726 49.4654L33.4751 81.9533L65.9501 65.7123V33.2373L33.4726 49.4654Z" fill="#D9D9D9"/>
<path fill-rule="evenodd" clip-rule="evenodd" d="M1 65.7121L33.475 81.9531V49.4781L1 33.2371V65.7121Z" fill="#F2F2F2"/>
<path fill-rule="evenodd" clip-rule="evenodd" d="M33.4752 17L1.0004 33.2206L33.4752 49.4745L65.95 33.2372L33.4752 17Z" fill="#F2F2F2"/>
<path fill-rule="evenodd" clip-rule="evenodd" d="M1 33.2371V33.3108L33.475 49.5523L33.4752 49.4046L1.07396 33.2002L1 33.2371Z" fill="#B5B5B5"/>
<path fill-rule="evenodd" clip-rule="evenodd" d="M33.4752 49.4046L33.475 49.5521L65.95 33.3105V33.2367L65.8762 33.1998L33.4752 49.4046Z" fill="#B5B5B5"/>
<path fill-rule="evenodd" clip-rule="evenodd" d="M33.475 49.4783L65.95 33.2371L33.475 49.4783Z" fill="#94816C"/>
<path fill-rule="evenodd" clip-rule="evenodd" d="M33.475 53.4819V49.4783C33.475 49.4783 31.6275 62.2156 33.475 81.9531V76.8662C32.7598 66.1806 33.1183 58.0144 33.475 53.4819Z" fill="#D9D9D9"/>
<path fill-rule="evenodd" clip-rule="evenodd" d="M33.4751 80.2352V50.12C33.1184 54.6523 32.7597 69.5496 33.4751 80.2352Z" fill="#B5B5B5"/>
<path fill-rule="evenodd" clip-rule="evenodd" d="M18.5583 58.8865L13.8718 56.5428V39.7605L18.5583 42.1042V58.8865Z" fill="#FFD64D"/>
<path fill-rule="evenodd" clip-rule="evenodd" d="M13.8691 39.7623L18.5556 42.1054L51.3429 25.9327L46.6562 23.5896L13.8691 39.7623Z" fill="#FFD64D"/>
<path fill-rule="evenodd" clip-rule="evenodd" d="M12.0128 46.9921L3.81902 44.6079L2.85236 39.5011L11.0459 41.8854L12.0128 46.9921Z" fill="white"/>
<path fill-rule="evenodd" clip-rule="evenodd" d="M4.98039 44.0982L4.78123 44.0403L4.15414 40.7276L4.35331 40.7855L4.98039 44.0982Z" fill="#2C323D"/>
<path fill-rule="evenodd" clip-rule="evenodd" d="M5.21061 44.1652L5.11103 44.1362L4.48395 40.8235L4.58353 40.8527L5.21061 44.1652Z" fill="#2C323D"/>
<path fill-rule="evenodd" clip-rule="evenodd" d="M5.4409 44.2322L5.34132 44.2032L4.71423 40.8905L4.81361 40.9195L5.4409 44.2322Z" fill="#2C323D"/>
<path fill-rule="evenodd" clip-rule="evenodd" d="M5.67112 44.2991L5.57154 44.2702L4.94446 40.9575L5.04383 40.9866L5.67112 44.2991Z" fill="#2C323D"/>
<path fill-rule="evenodd" clip-rule="evenodd" d="M5.90132 44.3662L5.80174 44.3372L5.17465 41.0245L5.27424 41.0535L5.90132 44.3662Z" fill="#2C323D"/>
<path fill-rule="evenodd" clip-rule="evenodd" d="M6.231 44.4621L6.03184 44.4042L5.40475 41.0915L5.60392 41.1494L6.231 44.4621Z" fill="#2C323D"/>
<path fill-rule="evenodd" clip-rule="evenodd" d="M7.1208 44.721L7.02122 44.692L6.39413 41.3793L6.49372 41.4085L7.1208 44.721Z" fill="#2C323D"/>
<path fill-rule="evenodd" clip-rule="evenodd" d="M7.351 44.788L7.25141 44.7591L6.62433 41.4464L6.72391 41.4753L7.351 44.788Z" fill="#2C323D"/>
<path fill-rule="evenodd" clip-rule="evenodd" d="M7.6808 44.8839L7.48164 44.826L6.85455 41.5133L7.05372 41.5714L7.6808 44.8839Z" fill="#2C323D"/>
<path fill-rule="evenodd" clip-rule="evenodd" d="M6.56081 44.558L6.36164 44.5001L5.73456 41.1874L5.93372 41.2455L6.56081 44.558Z" fill="#2C323D"/>
<path fill-rule="evenodd" clip-rule="evenodd" d="M6.89058 44.654L6.69141 44.5961L6.06433 41.2834L6.2635 41.3413L6.89058 44.654Z" fill="#2C323D"/>
<path fill-rule="evenodd" clip-rule="evenodd" d="M8.01061 44.9799L7.81144 44.922L7.18436 41.6093L7.38332 41.6674L8.01061 44.9799Z" fill="#2C323D"/>
<path fill-rule="evenodd" clip-rule="evenodd" d="M8.2408 45.0469L8.14121 45.018L7.51413 41.7052L7.61371 41.7342L8.2408 45.0469Z" fill="#2C323D"/>
<path fill-rule="evenodd" clip-rule="evenodd" d="M8.47102 45.1139L8.37144 45.085L7.74435 41.7723L7.84394 41.8012L8.47102 45.1139Z" fill="#2C323D"/>
<path fill-rule="evenodd" clip-rule="evenodd" d="M8.70118 45.1809L8.6016 45.1519L7.97452 41.8392L8.0741 41.8682L8.70118 45.1809Z" fill="#2C323D"/>
<path fill-rule="evenodd" clip-rule="evenodd" d="M8.93141 45.2479L8.83183 45.219L8.20474 41.9062L8.30433 41.9352L8.93141 45.2479Z" fill="#2C323D"/>
<path fill-rule="evenodd" clip-rule="evenodd" d="M9.26119 45.3438L9.06202 45.2859L8.43494 41.9732L8.6341 42.0311L9.26119 45.3438Z" fill="#2C323D"/>
<path fill-rule="evenodd" clip-rule="evenodd" d="M10.1509 45.6027L10.0513 45.5738L9.42422 42.2611L9.52381 42.29L10.1509 45.6027Z" fill="#2C323D"/>
<path fill-rule="evenodd" clip-rule="evenodd" d="M10.3811 45.6698L10.2815 45.6408L9.65442 42.3281L9.754 42.3571L10.3811 45.6698Z" fill="#2C323D"/>
<path fill-rule="evenodd" clip-rule="evenodd" d="M10.7109 45.7657L10.5117 45.7078L9.88464 42.3951L10.0838 42.453L10.7109 45.7657Z" fill="#2C323D"/>
<path fill-rule="evenodd" clip-rule="evenodd" d="M9.5909 45.4398L9.39173 45.3819L8.76465 42.0692L8.96382 42.1273L9.5909 45.4398Z" fill="#2C323D"/>
<path fill-rule="evenodd" clip-rule="evenodd" d="M9.9207 45.5358L9.72154 45.4779L9.09445 42.1652L9.29362 42.2231L9.9207 45.5358Z" fill="#2C323D"/>
<path fill-rule="evenodd" clip-rule="evenodd" d="M31.1806 55.8024L20.8937 50.6578V45.7657L31.1806 50.9103V55.8024Z" fill="white"/>
<path fill-rule="evenodd" clip-rule="evenodd" d="M5.88993 66.3662C5.88993 66.5056 5.77681 66.562 5.63743 66.4922L2.37868 64.8626C2.23931 64.7928 2.12618 64.6233 2.12618 64.4839V61.2249C2.12618 61.0856 2.23931 61.0291 2.37868 61.0989L5.63743 62.7285C5.77681 62.7983 5.88993 62.9678 5.88993 63.1072V66.3662ZM5.83576 62.6364L2.18035 60.8081C2.04451 60.7403 1.93472 60.7953 1.93472 60.931V64.5864C1.93472 64.722 2.04451 64.887 2.18035 64.9549L5.83576 66.7831C5.97139 66.8508 6.08139 66.796 6.08139 66.6601V63.0047C6.08139 62.8691 5.97139 62.7041 5.83576 62.6364Z" fill="#2C323D"/>
<path fill-rule="evenodd" clip-rule="evenodd" d="M3.34222 64.7626L3.11118 64.647V62.1376L3.34222 62.2532V64.7626Z" fill="#2C323D"/>
<path fill-rule="evenodd" clip-rule="evenodd" d="M3.22675 61.8671L2.91217 62.34L3.22675 62.4971L3.54113 62.6544L3.22675 61.8671Z" fill="#2C323D"/>
<path fill-rule="evenodd" clip-rule="evenodd" d="M4.90481 65.544L4.67377 65.4284V62.919L4.90481 63.0347V65.544Z" fill="#2C323D"/>
<path fill-rule="evenodd" clip-rule="evenodd" d="M4.78926 62.6485L4.47488 63.1214L4.78926 63.2785L5.10384 63.4358L4.78926 62.6485Z" fill="#2C323D"/>
<path fill-rule="evenodd" clip-rule="evenodd" d="M2.58701 64.7282V64.4974L5.42909 65.9186V66.1495L2.58701 64.7282Z" fill="#2C323D"/>
<path fill-rule="evenodd" clip-rule="evenodd" d="M10.8066 68.8249C10.8066 68.9644 10.6937 69.0209 10.5541 68.9511L7.29537 67.3213C7.15599 67.2517 7.04287 67.0822 7.04287 66.9428V63.6838C7.04287 63.5444 7.15599 63.488 7.29537 63.5578L10.5541 65.1874C10.6937 65.2572 10.8066 65.4267 10.8066 65.5661V68.8249ZM10.7525 65.0953L7.09703 63.2669C6.96141 63.1992 6.85141 63.2542 6.85141 63.3899V67.0453C6.85141 67.1809 6.96141 67.3459 7.09703 67.4138L10.7525 69.2419C10.8881 69.3097 10.9981 69.2547 10.9981 69.119V65.4636C10.9981 65.328 10.8881 65.163 10.7525 65.0953Z" fill="#2C323D"/>
<path fill-rule="evenodd" clip-rule="evenodd" d="M9.78661 66.9171C9.47786 66.7627 9.22745 66.3871 9.22745 66.0786V64.7871L10.3458 65.3465V66.6375C10.3458 66.9465 10.0954 67.0715 9.78661 66.9171Z" fill="#2C323D"/>
<path fill-rule="evenodd" clip-rule="evenodd" d="M9.85204 68.2457L9.72141 68.1803V66.8298L9.85204 66.8953V68.2457Z" fill="#2C323D"/>
<path fill-rule="evenodd" clip-rule="evenodd" d="M9.22754 68.0245C9.22754 67.9522 9.28608 67.923 9.35837 67.9593L10.215 68.3874C10.2871 68.4237 10.3459 68.5116 10.3459 68.5839L9.22754 68.0245Z" fill="#2C323D"/>
<path fill-rule="evenodd" clip-rule="evenodd" d="M8.507 65.718C8.507 65.963 8.30762 66.0626 8.06283 65.9401C7.81783 65.8178 7.61866 65.5188 7.61866 65.2738V64.0976L8.507 64.5417V65.718ZM7.50366 63.9253V65.2163C7.50366 65.5251 7.75408 65.9007 8.06283 66.0551C8.37158 66.2094 8.62179 66.0844 8.62179 65.7755V64.4844L7.50366 63.9253Z" fill="#2C323D"/>
<path fill-rule="evenodd" clip-rule="evenodd" d="M8.1282 67.3834L7.99737 67.3182V65.9676L8.1282 66.0332V67.3834Z" fill="#2C323D"/>
<path fill-rule="evenodd" clip-rule="evenodd" d="M7.50369 67.1625C7.50369 67.0902 7.56223 67.061 7.63453 67.0971L8.49098 67.5254C8.56328 67.5614 8.62182 67.6494 8.62182 67.7216L7.50369 67.1625Z" fill="#2C323D"/>
<path fill-rule="evenodd" clip-rule="evenodd" d="M15.7233 71.2838C15.7233 71.4234 15.6104 71.4798 15.4708 71.41L12.2121 69.7802C12.0727 69.7107 11.9596 69.5411 11.9596 69.4017V66.1427C11.9596 66.0034 12.0727 65.9469 12.2121 66.0167L15.4708 67.6463C15.6104 67.7161 15.7233 67.8857 15.7233 68.025V71.2838ZM15.6691 67.5542L12.0137 65.7259C11.8781 65.6582 11.7681 65.7132 11.7681 65.8488V69.5042C11.7681 69.6398 11.8781 69.8046 12.0137 69.8727L15.6691 71.7007C15.8048 71.7686 15.9148 71.7136 15.9148 71.578V67.9225C15.9148 67.7869 15.8048 67.6219 15.6691 67.5542Z" fill="#2C323D"/>
<path fill-rule="evenodd" clip-rule="evenodd" d="M13.0985 68.2619C13.2047 68.2232 13.3431 68.2367 13.4945 68.3124C13.646 68.3882 13.7845 68.5132 13.8908 68.6582C13.9968 68.6194 14.1354 68.6328 14.2868 68.7088C14.4383 68.7844 14.5768 68.9092 14.6829 69.0544C14.7891 69.0157 14.9277 69.0292 15.0791 69.1049C15.1122 69.1215 15.1447 69.1405 15.1764 69.1613C15.1189 68.4807 14.5716 67.6953 13.9047 67.3619C13.2389 67.0288 12.6927 67.2651 12.6335 67.8857C12.656 67.8944 12.6791 67.9047 12.7024 67.9163C12.8539 67.9919 12.9922 68.1172 13.0985 68.2619Z" fill="#2C323D"/>
<path fill-rule="evenodd" clip-rule="evenodd" d="M13.6344 70.2791C13.4469 70.1854 13.2942 69.9562 13.2942 69.7687V69.7035C13.2942 69.665 13.3256 69.6494 13.3642 69.6685C13.4027 69.6879 13.434 69.7348 13.434 69.7733V69.8387C13.434 69.9491 13.524 70.0839 13.6344 70.1391C13.745 70.1946 13.8348 70.1496 13.8348 70.0391V67.2056C13.8348 67.1671 13.866 67.1514 13.9046 67.1708C13.9433 67.1902 13.9746 67.2369 13.9746 67.2756V70.1091C13.9746 70.2966 13.8219 70.3729 13.6344 70.2791Z" fill="#2C323D"/>
<path fill-rule="evenodd" clip-rule="evenodd" d="M35.1787 20.5893L26.5369 24.9101L26.2679 24.7758L34.9098 20.4547L35.1787 20.5893Z" fill="#2C323D"/>
<path fill-rule="evenodd" clip-rule="evenodd" d="M36.0268 21.0133L27.385 25.3343L27.116 25.1997L35.7579 20.8787L36.0268 21.0133Z" fill="#2C323D"/>
<path fill-rule="evenodd" clip-rule="evenodd" d="M36.8749 21.4373L28.233 25.7583L27.9641 25.6237L36.606 21.3027L36.8749 21.4373Z" fill="#2C323D"/>
<path fill-rule="evenodd" clip-rule="evenodd" d="M37.7229 21.8614L29.081 26.1822L28.8121 26.0478L37.4539 21.7268L37.7229 21.8614Z" fill="#2C323D"/>
<path fill-rule="evenodd" clip-rule="evenodd" d="M36.6585 40.0475L28.0166 44.3686L27.7476 44.234L36.3895 39.9129L36.6585 40.0475Z" fill="#2C323D"/>
<path fill-rule="evenodd" clip-rule="evenodd" d="M37.5065 40.4715L28.8647 44.7925L28.5957 44.658L37.2376 40.3371L37.5065 40.4715Z" fill="#2C323D"/>
<path fill-rule="evenodd" clip-rule="evenodd" d="M38.3546 40.8956L29.7127 45.2164L29.4438 45.0821L38.0857 40.761L38.3546 40.8956Z" fill="#2C323D"/>
<path fill-rule="evenodd" clip-rule="evenodd" d="M39.2026 41.3196L30.5607 45.6406L30.2918 45.506L38.9337 41.185L39.2026 41.3196Z" fill="#2C323D"/>
</svg>
