<svg width="66" height="99" viewBox="0 0 66 99" fill="none" xmlns="http://www.w3.org/2000/svg">
<g clip-path="url(#clip0_0_282)">
<path fill-rule="evenodd" clip-rule="evenodd" d="M34.702 8.80202C32.4325 8.92268 31.067 10.1684 30.6053 12.5391L30.558 12.8237L30.4994 13.2469L30.3915 14.1291L30.3069 14.8738L30.0547 17.242L29.8149 19.61L29.2505 25.4142L28.4257 34.1998L26.517 55.1563L23.9073 84.3746C23.6237 87.426 24.7636 89.0676 27.327 89.2994L34.702 8.80202Z" fill="url(#paint0_linear_0_282)"/>
<path fill-rule="evenodd" clip-rule="evenodd" d="M25.1606 86.7506L25.1241 86.4585L25.1258 86.3278L25.1554 85.8419L25.2419 84.6865L25.666 79.5736L26.5646 69.2411L28.0896 52.1328L30.0368 30.7385L31.187 18.4604L31.5512 14.7653L31.6409 13.9172L31.7021 13.3955C32.2161 9.49197 33.4166 8.51879 35.4588 8.88156C37.433 9.23224 38.1826 11.4009 37.9777 13.2083L37.9289 13.5807L37.7719 15.008L36.5988 26.4711L31.5121 76.9467L30.8633 83.1719L30.7195 84.4601L30.6861 84.7265L30.6049 85.2886C30.591 85.3792 30.577 85.4682 30.5627 85.5557L30.4736 86.062C30.0419 88.3382 29.3621 89.4022 27.5814 89.2874C25.9892 89.1848 25.4527 88.0976 25.2454 87.2087L25.1965 86.972L25.1606 86.7506Z" fill="url(#paint1_linear_0_282)"/>
</g>
<path fill-rule="evenodd" clip-rule="evenodd" d="M15.9273 6.50809C14.0787 7.81688 12.9305 10.1461 13.3779 11.6943L29.0612 68.1399L32.7062 81.1643L33.9447 85.5292L34.2996 86.74L34.3663 86.9502C34.8564 88.3724 35.8221 89.2174 37.2632 89.4852L35.3585 81.2706L33.8983 75.007L32.1524 67.5628L29.8564 57.8598L28.0259 50.2107L27.1583 46.6172L25.5183 39.8924L24.4955 35.7516L23.7655 32.8258L22.6193 28.2917L21.5613 24.1857L20.7785 21.209L20.2283 19.1562L19.71 17.2575L19.2234 15.5129L18.7685 13.9223L18.3454 12.4858L18.0809 11.6137L17.8306 10.8101L17.5944 10.075L17.3723 9.40837L17.1643 8.8102L16.9704 8.28051L16.7906 7.81929C16.3876 6.82301 16.0998 6.38594 15.9273 6.50809Z" fill="url(#paint2_linear_0_282)"/>
<path fill-rule="evenodd" clip-rule="evenodd" d="M35.0011 86.6656L33.1483 79.8052L16.9819 20.2772L14.7828 12.1022L14.4222 10.7311L14.3331 10.3727C13.9043 8.43593 14.8887 6.70085 16.7823 6.12887C18.676 5.55689 20.4512 6.98377 20.9236 8.53922L21.1973 9.54739L22.5633 14.7345L35.2005 63.2508L40.6377 84.2821L40.8365 85.1236L40.9219 85.5169C41.2774 87.2466 41.2163 88.4339 39.4187 89.2086C37.2862 90.1277 35.7102 89.1305 35.0011 86.6656Z" fill="url(#paint3_linear_0_282)"/>
<ellipse cx="44.5704" cy="90.051" rx="4" ry="2.28481" fill="url(#paint4_linear_0_282)"/>
<path fill-rule="evenodd" clip-rule="evenodd" d="M44.4527 89.3295C44.4527 89.3295 42.1447 88.8449 42.4812 88.59C42.8176 88.335 45.041 88.172 45.5684 88.3459C46.0958 88.5198 44.4527 89.3295 44.4527 89.3295Z" fill="white"/>
<path fill-rule="evenodd" clip-rule="evenodd" d="M45.2212 89.9212C45.2212 89.9212 46.9971 90.793 47.3739 90.5222C47.7507 90.2515 47.2005 89.1134 46.7007 88.9431C46.2008 88.7728 45.2212 89.9212 45.2212 89.9212Z" fill="white"/>
<path fill-rule="evenodd" clip-rule="evenodd" d="M45.6292 45.0763C45.6292 45.0763 45.1955 45.6499 44.4527 45.6499C43.71 45.6499 43.1868 45.4638 43.041 44.9516C42.8951 44.4393 43.5039 43.7126 43.5422 43.1442C43.5806 42.5758 43.2087 42.5298 43.2437 42.0758C43.2788 41.6218 43.5422 41.5943 43.5422 41.1691C43.5422 40.7439 43.2033 40.8088 43.2437 40.2861C43.2841 39.7634 43.6792 39.8158 43.6792 39.4474C43.6792 39.0791 43.2437 39.0203 43.2437 38.5591C43.2437 38.0978 43.8162 38.235 43.6792 37.4651C43.5422 36.6952 42.9452 37.0287 43.2437 36.0328C43.5422 35.0369 45.4425 35.2656 45.4425 36.0328C45.4425 36.8 45.6292 45.0763 45.6292 45.0763Z" fill="url(#paint5_linear_0_282)"/>
<path fill-rule="evenodd" clip-rule="evenodd" d="M44.4527 90.3518C44.4527 90.3518 42.8839 91.4819 43.334 91.6927C44.1252 92.0632 46.3124 91.8713 46.3124 91.3819C46.3124 91.0683 44.4527 90.3518 44.4527 90.3518Z" fill="white"/>
<path fill-rule="evenodd" clip-rule="evenodd" d="M43.5115 90.051C43.5115 90.051 41.9386 89.1933 41.5879 89.4696C41.2371 89.7459 41.6139 90.9011 42.1039 91.068C42.5938 91.235 43.5115 90.051 43.5115 90.051Z" fill="white"/>
<path fill-rule="evenodd" clip-rule="evenodd" d="M43.6292 89.2092L43.6292 89.9858C43.6292 89.9858 44.1329 90.2455 44.519 90.2455C44.9051 90.2455 45.2763 90.0293 45.2763 90.0293V89.2092C45.2763 89.2092 44.8884 89.5654 44.519 89.5826C44.1497 89.5998 43.6292 89.2092 43.6292 89.2092Z" fill="url(#paint6_linear_0_282)"/>
<ellipse cx="44.4527" cy="89.2092" rx="0.823529" ry="0.481013" fill="url(#paint7_linear_0_282)"/>
<path fill-rule="evenodd" clip-rule="evenodd" d="M43.8645 45.4371H45.041V89.2092C45.041 89.2092 44.773 89.4022 44.4527 89.4022C44.1324 89.4022 43.8645 89.2092 43.8645 89.2092V45.4371Z" fill="url(#paint8_linear_0_282)"/>
<ellipse rx="4" ry="2.28481" transform="matrix(-1 0 0 1 53.5704 90.051)" fill="url(#paint9_linear_0_282)"/>
<path fill-rule="evenodd" clip-rule="evenodd" d="M53.688 89.3295C53.688 89.3295 55.996 88.8449 55.6596 88.59C55.3231 88.335 53.0998 88.172 52.5723 88.3459C52.0449 88.5198 53.688 89.3295 53.688 89.3295Z" fill="white"/>
<path fill-rule="evenodd" clip-rule="evenodd" d="M52.9195 89.9212C52.9195 89.9212 51.1436 90.793 50.7669 90.5222C50.3901 90.2515 50.9403 89.1134 51.4401 88.9431C51.9399 88.7728 52.9195 89.9212 52.9195 89.9212Z" fill="white"/>
<path fill-rule="evenodd" clip-rule="evenodd" d="M52.5115 45.0763C52.5115 45.0763 52.9453 45.6499 53.688 45.6499C54.4308 45.6499 54.9539 45.4638 55.0998 44.9516C55.2457 44.4393 54.6369 43.7126 54.5985 43.1442C54.5602 42.5758 54.9321 42.5298 54.897 42.0758C54.862 41.6218 54.5985 41.5943 54.5985 41.1691C54.5985 40.7439 54.9374 40.8088 54.897 40.2861C54.8566 39.7634 54.4615 39.8158 54.4615 39.4474C54.4615 39.0791 54.897 39.0203 54.897 38.5591C54.897 38.0978 54.3245 38.235 54.4615 37.4651C54.5985 36.6952 55.1955 37.0287 54.897 36.0328C54.5985 35.0369 52.6982 35.2656 52.6982 36.0328C52.6982 36.8 52.5115 45.0763 52.5115 45.0763Z" fill="url(#paint10_linear_0_282)"/>
<path fill-rule="evenodd" clip-rule="evenodd" d="M53.688 90.3518C53.688 90.3518 55.2568 91.4819 54.8067 91.6927C54.0155 92.0632 51.8283 91.8713 51.8283 91.3819C51.8283 91.0683 53.688 90.3518 53.688 90.3518Z" fill="white"/>
<path fill-rule="evenodd" clip-rule="evenodd" d="M54.6292 90.051C54.6292 90.051 56.2021 89.1933 56.5529 89.4696C56.9036 89.7459 56.5268 90.9011 56.0369 91.068C55.5469 91.235 54.6292 90.051 54.6292 90.051Z" fill="white"/>
<path fill-rule="evenodd" clip-rule="evenodd" d="M54.5116 89.2092L54.5116 89.9858C54.5116 89.9858 54.0078 90.2455 53.6217 90.2455C53.2357 90.2455 52.8645 90.0293 52.8645 90.0293V89.2092C52.8645 89.2092 53.2524 89.5654 53.6217 89.5826C53.9911 89.5998 54.5116 89.2092 54.5116 89.2092Z" fill="url(#paint11_linear_0_282)"/>
<ellipse rx="0.823529" ry="0.481013" transform="matrix(-1 0 0 1 53.688 89.2092)" fill="url(#paint12_linear_0_282)"/>
<path fill-rule="evenodd" clip-rule="evenodd" d="M54.2763 45.4371H53.0998V89.2092C53.0998 89.2092 53.3677 89.4022 53.688 89.4022C54.0083 89.4022 54.2763 89.2092 54.2763 89.2092V45.4371Z" fill="url(#paint13_linear_0_282)"/>
<defs>
<linearGradient id="paint0_linear_0_282" x1="27.6243" y1="128.37" x2="43.3722" y2="126.855" gradientUnits="userSpaceOnUse">
<stop stop-color="#EBEAEA"/>
<stop offset="1" stop-color="#D2D1D1"/>
</linearGradient>
<linearGradient id="paint1_linear_0_282" x1="32.5527" y1="146.244" x2="62.718" y2="140.588" gradientUnits="userSpaceOnUse">
<stop stop-color="#ECECEC"/>
<stop offset="1" stop-color="#E0E0E0"/>
</linearGradient>
<linearGradient id="paint2_linear_0_282" x1="22.5057" y1="116.55" x2="57.4266" y2="107.65" gradientUnits="userSpaceOnUse">
<stop stop-color="#F2F2F2"/>
<stop offset="1" stop-color="#E0E0E0"/>
</linearGradient>
<linearGradient id="paint3_linear_0_282" x1="17.1554" y1="115.427" x2="49.2728" y2="109.626" gradientUnits="userSpaceOnUse">
<stop stop-color="#F7F7F7"/>
<stop offset="1" stop-color="#ECECEC"/>
</linearGradient>
<linearGradient id="paint4_linear_0_282" x1="39.3438" y1="88.717" x2="40.5558" y2="93.3028" gradientUnits="userSpaceOnUse">
<stop stop-color="#FDB132"/>
<stop offset="1" stop-color="#FFD64D"/>
</linearGradient>
<linearGradient id="paint5_linear_0_282" x1="41.713" y1="40.5094" x2="46.6183" y2="41.755" gradientUnits="userSpaceOnUse">
<stop stop-color="#FDB132"/>
<stop offset="1" stop-color="#FFD64D"/>
</linearGradient>
<linearGradient id="paint6_linear_0_282" x1="45.6037" y1="90.2695" x2="45.3541" y2="88.9545" gradientUnits="userSpaceOnUse">
<stop stop-color="#EEEEEE"/>
<stop offset="1" stop-color="#D8D8D8"/>
</linearGradient>
<linearGradient id="paint7_linear_0_282" x1="45.9987" y1="89.876" x2="45.7377" y2="88.4344" gradientUnits="userSpaceOnUse">
<stop stop-color="#EEEEEE"/>
<stop offset="1" stop-color="#D8D8D8"/>
</linearGradient>
<linearGradient id="paint8_linear_0_282" x1="41.943" y1="95.872" x2="44.9658" y2="95.907" gradientUnits="userSpaceOnUse">
<stop stop-color="#ECECEC"/>
<stop offset="1" stop-color="#E0E0E0"/>
</linearGradient>
<linearGradient id="paint9_linear_0_282" x1="2.65353" y1="-1.41153" x2="0.552702" y2="3.65632" gradientUnits="userSpaceOnUse">
<stop stop-color="#FDB132"/>
<stop offset="1" stop-color="#FFD64D"/>
</linearGradient>
<linearGradient id="paint10_linear_0_282" x1="53.8169" y1="30.2283" x2="58.7222" y2="31.4739" gradientUnits="userSpaceOnUse">
<stop stop-color="#FDB132"/>
<stop offset="1" stop-color="#FFD64D"/>
</linearGradient>
<linearGradient id="paint11_linear_0_282" x1="52.537" y1="90.2695" x2="52.7866" y2="88.9545" gradientUnits="userSpaceOnUse">
<stop stop-color="#EEEEEE"/>
<stop offset="1" stop-color="#D8D8D8"/>
</linearGradient>
<linearGradient id="paint12_linear_0_282" x1="2.36948" y1="1.14778" x2="2.10849" y2="-0.293762" gradientUnits="userSpaceOnUse">
<stop stop-color="#EEEEEE"/>
<stop offset="1" stop-color="#D8D8D8"/>
</linearGradient>
<linearGradient id="paint13_linear_0_282" x1="56.1977" y1="95.872" x2="53.175" y2="95.907" gradientUnits="userSpaceOnUse">
<stop stop-color="#ECECEC"/>
<stop offset="1" stop-color="#E0E0E0"/>
</linearGradient>
<clipPath id="clip0_0_282">
<rect width="16" height="82" fill="white" transform="translate(23 7.85049)"/>
</clipPath>
</defs>
</svg>
