<svg width="70" height="70" viewBox="0 0 70 70" fill="none" xmlns="http://www.w3.org/2000/svg">
<path fill-rule="evenodd" clip-rule="evenodd" d="M49.4329 52.713C47.5619 51.6294 44.6292 51.6294 42.7582 52.713L35.5816 56.8643C34.0999 57.7206 31.5979 57.7206 30.1169 56.8636C29.5103 56.5131 29.1624 56.0646 29.1624 55.6337C29.1624 55.2028 29.5103 54.755 30.1169 54.4031L38.3968 49.6133C39.4036 49.0314 39.9573 48.2214 39.9573 47.3318C39.9566 46.4435 39.4029 45.6335 38.3989 45.0529L38.2175 44.9468C36.3452 43.8645 33.4118 43.8645 31.5422 44.9474L15.534 54.2077C14.0523 55.0647 11.5503 55.0633 10.0693 54.2077L7.16509 52.5279C6.55911 52.1767 6.2106 51.7281 6.2106 51.2973C6.2106 50.8657 6.55911 50.4172 7.16373 50.0673L32.5205 35.4802C33.4192 35.7259 34.5218 35.6395 35.265 35.2093C36.2107 34.6621 36.2107 33.7752 35.265 33.2286C34.3194 32.6814 32.7861 32.6814 31.8404 33.2286C31.1223 33.6438 30.9532 34.255 31.3262 34.7649L6.56047 49.0164C5.55367 49.5983 5 50.4083 5 51.2973C5 52.1862 5.55367 52.9962 6.56047 53.5781L9.46469 55.258C11.3343 56.3409 14.267 56.3409 16.1386 55.258L32.1468 45.9984C33.6285 45.1414 36.1305 45.1414 37.6108 45.997L37.7922 46.1032C38.3982 46.453 38.7467 46.9009 38.7467 47.3318C38.7467 47.7633 38.3982 48.2119 37.7922 48.5631L29.5116 53.3528C28.5055 53.9341 27.9511 54.7448 27.9511 55.6337C27.9511 56.5226 28.5055 57.3326 29.5116 57.9146C31.3819 58.9975 34.3146 58.9989 36.1862 57.9146L43.3629 53.7626C44.8452 52.907 47.3479 52.9063 48.8187 53.7578L52.0647 55.8032L53.4091 55.196L49.4329 52.713Z" fill="#D9D9D9"/>
<path fill-rule="evenodd" clip-rule="evenodd" d="M45.2273 19.5232L31.5909 11.6818L17.9545 19.5232V35.2047L31.5909 43.0455V27.4039L45.2273 19.5232Z" fill="#F2F2F2"/>
<path fill-rule="evenodd" clip-rule="evenodd" d="M17.9545 35.0905L31.5909 43.0455V27.1767L17.9545 19.1818V35.0905Z" fill="#F2F2F2"/>
<path fill-rule="evenodd" clip-rule="evenodd" d="M36.8283 23.5116L31.251 26.708L24.8115 23.017L37.9645 15.4778L44.404 19.1694L36.8283 23.5116ZM30.977 42.2599L17.8241 34.72V19.6409L30.977 27.1801V42.2599ZM31.251 11.6295L37.6912 15.3204L24.5376 22.8603L18.0981 19.1694L31.251 11.6295ZM45.2273 19.012L31.251 11L17.3165 18.9883L17.2748 19.012L17.2727 19.3248L17.2748 19.3261V35.0341L30.977 42.8881L31.251 43.0455L31.5264 42.8881L45.0899 35.1135L45.2273 35.0341V19.3261V19.012Z" fill="#B5B5B5"/>
<path fill-rule="evenodd" clip-rule="evenodd" d="M26.1177 28.8769C26.0394 28.9166 25.9236 28.8692 25.8611 28.8365L23.2813 27.4592C22.913 27.2629 22.6037 26.7038 22.6037 26.2376C22.6037 26.0074 22.68 25.885 22.7459 25.8497C22.8257 25.8067 22.9415 25.8574 23.0025 25.8901L23.1807 25.9856C23.2452 26.5441 23.6038 27.1276 24.0539 27.3687L26.2557 28.5434C26.2447 28.7352 26.1808 28.8429 26.1177 28.8769ZM25.8611 26.8205L23.2813 25.4438C22.9963 25.2925 22.7071 25.2765 22.4678 25.4034C22.2001 25.547 22.0455 25.8503 22.0455 26.2376C22.0455 26.8865 22.4657 27.6195 23.0025 27.9061L25.5824 29.2828C25.7398 29.3668 25.8972 29.4091 26.047 29.4091C26.1711 29.4091 26.2883 29.3796 26.3965 29.3225C26.6649 29.1795 26.8182 28.8756 26.8182 28.4883C26.8182 27.84 26.3979 27.1071 25.8611 26.8205Z" fill="#B5B5B5"/>
<path fill-rule="evenodd" clip-rule="evenodd" d="M55.3662 40.3693C54.006 41.0483 52.9635 40.2152 53.0487 38.5222C53.1332 36.8518 54.2862 34.9945 55.613 34.3611C56.9275 33.7331 57.9414 34.5322 57.8903 36.1583C57.8378 37.8056 56.7128 39.697 55.3662 40.3693ZM55.8032 29.7363C52.3485 31.3283 49.2516 36.1488 48.9578 40.6031C48.8405 42.3861 49.193 43.8274 49.8919 44.8099L54.8671 54.2456L57.2528 55.4102C57.4682 54.924 60.9489 38.3511 61.1085 37.8527C61.4814 36.6874 64.028 35.9552 64.0464 34.8213C64.1166 30.6718 59.1714 28.1845 55.8032 29.7363Z" fill="#D9D9D9"/>
<path fill-rule="evenodd" clip-rule="evenodd" d="M55.7963 41.2185C54.436 41.8976 53.3935 41.0644 53.4794 39.3722C53.5633 37.701 54.7163 35.8444 56.0431 35.2103C57.3576 34.5831 58.3722 35.3815 58.3204 37.0076C58.2679 38.6549 57.1429 40.5463 55.7963 41.2185ZM56.2333 30.5856C52.7785 32.1776 49.6817 36.9981 49.3885 41.4524C49.3326 42.2992 49.3899 43.0628 49.5324 43.7426C53.474 46.1126 56.4263 45.9749 59.5047 48.0742C60.4633 43.6206 61.4554 38.9624 61.5385 38.7019C61.9122 37.5374 63.8206 36.664 63.8397 35.5294C63.9092 31.3799 59.6022 29.0338 56.2333 30.5856Z" fill="#F2F2F2"/>
<path fill-rule="evenodd" clip-rule="evenodd" d="M56.4668 34.4104C56.2384 34.4104 55.9875 34.4731 55.7263 34.5972C54.4738 35.1951 53.3904 36.9624 53.3113 38.5354C53.2718 39.3113 53.4879 39.912 53.9031 40.1833C54.2515 40.4117 54.7295 40.3926 55.249 40.1342C56.5104 39.5042 57.5775 37.7165 57.6272 36.149C57.6511 35.4092 57.4329 34.8331 57.0306 34.5692C56.8677 34.4635 56.6768 34.4104 56.4668 34.4104ZM54.4629 40.8685C54.1534 40.8685 53.867 40.7874 53.6161 40.6231C53.04 40.2467 52.7379 39.477 52.7863 38.5095C52.8756 36.734 54.0675 34.8072 55.5 34.124C56.1743 33.8022 56.82 33.8042 57.3177 34.1301C57.8775 34.4956 58.1822 35.2381 58.1522 36.1667C58.097 37.9054 56.8997 39.8963 55.4836 40.604C55.1304 40.7806 54.7847 40.8685 54.4629 40.8685ZM55.0595 54.0467L57.0865 55.0367C57.407 53.746 58.5715 48.3188 59.4456 44.2476C60.2788 40.3667 60.7922 37.9776 60.8577 37.7731C61.0622 37.1349 61.77 36.6501 62.4545 36.1831C63.1043 35.7379 63.7765 35.2783 63.784 34.8174C63.8127 33.1204 62.9379 31.5651 61.3827 30.552C59.6918 29.4495 57.5461 29.2238 55.9131 29.9751C52.5054 31.5447 49.5034 36.3201 49.2197 40.6204C49.1093 42.2922 49.4161 43.6879 50.1061 44.6574L55.0595 54.0467ZM57.3831 55.7663L54.675 54.4435L54.6347 54.3672L49.6595 44.9315C48.917 43.8924 48.5775 42.3795 48.6961 40.5863C48.9906 36.1142 52.1297 31.1404 55.6929 29.4979C57.4847 28.6715 59.8315 28.9129 61.6697 30.1115C63.379 31.227 64.3411 32.9451 64.309 34.8256C64.2968 35.5585 63.5113 36.0965 62.7511 36.616C62.1395 37.034 61.5081 37.4663 61.3581 37.9326C61.2961 38.1304 60.6463 41.1556 59.959 44.3581C58.5961 50.7085 57.6211 55.2263 57.4929 55.5167L57.3831 55.7663Z" fill="#111111"/>
<path fill-rule="evenodd" clip-rule="evenodd" d="M64.102 35.5339C64.1722 31.3844 61.5574 29.3492 58.1886 30.9017C54.7338 32.493 51.637 37.3135 51.3438 41.7678C51.2258 43.5507 51.5783 44.9921 52.2772 45.9746L57.2531 55.4103L62.9306 40.4976C63.1454 40.0114 63.3343 39.5158 63.4945 39.0173C63.8674 37.8521 64.0829 36.6685 64.102 35.5339Z" fill="#FFD64D"/>
<path fill-rule="evenodd" clip-rule="evenodd" d="M60.3426 30.6464C59.7038 30.6464 59.0124 30.8107 58.2986 31.1393C54.8915 32.7089 51.8888 37.485 51.6058 41.7846C51.4954 43.4571 51.8022 44.8527 52.4915 45.8223L57.2145 54.7746L62.6854 40.4046C62.9015 39.915 63.087 39.4255 63.2438 38.9373C63.6208 37.7618 63.8213 36.6143 63.8397 35.5296C63.8738 33.4957 63.2261 31.8948 62.0629 31.1359C61.5624 30.8093 60.9788 30.6464 60.3426 30.6464ZM57.3829 55.7659L57.0631 55.6125L52.0456 46.0971C51.3031 45.058 50.9636 43.545 51.0815 41.7505C51.3767 37.2784 54.5151 32.3046 58.079 30.6621C59.6745 29.9284 61.1915 29.94 62.3499 30.6962C63.687 31.5682 64.4029 33.2877 64.3647 35.5377C64.3456 36.675 64.1363 37.873 63.7442 39.0982C63.582 39.6041 63.389 40.11 63.1708 40.6037L57.3829 55.7659Z" fill="#111111"/>
<path fill-rule="evenodd" clip-rule="evenodd" d="M57.4509 44.7765L54.9193 43.0535C54.5641 42.8121 54.59 42.103 54.9766 41.469C55.3632 40.8362 55.9645 40.5185 56.3198 40.7599L57.5961 41.6285L59.9525 36.8415C60.2852 36.1808 60.8839 35.7649 61.2902 35.9135C61.6973 36.0621 61.758 36.7187 61.4259 37.3801L57.8955 44.5051C57.7823 44.7308 57.5723 44.859 57.4509 44.7765Z" fill="#111111"/>
</svg>
