<svg width="66" height="99" viewBox="0 0 66 99" fill="none" xmlns="http://www.w3.org/2000/svg">
<mask id="mask0_0_61" style="mask-type:alpha" maskUnits="userSpaceOnUse" x="1" y="33" width="65" height="34">
<path fill-rule="evenodd" clip-rule="evenodd" d="M1 33.6569H65.9722V66.1439H1V33.6569Z" fill="white"/>
</mask>
<g mask="url(#mask0_0_61)">
<path fill-rule="evenodd" clip-rule="evenodd" d="M1.17624 44.0557L21.7973 33.7452C22.0323 33.6275 22.4134 33.6275 22.6483 33.7452L65.7978 55.3199C65.8167 55.3295 65.8319 55.3399 65.8479 55.3504L65.7691 55.2337L65.9717 55.2064V55.5207C65.9781 55.6015 65.9214 55.6834 65.7978 55.7453L45.1766 66.0558C44.9415 66.1733 44.5606 66.1733 44.3256 66.0558L1.17624 44.4811C0.941172 44.3638 0.941172 44.1731 1.17624 44.0557Z" fill="#B5B5B5"/>
</g>
<mask id="mask1_0_61" style="mask-type:alpha" maskUnits="userSpaceOnUse" x="1" y="33" width="65" height="33">
<path fill-rule="evenodd" clip-rule="evenodd" d="M1.00461 33.3309H65.9739V65.8177H1.00461V33.3309Z" fill="white"/>
</mask>
<g mask="url(#mask1_0_61)">
<path fill-rule="evenodd" clip-rule="evenodd" d="M65.7978 55.4191L45.1765 65.7294C44.9417 65.8472 44.5606 65.8472 44.3255 65.7294L1.17618 44.1548C0.941336 44.0374 0.953579 43.8411 1.17618 43.7294L21.7972 33.4188C22.0323 33.3015 22.4134 33.3015 22.6484 33.4188L65.7978 54.9935C66.0328 55.111 66.0328 55.3016 65.7978 55.4191Z" fill="#F2F2F2"/>
</g>
<path fill-rule="evenodd" clip-rule="evenodd" d="M18.8733 41.7043L56.0651 60.3003L56.2353 60.215L19.0436 41.6192L18.8733 41.7043Z" fill="#B5B5B5"/>
<mask id="mask2_0_61" style="mask-type:alpha" maskUnits="userSpaceOnUse" x="1" y="33" width="30" height="16">
<path fill-rule="evenodd" clip-rule="evenodd" d="M1 33.5204H30.0134V48.0115H1V33.5204Z" fill="white"/>
</mask>
<g mask="url(#mask2_0_61)">
<path fill-rule="evenodd" clip-rule="evenodd" d="M29.8068 38.3152L22.6971 33.6339C22.1864 33.3786 21.846 33.6339 21.846 33.6339L11.5387 38.7874L1.23125 43.9411C1.23125 43.9411 1.11684 43.8095 1.05072 43.877L1.00464 43.8387L0.999969 44.2712C1.00309 44.3331 1.06586 44.2839 1.23125 44.3667L11.1237 47.8996C11.6014 48.0701 12.2557 48.0432 12.6708 47.8357L21.1529 43.5947L29.6349 39.3535C30.0501 39.146 30.148 38.5539 29.8068 38.3152Z" fill="#B5B5B5"/>
</g>
<path fill-rule="evenodd" clip-rule="evenodd" d="M21.8461 33.336L11.5387 38.4895L1.23134 43.6434C1.23134 43.6434 0.720915 43.8135 1.23134 44.0688L11.1238 47.6017C11.6015 47.7725 12.2557 47.7453 12.6709 47.5379L21.153 43.2968L29.635 39.0556C30.0499 38.8483 30.1043 38.5211 29.763 38.2823L22.6969 33.336C22.1865 33.0809 21.8461 33.336 21.8461 33.336Z" fill="#F2F2F2"/>
<path fill-rule="evenodd" clip-rule="evenodd" d="M21.7297 41.6125C22.1084 41.802 22.1084 42.3048 21.7297 42.4943C21.3511 42.6837 20.7373 42.6837 20.3587 42.4943C19.98 42.3048 19.98 41.802 20.3587 41.6125C20.7373 41.4233 21.3511 41.4233 21.7297 41.6125Z" fill="#B3B3B3"/>
<path fill-rule="evenodd" clip-rule="evenodd" d="M21.7297 41.6125C22.1084 41.802 22.1084 42.1087 21.7297 42.2982C21.3511 42.4876 20.7373 42.4876 20.3587 42.2982C19.98 42.1087 19.98 41.802 20.3587 41.6125C20.7373 41.4233 21.3511 41.4233 21.7297 41.6125Z" fill="white"/>
<path fill-rule="evenodd" clip-rule="evenodd" d="M11.3336 46.0657L6.9492 43.8637C6.84258 43.8105 6.84258 43.7239 6.9492 43.6707L13.0634 40.6137C13.1701 40.5605 13.3426 40.5605 13.4492 40.6137L17.8336 42.8155C17.9402 42.8689 17.9402 42.955 17.8336 43.0087L11.7194 46.0657C11.613 46.1189 11.4402 46.1189 11.3336 46.0657Z" fill="#111111"/>
<path fill-rule="evenodd" clip-rule="evenodd" d="M17.5289 43.0086L11.7195 45.9133C11.6128 45.9665 11.4401 45.9665 11.3335 45.9133L7.25383 43.8638C7.1472 43.8106 7.1472 43.724 7.25383 43.6708L13.0633 40.7661C13.1699 40.7129 13.3427 40.7129 13.4493 40.7661L17.5289 42.8156C17.6356 42.8688 17.6356 42.9554 17.5289 43.0086Z" fill="white"/>
<path fill-rule="evenodd" clip-rule="evenodd" d="M12.8921 41.3528L7.89713 43.8504L7.75934 43.7814L12.7543 41.2838L12.8921 41.3528Z" fill="#2C323D"/>
<path fill-rule="evenodd" clip-rule="evenodd" d="M13.2177 41.5154L8.22269 44.0132L8.0849 43.9442L13.0799 41.4466L13.2177 41.5154Z" fill="#2C323D"/>
<path fill-rule="evenodd" clip-rule="evenodd" d="M13.5431 41.6782L8.54813 44.1758L8.41034 44.1068L13.4053 41.6092L13.5431 41.6782Z" fill="#2C323D"/>
<path fill-rule="evenodd" clip-rule="evenodd" d="M13.8686 41.841L8.87366 44.3386L8.73587 44.2696L13.7309 41.772L13.8686 41.841Z" fill="#2C323D"/>
<path fill-rule="evenodd" clip-rule="evenodd" d="M14.1942 42.0036L9.19919 44.5012L9.0614 44.4324L14.0564 41.9348L14.1942 42.0036Z" fill="#2C323D"/>
<path fill-rule="evenodd" clip-rule="evenodd" d="M16.2854 42.4243L13.1369 43.9983L12.9991 43.9297L16.1476 42.3553L16.2854 42.4243Z" fill="#2C323D"/>
<path fill-rule="evenodd" clip-rule="evenodd" d="M16.6109 42.5869L13.4624 44.1611L13.3246 44.0923L16.4731 42.5181L16.6109 42.5869Z" fill="#2C323D"/>
<path fill-rule="evenodd" clip-rule="evenodd" d="M16.9365 42.7497L13.7878 44.3239L13.6502 44.2552L16.7987 42.6807L16.9365 42.7497Z" fill="#2C323D"/>
<path fill-rule="evenodd" clip-rule="evenodd" d="M15.3485 42.0038L9.66052 44.8478L9.73443 44.8848L15.4224 42.0408L15.3485 42.0038Z" fill="#111111"/>
<path fill-rule="evenodd" clip-rule="evenodd" d="M55.5956 58.2986L52.4224 56.7121C52.3148 56.6585 52.3148 56.5712 52.4224 56.5176L58.5847 53.4363C58.692 53.3827 58.8663 53.3827 58.9736 53.4363L62.147 55.023C62.2543 55.0767 62.2543 55.1639 62.147 55.2176L55.9847 58.2986C55.8772 58.3525 55.7029 58.3525 55.5956 58.2986Z" fill="#2C323D"/>
<path fill-rule="evenodd" clip-rule="evenodd" d="M61.8397 55.2176L55.9846 58.1451C55.8771 58.1989 55.703 58.1989 55.5955 58.1451L52.7295 56.7122C52.622 56.6585 52.622 56.5713 52.7295 56.5176L58.5846 53.5899C58.6919 53.5363 58.8662 53.5363 58.9737 53.5899L61.8397 55.023C61.947 55.0767 61.947 55.164 61.8397 55.2176Z" fill="white"/>
<path fill-rule="evenodd" clip-rule="evenodd" d="M56.1484 57.7254L55.9231 57.838L53.3641 56.5585L53.5893 56.4459L56.1484 57.7254Z" fill="#2C323D"/>
<path fill-rule="evenodd" clip-rule="evenodd" d="M57.4893 57.055L57.264 57.1676L54.705 55.8881L54.9303 55.7754L57.4893 57.055Z" fill="#2C323D"/>
<path fill-rule="evenodd" clip-rule="evenodd" d="M57.648 56.9756L57.5763 57.0114L55.0173 55.7319L55.089 55.6961L57.648 56.9756Z" fill="#2C323D"/>
<path fill-rule="evenodd" clip-rule="evenodd" d="M57.7964 56.9015L57.7247 56.9373L55.1656 55.6578L55.2373 55.622L57.7964 56.9015Z" fill="#2C323D"/>
<path fill-rule="evenodd" clip-rule="evenodd" d="M58.5436 56.5278L58.4719 56.5636L55.9129 55.2841L55.9846 55.2483L58.5436 56.5278Z" fill="#2C323D"/>
<path fill-rule="evenodd" clip-rule="evenodd" d="M56.394 57.6025L56.2814 57.6589L53.7223 56.3793L53.835 56.323L56.394 57.6025Z" fill="#2C323D"/>
<path fill-rule="evenodd" clip-rule="evenodd" d="M58.1291 56.7352L57.9038 56.8478L55.3448 55.5683L55.57 55.4557L58.1291 56.7352Z" fill="#2C323D"/>
<path fill-rule="evenodd" clip-rule="evenodd" d="M58.3747 56.6124L58.2621 56.6687L55.703 55.3892L55.8157 55.3328L58.3747 56.6124Z" fill="#2C323D"/>
<path fill-rule="evenodd" clip-rule="evenodd" d="M56.6397 57.4797L56.527 57.5361L53.968 56.2565L54.0806 56.2002L56.6397 57.4797Z" fill="#2C323D"/>
<path fill-rule="evenodd" clip-rule="evenodd" d="M56.8854 57.3569L56.7728 57.4132L54.2137 56.1337L54.3261 56.0774L56.8854 57.3569Z" fill="#2C323D"/>
<path fill-rule="evenodd" clip-rule="evenodd" d="M57.1311 57.2341L57.0184 57.2904L54.4594 56.0109L54.572 55.9546L57.1311 57.2341Z" fill="#2C323D"/>
<path fill-rule="evenodd" clip-rule="evenodd" d="M58.4361 54.0224L58.6614 53.9098L61.2204 55.1893L60.9954 55.3019L58.4361 54.0224Z" fill="#2C323D"/>
<path fill-rule="evenodd" clip-rule="evenodd" d="M57.0952 54.6928L57.3205 54.5804L59.8795 55.8599L59.6542 55.9726L57.0952 54.6928Z" fill="#2C323D"/>
<path fill-rule="evenodd" clip-rule="evenodd" d="M56.9365 54.7722L57.0082 54.7366L59.5672 56.0161L59.4958 56.0517L56.9365 54.7722Z" fill="#2C323D"/>
<path fill-rule="evenodd" clip-rule="evenodd" d="M56.7881 54.8465L56.8598 54.8107L59.4189 56.0902L59.3472 56.1261L56.7881 54.8465Z" fill="#2C323D"/>
<path fill-rule="evenodd" clip-rule="evenodd" d="M56.0409 55.2202L56.1126 55.1844L58.6716 56.4639L58.5999 56.4997L56.0409 55.2202Z" fill="#2C323D"/>
<path fill-rule="evenodd" clip-rule="evenodd" d="M58.1905 54.1453L58.3031 54.0889L60.8622 55.3685L60.7495 55.4248L58.1905 54.1453Z" fill="#2C323D"/>
<path fill-rule="evenodd" clip-rule="evenodd" d="M56.4554 55.0128L56.6807 54.9002L59.2397 56.1797L59.0147 56.2923L56.4554 55.0128Z" fill="#2C323D"/>
<path fill-rule="evenodd" clip-rule="evenodd" d="M56.2098 55.1357L56.3224 55.0793L58.8814 56.3589L58.7688 56.4152L56.2098 55.1357Z" fill="#2C323D"/>
<path fill-rule="evenodd" clip-rule="evenodd" d="M57.9448 54.2681L58.0575 54.2118L60.6165 55.4913L60.5039 55.5476L57.9448 54.2681Z" fill="#2C323D"/>
<path fill-rule="evenodd" clip-rule="evenodd" d="M57.6992 54.3909L57.8118 54.3346L60.3709 55.6141L60.2582 55.6704L57.6992 54.3909Z" fill="#2C323D"/>
<path fill-rule="evenodd" clip-rule="evenodd" d="M57.4534 54.5137L57.5661 54.4574L60.1251 55.7371L60.0127 55.7935L57.4534 54.5137Z" fill="#2C323D"/>
</svg>
