<svg width="70" height="70" viewBox="0 0 70 70" fill="none" xmlns="http://www.w3.org/2000/svg">
<path fill-rule="evenodd" clip-rule="evenodd" d="M64.9966 38.7705C65.0016 38.7149 65.0006 38.6594 64.9966 38.6027V36.0958H62.0458L50.898 29.6666C49.5077 28.8609 47.4056 28.773 46.2025 29.4715L7.95684 51.8907H5.00604L5 54.2238L5.00201 54.3097C4.99799 54.8465 5.38559 55.4146 6.14871 55.8564L19.1046 63.3338C20.494 64.1395 22.5961 64.2264 23.8002 63.5289L64.1902 39.8653C64.6986 39.5712 64.9583 39.2194 64.9926 38.81L64.9996 38.6624L64.9966 38.7705Z" fill="#D9D9D9"/>
<path fill-rule="evenodd" clip-rule="evenodd" d="M5.36526 52.0175L5.36026 54.147L5.36226 54.226C5.35926 54.7184 5.74153 55.2198 6.412 55.606L19.2901 63.0073C20.6201 63.7748 22.6335 63.8629 23.7773 63.2014L63.9259 39.7768C64.3722 39.5186 64.6033 39.2224 64.6334 38.8721L64.6394 38.737L64.6364 38.695V36.3804H61.8354L50.7125 29.9918C49.3835 29.2253 47.3701 29.1372 46.2253 29.7987L8.16725 52.0175H5.36526ZM21.841 64C20.8903 64 19.8896 63.7698 19.11 63.3195L6.23288 55.9183C5.44732 55.4649 4.998 54.8495 5.002 54.2301L5 54.151L5.007 51.6572H8.07118L46.0452 29.4865C47.289 28.7689 49.4636 28.855 50.8926 29.6796L61.9314 36.0201H64.9966V38.683C65.0006 38.734 65.0016 38.7981 64.9966 38.8621H64.9936L64.9926 38.8961C64.9526 39.3715 64.6544 39.7708 64.105 40.088L23.9575 63.5127C23.3921 63.8389 22.6335 64 21.841 64Z" fill="#B5B5B5"/>
<path fill-rule="evenodd" clip-rule="evenodd" d="M64.1879 37.8653L23.7999 61.5289C22.5959 62.2264 20.4939 62.1395 19.1046 61.3338L6.14933 53.8564C4.76008 53.0507 4.60907 51.8316 5.81209 51.1351L46.2001 27.4715C47.4041 26.773 49.5061 26.8609 50.8964 27.6666L63.8507 35.144C65.2399 35.9487 65.3909 37.1678 64.1879 37.8653Z" fill="#D9D9D9"/>
<path fill-rule="evenodd" clip-rule="evenodd" d="M62.8664 36.1434L50.0895 28.6668C48.7183 27.8611 46.6451 27.7732 45.4585 28.4707L5.62256 52.1347C5.33859 52.3015 5.13305 52.4996 5 52.714V53.9493C5.1817 54.2748 5.49944 54.5882 5.95519 54.857L18.7331 62.3336C20.1033 63.1393 22.1765 63.2262 23.3641 62.5297L63.199 38.8647C64.3856 38.1672 64.2366 36.949 62.8664 36.1434Z" fill="#F2F2F2"/>
<path fill-rule="evenodd" clip-rule="evenodd" d="M48.1598 27.3542C47.4323 27.3542 46.7398 27.5003 46.2235 27.7975L6.07772 51.2243C5.61541 51.4915 5.36024 51.8507 5.36024 52.238C5.36024 52.7224 5.7435 53.2207 6.41294 53.606L19.2895 61.0083C20.6194 61.7748 22.6328 61.8619 23.7775 61.2014L63.9233 37.7756C64.3856 37.5084 64.6408 37.1482 64.6408 36.7609C64.6408 36.2786 64.2565 35.7792 63.5881 35.3929L50.7115 27.9926C49.981 27.5703 49.0454 27.3542 48.1598 27.3542ZM21.8412 62C20.8896 62 19.8889 61.7698 19.1094 61.3195L6.23282 53.9182C5.4493 53.4669 5 52.8534 5 52.238C5 51.7176 5.31921 51.2463 5.8986 50.9121L46.0434 27.4873C47.2882 26.7677 49.4636 26.8558 50.8906 27.6804L63.7682 35.0817C64.5517 35.534 65 36.1465 65 36.7609C65 37.2833 64.6818 37.7546 64.1034 38.0889L23.9566 61.5137C23.3923 61.8399 22.6338 62 21.8412 62Z" fill="#B5B5B5"/>
<path fill-rule="evenodd" clip-rule="evenodd" d="M22 61.555V64L24.0189 63.368L64.8215 39.7872L65 37L63.679 37.9958L23.0568 61.3814L22 61.555Z" fill="#B5B5B5"/>
<path fill-rule="evenodd" clip-rule="evenodd" d="M22 41.5849L21.5846 59L60.9098 36.3779L61 36.3259V19L22 41.5849Z" fill="#FFD64D"/>
<path fill-rule="evenodd" clip-rule="evenodd" d="M9 32L22 39.8172V59L9 51.1691V32Z" fill="#D9D9D9"/>
<path fill-rule="evenodd" clip-rule="evenodd" d="M47.8788 6L64 15.4606L22.1212 40L6 30.5404L47.8788 6Z" fill="#D9D9D9"/>
<path fill-rule="evenodd" clip-rule="evenodd" d="M59.6456 35.9998L48.7471 42.3029V36.4929L49.8921 35.8335C50.1227 35.7 50.2974 35.3753 50.2974 35.0784V34.6192C50.2974 34.434 50.2246 34.2846 50.0988 34.2119C49.987 34.1481 49.8472 34.1521 49.7154 34.2288L48.7471 34.7856V28.9197L59.6456 22.6156V35.9998ZM24.3554 43.0012L36.2213 36.1642V49.5494L24.3554 56.3864V43.0012ZM38.3796 48.2983V34.9201L42.6524 32.4578L43.5728 31.9279V45.2952L38.3796 48.2983ZM37.3234 35.5287L38.0242 35.1252V48.5095L37.3234 48.9129V35.5287ZM43.9282 45.089V31.7237L46.5997 30.1837V43.5441L43.9282 45.089ZM36.5767 35.96L36.968 35.7338V49.1181L36.5767 49.3432V35.96ZM48.3917 34.9908V36.6971V42.5081L46.9551 43.3389V29.9795L48.3917 29.1518V34.9908ZM48.7471 35.196L49.9201 34.5186C49.9251 34.5236 49.942 34.5545 49.942 34.6192V35.0784C49.942 35.2597 49.8212 35.4639 49.7154 35.5247L48.7471 36.0835V35.196ZM24 42.796V57L60 36.204V22L24 42.796Z" fill="#111111"/>
<path fill-rule="evenodd" clip-rule="evenodd" d="M52.8644 12L60 16.1676L22.1346 38L15 33.8324L52.8644 12Z" fill="#F2F2F2"/>
<path fill-rule="evenodd" clip-rule="evenodd" d="M46.9101 10L50 11.7185L12.0909 33L9 31.2815L46.9101 10Z" fill="#F2F2F2"/>
<path fill-rule="evenodd" clip-rule="evenodd" d="M22 40.0201L21.9753 42L6 32.9799L6.02565 31L22 40.0201Z" fill="#D9D9D9"/>
<path fill-rule="evenodd" clip-rule="evenodd" d="M22.2704 41.4891L6.36063 32.3614L6.38072 30.7201L22.2904 39.8488L22.2704 41.4891ZM48.4564 6.41009L64.3631 15.5368L32.6753 33.6945L22.4703 39.5415L6.56354 30.4137L48.4564 6.41009ZM64.8945 15.432L48.4564 6L6.02813 30.311L6 32.565L22.4451 42L64.9056 17.711L65 17.6571L64.8945 15.432Z" fill="#B5B5B5"/>
<path fill-rule="evenodd" clip-rule="evenodd" d="M22 42V41.5849L61 19L60.997 19.4161L22 42Z" fill="#111111"/>
</svg>
