<svg width="178" height="6" viewBox="0 0 178 6" fill="none" xmlns="http://www.w3.org/2000/svg">
<path fill-rule="evenodd" clip-rule="evenodd" d="M3 6C4.65685 6 6 4.65685 6 3C6 1.34315 4.65685 0 3 0C1.34315 0 0 1.34315 0 3C0 4.65685 1.34315 6 3 6ZM15 6C16.6569 6 18 4.65685 18 3C18 1.34315 16.6569 0 15 0C13.3431 0 12 1.34315 12 3C12 4.65685 13.3431 6 15 6ZM30 3C30 4.65685 28.6569 6 27 6C25.3431 6 24 4.65685 24 3C24 1.34315 25.3431 0 27 0C28.6569 0 30 1.34315 30 3ZM39 6C40.6569 6 42 4.65685 42 3C42 1.34315 40.6569 0 39 0C37.3431 0 36 1.34315 36 3C36 4.65685 37.3431 6 39 6ZM74 3C74 4.65685 72.6569 6 71 6C69.3431 6 68 4.65685 68 3C68 1.34315 69.3431 0 71 0C72.6569 0 74 1.34315 74 3ZM83 6C84.6569 6 86 4.65685 86 3C86 1.34315 84.6569 0 83 0C81.3431 0 80 1.34315 80 3C80 4.65685 81.3431 6 83 6ZM98 3C98 4.65685 96.6569 6 95 6C93.3431 6 92 4.65685 92 3C92 1.34315 93.3431 0 95 0C96.6569 0 98 1.34315 98 3ZM107 6C108.657 6 110 4.65685 110 3C110 1.34315 108.657 0 107 0C105.343 0 104 1.34315 104 3C104 4.65685 105.343 6 107 6ZM142 3C142 4.65685 140.657 6 139 6C137.343 6 136 4.65685 136 3C136 1.34315 137.343 0 139 0C140.657 0 142 1.34315 142 3ZM151 6C152.657 6 154 4.65685 154 3C154 1.34315 152.657 0 151 0C149.343 0 148 1.34315 148 3C148 4.65685 149.343 6 151 6ZM166 3C166 4.65685 164.657 6 163 6C161.343 6 160 4.65685 160 3C160 1.34315 161.343 0 163 0C164.657 0 166 1.34315 166 3ZM175 6C176.657 6 178 4.65685 178 3C178 1.34315 176.657 0 175 0C173.343 0 172 1.34315 172 3C172 4.65685 173.343 6 175 6Z" fill="white"/>
</svg>
