<svg width="66" height="99" viewBox="0 0 66 99" fill="none" xmlns="http://www.w3.org/2000/svg">
<mask id="mask0_0_112" style="mask-type:alpha" maskUnits="userSpaceOnUse" x="6" y="41" width="56" height="27">
<path fill-rule="evenodd" clip-rule="evenodd" d="M6.92131 41.031H61.7569V67.1607H6.92131V41.031Z" fill="white"/>
</mask>
<g mask="url(#mask0_0_112)">
<path fill-rule="evenodd" clip-rule="evenodd" d="M58.252 41.031L45.9708 47.1714L38.5526 43.4623L6.92131 58.1276L26.6209 67.1608L42.0684 59.9763C43.6157 59.2566 45.1398 58.4879 46.6385 57.6717L58.252 51.3451L61.7569 43.7345V43.4623L58.252 41.031Z" fill="#F2F2F2"/>
</g>
<mask id="mask1_0_112" style="mask-type:alpha" maskUnits="userSpaceOnUse" x="18" y="63" width="9" height="5">
<path fill-rule="evenodd" clip-rule="evenodd" d="M18.7146 63.0997H26.6208V67.1607H18.7146V63.0997Z" fill="white"/>
</mask>
<g mask="url(#mask1_0_112)">
<path fill-rule="evenodd" clip-rule="evenodd" d="M22.8647 63.0997L26.6208 67.1608L18.7146 64.0243L22.8647 63.0997Z" fill="#B5B5B5"/>
</g>
<path fill-rule="evenodd" clip-rule="evenodd" d="M26.6208 67.1607L27.6034 60.0696L22.8647 63.0996L26.6208 67.1607Z" fill="#D9D9D9"/>
<path fill-rule="evenodd" clip-rule="evenodd" d="M58.252 51.3451L57.0182 45.4114L61.7569 43.7345L58.252 51.3451Z" fill="#D9D9D9"/>
<mask id="mask2_0_112" style="mask-type:alpha" maskUnits="userSpaceOnUse" x="42" y="32" width="23" height="12">
<path fill-rule="evenodd" clip-rule="evenodd" d="M42.4089 32.7543H64.6309V43.7345H42.4089V32.7543Z" fill="white"/>
</mask>
<g mask="url(#mask2_0_112)">
<path fill-rule="evenodd" clip-rule="evenodd" d="M42.4089 34.0551L61.7569 43.7345L64.631 42.4337V42.1615L45.283 32.7543L42.4089 33.783V34.0551Z" fill="#B5B5B5"/>
</g>
<mask id="mask3_0_112" style="mask-type:alpha" maskUnits="userSpaceOnUse" x="42" y="32" width="23" height="12">
<path fill-rule="evenodd" clip-rule="evenodd" d="M42.4089 32.4821H64.6309V43.4624H42.4089V32.4821Z" fill="white"/>
</mask>
<g mask="url(#mask3_0_112)">
<path fill-rule="evenodd" clip-rule="evenodd" d="M42.4089 33.783L61.7569 43.4624L64.631 42.1615L45.283 32.4821L42.4089 33.783Z" fill="#F2F2F2"/>
</g>
<path fill-rule="evenodd" clip-rule="evenodd" d="M22.8647 62.8275V63.0997L27.6034 60.0695L57.0183 45.4115L61.7568 43.7345V43.4623L58.2519 41.0311L28.5801 51.7852L22.8647 62.8275Z" fill="#B5B5B5"/>
<path fill-rule="evenodd" clip-rule="evenodd" d="M0 55.1844L19.348 64.8638L22.8647 63.0996V62.8275L3.51672 53.4202L0 54.9122V55.1844Z" fill="#B5B5B5"/>
<path fill-rule="evenodd" clip-rule="evenodd" d="M0 54.9122L19.348 64.5916L22.8647 62.8275L3.51672 53.148L0 54.9122Z" fill="#F2F2F2"/>
<mask id="mask4_0_112" style="mask-type:alpha" maskUnits="userSpaceOnUse" x="6" y="31" width="53" height="26">
<path fill-rule="evenodd" clip-rule="evenodd" d="M6.92127 31.1813H58.2519V56.8466H6.92127V31.1813Z" fill="white"/>
</mask>
<g mask="url(#mask4_0_112)">
<path fill-rule="evenodd" clip-rule="evenodd" d="M6.92127 46.9969L26.6208 56.8466L36.3432 51.3067C40.0264 49.2077 43.82 47.3088 47.7076 45.6179L58.2519 41.0311L38.5526 31.1812C38.5526 31.1812 28.8343 35.1738 23.6804 37.8127C18.0096 40.716 6.92127 46.9969 6.92127 46.9969Z" fill="#F2F2F2"/>
</g>
<path fill-rule="evenodd" clip-rule="evenodd" d="M3.51663 53.1481L6.92129 46.9968L26.6209 56.8465L22.8648 62.8275L3.51663 53.1481Z" fill="#D9D9D9"/>
<path fill-rule="evenodd" clip-rule="evenodd" d="M14.3804 60.8586L16.0347 59.8466C16.2915 59.6895 16.502 59.4672 16.6451 59.2023L19.6528 53.6338C19.7282 53.4942 19.8396 53.3767 19.9754 53.2942L22.4555 51.7853L24.3835 52.67L21.8284 54.296C21.704 54.3751 21.601 54.4839 21.5289 54.6123L18.4145 60.1398C18.2814 60.3764 18.0936 60.5777 17.8667 60.7269L16.2735 61.7761L14.3804 60.8586Z" fill="#FFD64D"/>
<path fill-rule="evenodd" clip-rule="evenodd" d="M29.8157 52.8621L26.2043 51.0565C26.0821 50.9953 26.0821 50.8962 26.2043 50.835L33.2174 47.3285C33.3398 47.2674 33.5378 47.2674 33.66 47.3285L37.2714 49.1342C37.3938 49.1953 37.3938 49.2945 37.2714 49.3556L30.2583 52.8621C30.1363 52.9233 29.9381 52.9233 29.8157 52.8621Z" fill="#2C323D"/>
<path fill-rule="evenodd" clip-rule="evenodd" d="M36.9221 49.3556L30.2584 52.6874C30.1362 52.7487 29.938 52.7487 29.8158 52.6874L26.5538 51.0565C26.4316 50.9954 26.4316 50.8962 26.5538 50.8351L33.2173 47.5033C33.3397 47.4422 33.5379 47.4422 33.6601 47.5033L36.9221 49.1342C37.0443 49.1953 37.0443 49.2945 36.9221 49.3556Z" fill="white"/>
<path fill-rule="evenodd" clip-rule="evenodd" d="M30.4448 52.2098L30.1886 52.338L27.2761 50.8817L27.5323 50.7537L30.4448 52.2098Z" fill="#2C323D"/>
<path fill-rule="evenodd" clip-rule="evenodd" d="M31.9709 51.4467L31.7147 51.5749L28.8022 50.1187L29.0584 49.9907L31.9709 51.4467Z" fill="#2C323D"/>
<path fill-rule="evenodd" clip-rule="evenodd" d="M32.1515 51.3564L32.0699 51.3972L29.1574 49.941L29.239 49.9003L32.1515 51.3564Z" fill="#2C323D"/>
<path fill-rule="evenodd" clip-rule="evenodd" d="M32.3205 51.272L32.2389 51.3128L29.3263 49.8565L29.4079 49.8159L32.3205 51.272Z" fill="#2C323D"/>
<path fill-rule="evenodd" clip-rule="evenodd" d="M33.1708 50.8468L33.0894 50.8876L30.1769 49.4313L30.2583 49.3907L33.1708 50.8468Z" fill="#2C323D"/>
<path fill-rule="evenodd" clip-rule="evenodd" d="M30.7244 52.0701L30.5962 52.1341L27.6837 50.6778L27.8119 50.6138L30.7244 52.0701Z" fill="#2C323D"/>
<path fill-rule="evenodd" clip-rule="evenodd" d="M32.6991 51.0827L32.4427 51.2109L29.5303 49.7546L29.7865 49.6266L32.6991 51.0827Z" fill="#2C323D"/>
<path fill-rule="evenodd" clip-rule="evenodd" d="M32.9787 50.9429L32.8505 51.0071L29.938 49.5507L30.0662 49.4867L32.9787 50.9429Z" fill="#2C323D"/>
<path fill-rule="evenodd" clip-rule="evenodd" d="M31.004 51.9302L30.8758 51.9943L27.9633 50.5381L28.0915 50.4741L31.004 51.9302Z" fill="#2C323D"/>
<path fill-rule="evenodd" clip-rule="evenodd" d="M31.2837 51.7904L31.1555 51.8546L28.2429 50.3982L28.3711 50.3342L31.2837 51.7904Z" fill="#2C323D"/>
<path fill-rule="evenodd" clip-rule="evenodd" d="M31.5631 51.6506L31.4351 51.7148L28.5225 50.2585L28.6507 50.1945L31.5631 51.6506Z" fill="#2C323D"/>
<path fill-rule="evenodd" clip-rule="evenodd" d="M33.0485 47.9954L33.3049 47.8674L36.2174 49.3235L35.961 49.4517L33.0485 47.9954Z" fill="#2C323D"/>
<path fill-rule="evenodd" clip-rule="evenodd" d="M31.5224 48.7587L31.7788 48.6305L34.6911 50.0865L34.4349 50.2147L31.5224 48.7587Z" fill="#2C323D"/>
<path fill-rule="evenodd" clip-rule="evenodd" d="M31.3419 48.8488L31.4233 48.808L34.3359 50.2644L34.2543 50.3051L31.3419 48.8488Z" fill="#2C323D"/>
<path fill-rule="evenodd" clip-rule="evenodd" d="M31.173 48.9333L31.2544 48.8925L34.1669 50.3489L34.0853 50.3895L31.173 48.9333Z" fill="#2C323D"/>
<path fill-rule="evenodd" clip-rule="evenodd" d="M30.3225 49.3586L30.4041 49.3176L33.3166 50.7741L33.235 50.8147L30.3225 49.3586Z" fill="#2C323D"/>
<path fill-rule="evenodd" clip-rule="evenodd" d="M32.7688 48.1353L32.897 48.0711L35.8096 49.5276L35.6814 49.5914L32.7688 48.1353Z" fill="#2C323D"/>
<path fill-rule="evenodd" clip-rule="evenodd" d="M30.7942 49.1225L31.0506 48.9945L33.9631 50.4506L33.7067 50.5788L30.7942 49.1225Z" fill="#2C323D"/>
<path fill-rule="evenodd" clip-rule="evenodd" d="M30.5148 49.2624L30.6428 49.1983L33.5553 50.6545L33.4271 50.7185L30.5148 49.2624Z" fill="#2C323D"/>
<path fill-rule="evenodd" clip-rule="evenodd" d="M32.4894 48.275L32.6174 48.211L35.5299 49.6673L35.4017 49.7313L32.4894 48.275Z" fill="#2C323D"/>
<path fill-rule="evenodd" clip-rule="evenodd" d="M32.2098 48.4149L32.3378 48.3507L35.2503 49.807L35.1223 49.871L32.2098 48.4149Z" fill="#2C323D"/>
<path fill-rule="evenodd" clip-rule="evenodd" d="M31.9302 48.5547L32.0582 48.4906L34.9707 49.9469L34.8427 50.0109L31.9302 48.5547Z" fill="#2C323D"/>
<path fill-rule="evenodd" clip-rule="evenodd" d="M34.7176 39.2875L29.6886 36.7619C29.5664 36.7008 29.5664 36.6016 29.6886 36.5407L36.7015 33.0341C36.8239 32.973 37.0221 32.973 37.1444 33.0341L42.1734 35.5595C42.2956 35.6208 42.2956 35.7198 42.1734 35.7809L35.1602 39.2875C35.038 39.3488 34.8398 39.3488 34.7176 39.2875Z" fill="#111111"/>
<path fill-rule="evenodd" clip-rule="evenodd" d="M41.8239 35.781L35.1603 39.1129C35.0379 39.174 34.8397 39.174 34.7177 39.1129L30.0381 36.762C29.9159 36.7008 29.9159 36.6017 30.0381 36.5406L36.7016 33.2088C36.824 33.1479 37.0222 33.1479 37.1443 33.2088L41.8239 35.5597C41.9461 35.6208 41.9461 35.7199 41.8239 35.781Z" fill="white"/>
<path fill-rule="evenodd" clip-rule="evenodd" d="M36.5052 33.8818L30.7757 36.7466L30.6178 36.6675L36.3473 33.8027L36.5052 33.8818Z" fill="#2C323D"/>
<path fill-rule="evenodd" clip-rule="evenodd" d="M36.8787 34.0684L31.149 36.9332L30.9911 36.8542L36.7208 33.9893L36.8787 34.0684Z" fill="#2C323D"/>
<path fill-rule="evenodd" clip-rule="evenodd" d="M37.252 34.2552L31.5225 37.1199L31.3645 37.0408L37.094 34.1762L37.252 34.2552Z" fill="#2C323D"/>
<path fill-rule="evenodd" clip-rule="evenodd" d="M37.6255 34.4419L31.8958 37.3065L31.7378 37.2275L37.4675 34.3628L37.6255 34.4419Z" fill="#2C323D"/>
<path fill-rule="evenodd" clip-rule="evenodd" d="M37.9987 34.6285L32.2692 37.4934L32.1113 37.4143L37.8408 34.5495L37.9987 34.6285Z" fill="#2C323D"/>
<path fill-rule="evenodd" clip-rule="evenodd" d="M40.3975 35.1109L36.7861 36.9166L36.6282 36.8375L40.2395 35.0318L40.3975 35.1109Z" fill="#2C323D"/>
<path fill-rule="evenodd" clip-rule="evenodd" d="M40.7709 35.2975L37.1594 37.1032L37.0014 37.0242L40.613 35.2185L40.7709 35.2975Z" fill="#2C323D"/>
<path fill-rule="evenodd" clip-rule="evenodd" d="M41.1442 35.4842L37.5328 37.2899L37.3749 37.2108L40.9863 35.4051L41.1442 35.4842Z" fill="#2C323D"/>
<path fill-rule="evenodd" clip-rule="evenodd" d="M39.3228 34.6287L32.7987 37.8908L32.8834 37.9333L39.4074 34.6711L39.3228 34.6287Z" fill="#111111"/>
<path fill-rule="evenodd" clip-rule="evenodd" d="M13.2655 44.6911L13.2712 44.6882L12.9808 44.6345C12.9342 44.626 12.8891 44.6483 12.9056 44.6717L13.0093 44.8191L12.7188 44.7656C12.6722 44.7569 12.6271 44.7791 12.6436 44.8026L12.7473 44.9502L12.4568 44.8966C12.4102 44.888 12.365 44.9102 12.3816 44.9337L12.4853 45.0812L12.195 45.0275C12.1482 45.019 12.1032 45.0413 12.1197 45.0647L12.2232 45.2121L11.9328 45.1586C11.8863 45.1499 11.8412 45.172 11.8575 45.1956L11.9614 45.3432L11.6709 45.2895C11.6241 45.281 11.5792 45.3031 11.5957 45.3267L11.6992 45.4741L11.4089 45.4204C11.3623 45.4121 11.3171 45.4342 11.3336 45.4576L11.4374 45.6052L11.1469 45.5515C11.1003 45.5428 11.0553 45.5651 11.0716 45.5885L11.1755 45.7361L10.885 45.6826C10.8382 45.6739 10.7931 45.6961 10.8096 45.7196L10.9133 45.867L10.623 45.8134C10.5764 45.805 10.5313 45.8272 10.5478 45.8507L10.6515 45.9982L10.361 45.9445C10.3144 45.9358 10.2692 45.9581 10.2856 45.9815L10.3895 46.1293L10.099 46.0756C10.0524 46.0669 10.0072 46.089 10.0237 46.1126L10.1274 46.26L9.83712 46.2063C9.79034 46.198 9.74519 46.2201 9.76187 46.2437L9.86541 46.3911L9.57492 46.3374C9.5285 46.3289 9.48335 46.351 9.49966 46.3744L9.60357 46.5222L9.31308 46.4685C9.26629 46.4598 9.22114 46.4821 9.23782 46.5055L9.34136 46.6531L9.05105 46.5994C9.00445 46.5909 8.9593 46.613 8.9758 46.6366L9.07952 46.784L16.2943 50.3914L16.5846 50.4449C16.6314 50.4536 16.6765 50.4315 16.66 50.4079L16.5561 50.2605L16.8466 50.3142C16.8934 50.3227 16.9384 50.3006 16.9219 50.277L16.8182 50.1294L17.1085 50.1831C17.1553 50.1916 17.2004 50.1695 17.1839 50.1461L17.0802 49.9985L17.3707 50.052C17.4173 50.0607 17.4624 50.0384 17.4459 50.015L17.342 49.8676L17.6325 49.9211C17.6793 49.9298 17.7245 49.9076 17.708 49.8841L17.6042 49.7365L17.8945 49.7901C17.9411 49.7987 17.9863 49.7765 17.9698 49.753L17.8661 49.6055L18.1566 49.659C18.2032 49.6677 18.2483 49.6454 18.2318 49.622L18.1281 49.4744L18.4186 49.5281C18.4652 49.5368 18.5103 49.5147 18.4938 49.4911L18.3901 49.3435L18.6804 49.397C18.7272 49.4057 18.7724 49.3836 18.7557 49.36L18.6521 49.2126L18.9426 49.2661C18.9891 49.2746 19.0342 49.2525 19.0179 49.2291L18.914 49.0815L19.2045 49.1352C19.2513 49.1439 19.2962 49.1216 19.2797 49.0982L19.176 48.9504L19.4663 49.0041C19.5131 49.0128 19.5582 48.9906 19.5417 48.9671L19.438 48.8197L19.7285 48.8731C19.7751 48.8817 19.8201 48.8595 19.8038 48.836L19.6999 48.6886L19.9904 48.7422C20.0371 48.7507 20.0823 48.7286 20.0658 48.7052L19.9621 48.5574L20.2524 48.6111C20.299 48.6198 20.3441 48.5975 20.3276 48.5741L20.2239 48.4267L20.5144 48.4802C20.561 48.4887 20.6062 48.4666 20.5897 48.443L20.4859 48.2956L20.4801 48.2985L13.2655 44.6911Z" fill="white"/>
<path fill-rule="evenodd" clip-rule="evenodd" d="M17.5443 48.9205C16.7949 49.2951 15.58 49.2951 14.8305 48.9205C14.0811 48.5461 14.0811 47.9384 14.8305 47.5638C15.58 47.189 16.7949 47.189 17.5443 47.5638C18.2936 47.9384 18.2936 48.5461 17.5443 48.9205ZM14.6862 47.4916C13.8572 47.9061 13.8572 48.5782 14.6862 48.9927C15.5154 49.4074 16.8596 49.4074 17.6887 48.9927C18.5177 48.5782 18.5177 47.9061 17.6887 47.4916C16.8596 47.0771 15.5154 47.0771 14.6862 47.4916Z" fill="#111111"/>
<path fill-rule="evenodd" clip-rule="evenodd" d="M14.7332 48.4649L14.5734 48.3851L16.4731 47.4351L16.6328 47.5151L14.7332 48.4649Z" fill="#111111"/>
<path fill-rule="evenodd" clip-rule="evenodd" d="M15.1449 48.6707L14.9853 48.5911L16.8849 47.6411L17.0447 47.721L15.1449 48.6707Z" fill="#111111"/>
<path fill-rule="evenodd" clip-rule="evenodd" d="M15.5568 48.8766L15.397 48.7968L17.2968 47.847L17.4564 47.9268L15.5568 48.8766Z" fill="#111111"/>
<path fill-rule="evenodd" clip-rule="evenodd" d="M15.9685 49.0825L15.8089 49.0027L17.7085 48.0528L17.8683 48.1327L15.9685 49.0825Z" fill="#111111"/>
<path fill-rule="evenodd" clip-rule="evenodd" d="M11.4354 46.4118L11.2758 46.332L13.5218 45.2089L13.6815 45.2888L11.4354 46.4118Z" fill="#111111"/>
<path fill-rule="evenodd" clip-rule="evenodd" d="M11.8473 46.6178L11.6875 46.538L13.9337 45.4148L14.0934 45.4948L11.8473 46.6178Z" fill="#111111"/>
<path fill-rule="evenodd" clip-rule="evenodd" d="M12.259 46.8237L12.0994 46.7439L14.3456 45.6208L14.5051 45.7007L12.259 46.8237Z" fill="#111111"/>
<path fill-rule="evenodd" clip-rule="evenodd" d="M12.6709 47.0295L12.5111 46.9499L14.7573 45.8267L14.917 45.9067L12.6709 47.0295Z" fill="#111111"/>
</svg>
