<svg width="52" height="18" viewBox="0 0 52 18" fill="none" xmlns="http://www.w3.org/2000/svg">
<mask id="mask0_0_568" style="mask-type:alpha" maskUnits="userSpaceOnUse" x="0" y="0" width="51" height="18">
<path fill-rule="evenodd" clip-rule="evenodd" d="M26.0622 6.15794C26.0336 8.41598 28.0746 9.67614 29.6121 10.4253C31.1918 11.1941 31.7224 11.687 31.7164 12.3743C31.7043 13.4265 30.4562 13.8907 29.288 13.9088C27.25 13.9405 26.0652 13.3586 25.1231 12.9185L24.389 16.3538C25.3342 16.7894 27.0842 17.1693 28.8991 17.1859C33.1589 17.1859 35.946 15.0831 35.9611 11.8226C35.9777 7.68491 30.2376 7.45579 30.2768 5.60624C30.2904 5.0455 30.8255 4.44708 31.9982 4.29483C32.5786 4.21796 34.1809 4.15917 35.9973 4.99576L36.7103 1.67201C35.7335 1.31627 34.4779 0.975607 32.9147 0.975607C28.9051 0.975607 26.0848 3.10703 26.0622 6.15794ZM43.5613 1.26201C42.7835 1.26201 42.1278 1.71572 41.8353 2.41213L35.7501 16.9417H40.0069L40.854 14.6007H46.056L46.5474 16.9417H50.2992L47.0252 1.26201H43.5613ZM44.1567 5.49771L45.3852 11.3855H42.0207L44.1567 5.49771ZM20.901 1.26201L17.5456 16.9417H21.6019L24.9558 1.26201L20.901 1.26201ZM14.9001 1.26201L10.678 11.9342L8.97016 2.85982C8.76968 1.84687 7.97831 1.26201 7.09952 1.26201H0.197273L0.100801 1.71723C1.51773 2.02474 3.1276 2.52066 4.10287 3.05125C4.69978 3.37534 4.87012 3.65872 5.06607 4.42899L8.30089 16.9417H12.5878L19.16 1.26201H14.9001Z" fill="white"/>
</mask>
<g mask="url(#mask0_0_568)">
<path fill-rule="evenodd" clip-rule="evenodd" d="M-5.1559 2.91159L44.3044 -15.3035L55.5564 15.2504L6.09661 33.4655" fill="white"/>
</g>
</svg>
