<svg width="80" height="49" viewBox="0 0 80 49" fill="none" xmlns="http://www.w3.org/2000/svg">
<g opacity="0.3">
<path fill-rule="evenodd" clip-rule="evenodd" d="M31 9L40 2L49 9V20C49 21.1046 48.1046 22 47 22H33C31.8954 22 31 21.1046 31 20V9Z" stroke="#111111" stroke-width="2" stroke-linecap="round" stroke-linejoin="round"/>
<path fill-rule="evenodd" clip-rule="evenodd" d="M35 14.5C34.4477 14.5 34 14.9477 34 15.5C34 16.0523 34.4477 16.5 35 16.5H45C45.5523 16.5 46 16.0523 46 15.5C46 14.9477 45.5523 14.5 45 14.5H35ZM35 17.5C34.4477 17.5 34 17.9477 34 18.5C34 19.0523 34.4477 19.5 35 19.5H45C45.5523 19.5 46 19.0523 46 18.5C46 17.9477 45.5523 17.5 45 17.5H35Z" fill="#111111"/>
</g>
</svg>
