<svg width="73" height="49" viewBox="0 0 73 49" fill="none" xmlns="http://www.w3.org/2000/svg">
<g opacity="0.3">
<path fill-rule="evenodd" clip-rule="evenodd" d="M46 15.9979V7.99795C45.9993 7.28415 45.6182 6.62485 45 6.26795L38 2.26795C37.3812 1.91068 36.6188 1.91068 36 2.26795L29 6.26795C28.3818 6.62485 28.0007 7.28415 28 7.99795V15.9979C28.0007 16.7117 28.3818 17.3711 29 17.7279L36 21.7279C36.6188 22.0852 37.3812 22.0852 38 21.7279L45 17.7279C45.6182 17.3711 45.9993 16.7117 46 15.9979Z" stroke="#111111" stroke-width="2" stroke-linecap="round" stroke-linejoin="round"/>
<path d="M41.5 9.39795L32.5 4.20795" stroke="#111111" stroke-width="2" stroke-linecap="round" stroke-linejoin="round"/>
<path fill-rule="evenodd" clip-rule="evenodd" d="M28.7707 6.09234C28.2926 5.8158 27.6809 5.97916 27.4043 6.45722C27.1278 6.93528 27.2912 7.54701 27.7692 7.82355L35.9999 12.5847V22.0779C35.9999 22.6302 36.4477 23.0779 36.9999 23.0779C37.5522 23.0779 37.9999 22.6302 37.9999 22.0779V12.5847L46.2307 7.82355C46.7087 7.54701 46.8721 6.93528 46.5955 6.45722C46.319 5.97916 45.7073 5.8158 45.2292 6.09234L36.9999 10.8527L28.7707 6.09234Z" fill="#111111"/>
</g>
</svg>
