<svg width="20" height="20" viewBox="0 0 20 20" fill="none" xmlns="http://www.w3.org/2000/svg">
<path fill-rule="evenodd" clip-rule="evenodd" d="M0 0H7.5969V7.5385H0V0ZM2.4806 2.4615H4.9612V4.9231H2.4806V2.4615ZM12.4031 0H20V7.5385H12.4031V0ZM15.0387 2.4615H17.5194V4.9231H15.0387V2.4615ZM7.5969 12.4615H0V20H7.5969V12.4615ZM4.9612 14.9231H2.4806V17.3846H4.9612V14.9231ZM2.4806 8.7692H0V11.2308H2.4806V8.7692ZM8.6823 8.7692H6.2017V11.2308H8.6823V13.6923H11.1629V8.7692H8.6823ZM14.8837 13.6923H12.4031V14.9231H11.1627H10.5426H8.6821V19.8462H11.1627V17.3846H12.4031H13.0232H14.8837V13.6923ZM17.3643 13.6923H19.8449V17.3846H17.3644V19.8462H14.8838V17.3846H17.3643V13.6923ZM11.1627 2.6154H8.6821V7.5385H11.1627V2.6154ZM12.4031 8.7692H14.8837V11.2308H12.4031V8.7692ZM17.3643 11.2308H14.8838V13.6923H17.3644V11.2308H19.8449V8.7692H17.3643V11.2308Z" fill="#111111"/>
</svg>
