<svg width="66" height="49" viewBox="0 0 66 49" fill="none" xmlns="http://www.w3.org/2000/svg">
<g opacity="0.3">
<path d="M38.4545 5.87995L32.0909 2.24359C31.5284 1.9188 30.8353 1.9188 30.2727 2.24359L23.9091 5.87995C23.3471 6.20441 23.0007 6.80377 23 7.45268V15.7248" stroke="#111111" stroke-width="2" stroke-linecap="round" stroke-linejoin="round"/>
<path fill-rule="evenodd" clip-rule="evenodd" d="M43.0001 19.3068V11.0568C42.9994 10.3207 42.653 9.64077 42.091 9.27272H27.5456C26.9836 9.64077 26.6371 10.3207 26.6365 11.0568V19.3068C26.6371 20.0429 26.9836 20.7228 27.5456 21.0909H42.091C42.653 20.7228 42.9994 20.0429 43.0001 19.3068Z" stroke="#111111" stroke-width="2" stroke-linecap="round" stroke-linejoin="round"/>
<path d="M42.0911 11.0909L35.7275 14.7273C35.1649 15.0521 34.4718 15.0521 33.9093 14.7273L27.5457 11.0909" stroke="#111111" stroke-width="2" stroke-linecap="round" stroke-linejoin="round"/>
</g>
</svg>
