<svg width="66" height="49" viewBox="0 0 66 49" fill="none" xmlns="http://www.w3.org/2000/svg">
<path d="M1.03477 45H2.40277V39.288L4.95877 45H5.90677L8.45077 39.288V45H9.81877V36.66H8.35477L5.43877 43.2L2.51077 36.66H1.03477V45ZM14.2208 43.428L12.3608 38.388H10.8368L13.4408 44.892L12.0968 48.108H13.5128L17.5688 38.388H16.1528L14.2208 43.428ZM23.0864 39.36V38.388H21.7184V48.144H23.0864V44.04C23.5184 44.556 24.2984 45.108 25.3904 45.108C27.1304 45.108 28.4984 43.704 28.4984 41.664C28.4984 39.624 27.1304 38.28 25.3904 38.28C24.3104 38.28 23.5064 38.808 23.0864 39.36ZM27.1064 41.664C27.1064 43.092 26.1224 43.92 25.0904 43.92C24.0704 43.92 23.0864 43.116 23.0864 41.688C23.0864 40.272 24.0704 39.468 25.0904 39.468C26.1224 39.468 27.1064 40.236 27.1064 41.664ZM29.3952 41.664C29.3952 43.704 30.7752 45.108 32.4912 45.108C33.5952 45.108 34.3872 44.58 34.8072 44.016V45H36.1872V38.388H34.8072V39.348C34.3992 38.808 33.6312 38.28 32.5152 38.28C30.7752 38.28 29.3952 39.624 29.3952 41.664ZM34.8072 41.688C34.8072 43.116 33.8352 43.92 32.8032 43.92C31.7832 43.92 30.7992 43.092 30.7992 41.664C30.7992 40.236 31.7832 39.468 32.8032 39.468C33.8352 39.468 34.8072 40.272 34.8072 41.688ZM39.352 41.52C39.352 40.116 39.976 39.696 40.984 39.696H41.332V38.28C40.396 38.28 39.736 38.688 39.352 39.348V38.388H37.984V45H39.352V41.52ZM42.1335 41.688C42.1335 43.764 43.4775 45.108 45.3735 45.108C46.9935 45.108 48.0495 44.208 48.4215 42.912H46.9455C46.6935 43.596 46.1895 43.956 45.3735 43.956C44.2695 43.956 43.5375 43.14 43.5375 41.688C43.5375 40.248 44.2695 39.432 45.3735 39.432C46.1895 39.432 46.7175 39.84 46.9455 40.476H48.4215C48.0495 39.084 46.9935 38.28 45.3735 38.28C43.4775 38.28 42.1335 39.624 42.1335 41.688ZM52.5688 39.432C53.5888 39.432 54.3928 40.08 54.4168 41.1H50.7568C50.9008 40.056 51.6448 39.432 52.5688 39.432ZM55.6648 43.032H54.1888C53.9368 43.548 53.4688 43.956 52.6288 43.956C51.6208 43.956 50.8408 43.296 50.7448 42.204H55.7968C55.8328 41.976 55.8448 41.76 55.8448 41.532C55.8448 39.588 54.5128 38.28 52.6288 38.28C50.6728 38.28 49.3288 39.612 49.3288 41.688C49.3288 43.764 50.7328 45.108 52.6288 45.108C54.2488 45.108 55.2928 44.184 55.6648 43.032ZM57.191 45H58.559V36.12H57.191V45ZM65.2871 43.152C65.2151 40.764 61.4831 41.508 61.4831 40.176C61.4831 39.732 61.8671 39.432 62.5991 39.432C63.3431 39.432 63.7871 39.828 63.8351 40.404H65.2031C65.1311 39.084 64.1471 38.28 62.6471 38.28C61.0871 38.28 60.1031 39.132 60.1031 40.188C60.1031 42.612 63.9431 41.868 63.9431 43.164C63.9431 43.62 63.5231 43.956 62.7311 43.956C61.9751 43.956 61.4591 43.512 61.4111 42.972H59.9951C60.0551 44.172 61.1711 45.108 62.7551 45.108C64.3151 45.108 65.2871 44.268 65.2871 43.152Z" fill="#111111"/>
<path d="M38.4545 5.87995L32.0909 2.24359C31.5284 1.9188 30.8353 1.9188 30.2727 2.24359L23.9091 5.87995C23.3471 6.20441 23.0007 6.80377 23 7.45268V15.7248" stroke="#111111" stroke-width="2" stroke-linecap="round" stroke-linejoin="round"/>
<path fill-rule="evenodd" clip-rule="evenodd" d="M43.0001 19.3068V11.0568C42.9994 10.3207 42.653 9.64077 42.091 9.27272H27.5456C26.9836 9.64077 26.6371 10.3207 26.6365 11.0568V19.3068C26.6371 20.0429 26.9836 20.7228 27.5456 21.0909H42.091C42.653 20.7228 42.9994 20.0429 43.0001 19.3068Z" fill="#111111" stroke="#111111" stroke-width="2" stroke-linecap="round" stroke-linejoin="round"/>
<path d="M42.0911 11.0909L35.7275 14.7273C35.1649 15.0521 34.4718 15.0521 33.9093 14.7273L27.5457 11.0909" stroke="white" stroke-width="2" stroke-linecap="round" stroke-linejoin="round"/>
</svg>
