<svg width="62" height="40" viewBox="0 0 62 40" fill="none" xmlns="http://www.w3.org/2000/svg">
<rect width="62" height="40" rx="10" fill="url(#paint0_linear_1_1062)"/>
<mask id="mask0_1_1062" style="mask-type:alpha" maskUnits="userSpaceOnUse" x="0" y="0" width="62" height="40">
<rect width="62" height="40" rx="10" fill="white"/>
</mask>
<g mask="url(#mask0_1_1062)">
<rect width="62" height="40" fill="#415A6B"/>
<rect x="6.09644" y="32.5126" width="6.94468" height="3.4875" fill="#344A5E"/>
<rect x="16.6421" y="32.5126" width="6.94468" height="3.4875" fill="#344A5E"/>
<rect x="27.1877" y="32.5126" width="6.94468" height="3.4875" fill="#344A5E"/>
<rect x="37.7334" y="32.5126" width="6.94468" height="3.4875" fill="#344A5E"/>
<rect x="48.2789" y="32.5126" width="6.94468" height="3.4875" fill="#344A5E"/>
<path fill-rule="evenodd" clip-rule="evenodd" d="M41.7201 5.77501C35.9329 7.97081 32.975 14.5583 35.1613 20.3708C37.3475 26.1833 43.9064 29.1541 49.6936 26.9583C55.4809 24.7625 58.4387 18.175 56.2525 12.3625C54.0662 6.55001 47.5074 3.57922 41.7201 5.77501ZM36.3187 20.5L40.0482 19.0792C40.6912 20.7584 41.4628 22.1792 42.3631 23.3417L39.4052 24.5042C38.1192 23.4708 36.9617 22.1792 36.3187 20.5ZM42.6203 6.55001L43.9064 10.1667L47.2501 8.87501C45.7068 7.19581 44.0349 6.29172 42.6203 6.55001ZM47.8932 9.77922C48.7935 10.9417 49.6936 12.3625 50.3367 14.0417L45.9641 15.7209L44.2922 11.2L47.8932 9.77922ZM42.8776 10.5542L41.5915 6.93751C40.3054 7.71251 39.6624 9.52081 39.6624 11.8458L42.8776 10.5542ZM43.2634 11.5875L44.9353 16.1083L40.5627 17.7875C40.0482 16.1083 39.6624 14.4292 39.5339 13.0083L43.2634 11.5875ZM35.9329 19.4666L39.6624 18.0458C39.0194 16.4958 38.7621 14.8167 38.6336 13.2666L35.6757 14.4291C35.2899 16.1083 35.4184 17.7874 35.9329 19.4666ZM40.9485 18.6917L45.3211 17.0125L46.9929 21.5333L43.3919 22.9541C42.4918 21.7917 41.7201 20.3708 40.9485 18.6917ZM48.6648 26.1834L47.3787 22.5667L44.035 23.8584C45.5783 25.5376 47.2502 26.4417 48.6648 26.1834ZM49.8223 25.7958L48.5362 22.1792L51.7513 20.8875C51.6227 23.2125 50.9797 25.0208 49.8223 25.7958ZM46.3499 16.625L48.0217 21.1458L51.7513 19.725C51.6227 18.3042 51.2369 16.625 50.7225 14.9458L46.3499 16.625ZM51.6227 14.6875L55.3522 13.2667C55.8667 14.9459 55.9952 16.625 55.6094 18.3042L52.6515 19.4667C52.6515 17.9167 52.2657 16.3667 51.6227 14.6875ZM49.0506 9.39172C49.9509 10.5542 50.7225 11.975 51.3655 13.6542L55.095 12.2334C54.4521 10.5542 53.2946 9.26251 52.0085 8.22922L49.0506 9.39172ZM50.8511 7.58331L48.279 8.48751C47.3787 7.32501 46.3499 6.55001 45.1925 6.03331C47.2501 6.03331 49.1792 6.55001 50.8511 7.58331ZM38.6336 12.2333C38.6336 10.6833 38.8908 9.3916 39.2766 8.35831C37.6047 9.65001 36.5759 11.3292 35.9329 13.2666L38.6336 12.2333ZM40.434 25.2792L43.1348 24.2459C44.035 25.2792 45.0638 26.1834 46.0926 26.7001C44.1636 26.7 42.106 26.1833 40.434 25.2792ZM52.7801 20.5C52.7801 22.05 52.523 23.3417 52.1372 24.375C53.6804 23.0833 54.8379 21.4042 55.4809 19.4667L52.7801 20.5Z" fill="#344A5E"/>
<path fill-rule="evenodd" clip-rule="evenodd" d="M8.5449 11.9666H6.10449V6.09998H8.28805C8.67339 6.09998 8.93024 6.09998 9.31558 6.23335L9.31774 6.23447C9.57387 6.36747 9.82977 6.50035 9.95777 6.63335C10.2146 6.89998 10.3431 7.29998 10.3431 7.69998C10.3431 8.09998 10.2146 8.49998 9.95777 8.7666C9.88351 8.84376 9.85221 8.87629 9.81414 8.88999C9.7864 8.89998 9.75507 8.89998 9.70092 8.89998C9.70092 8.89998 9.57243 8.89998 9.44407 9.03335C9.82941 9.16673 10.0863 9.29998 10.2147 9.56673C10.4716 9.83335 10.4716 10.1001 10.4716 10.5001C10.4716 10.9001 10.3431 11.3001 10.0863 11.5667L10.0861 11.5668C9.82925 11.7001 9.31546 11.9666 8.5449 11.9666ZM7.38888 8.49998H8.03107C8.41641 8.49998 8.67327 8.49998 8.80175 8.3666C8.93024 8.23323 9.05861 8.09998 9.05861 7.83323C9.05861 7.56673 8.93036 7.43348 8.80211 7.30023L8.80175 7.29985C8.68631 7.29985 8.57083 7.27291 8.44369 7.24324C8.28796 7.2069 8.11473 7.16648 7.90259 7.16648H7.38876V8.49998H7.38888ZM8.28805 10.7666H7.38888V9.4331H8.15956C8.5449 9.4331 8.93036 9.4331 9.05873 9.56648L9.05909 9.56685C9.18733 9.7001 9.31558 9.83335 9.31558 10.0999C9.31558 10.3666 9.18721 10.4999 9.05873 10.6332C8.93024 10.7666 8.67339 10.7666 8.28805 10.7666Z" fill="white"/>
<path fill-rule="evenodd" clip-rule="evenodd" d="M15.0957 10.7666L15.6095 11.9666H16.894L14.4535 6.09998H13.2975L10.8569 11.9666H12.1413L12.6551 10.7666H15.0957ZM13.1691 9.56673L13.8113 7.83335L14.582 9.56673H13.1691Z" fill="white"/>
<path d="M21.3896 6.09998H22.6741V11.9666H21.3896L18.6922 8.3666V11.9666H17.4077V6.09998H18.5637L21.2611 9.83335V6.09998H21.3896Z" fill="white"/>
<path d="M24.0869 6.09998H25.3714V8.49998L27.4266 6.09998H28.968L26.7843 8.63335C26.9128 8.89998 27.2981 9.43335 27.8118 10.2334C28.3257 11.0334 28.711 11.5667 28.9679 11.9667H27.555L25.8851 9.69998L25.3713 10.3666V11.9666H24.0869V6.09998Z" fill="white"/>
<path d="M16.8109 17H7.30256C6.52105 17 6 17.7058 6 18.4118V27.5882C6 28.4353 6.65122 29 7.30256 29H16.6807C17.4622 29 17.9833 28.2942 17.9833 27.5882V18.4118C18.1134 17.706 17.4622 17 16.8109 17Z" fill="#FFD15C"/>
</g>
<defs>
<linearGradient id="paint0_linear_1_1062" x1="46.5" y1="-13.0427" x2="19.8863" y2="18.5852" gradientUnits="userSpaceOnUse">
<stop stop-color="#68B6F3"/>
<stop offset="1" stop-color="#3F2F8C"/>
</linearGradient>
</defs>
</svg>
