<svg 
          width="6.093891143798828" 
          height="3.28125" fill="none" 
          xmlns="http://www.w3.org/2000/svg">
          <path d="M 5.62503744088868 3.281240165233612 C 5.721492427235563 3.281265823799231 5.815607109428622 3.2515344524290413 5.894542221154321 3.196101486682892 C 5.97347733288002 3.1406685209367424 6.033389366484077 3.0622340692207217 6.066105247087434 2.971496880054474 C 6.098821127690791 2.880759690888226 6.102747308848406 2.7821381273679435 6.077349067057911 2.6890870928764343 C 6.051950825267416 2.596036058384925 5.9984640232328434 2.5130865862593055 5.9241859946070194 2.4515533447265625 C 5.541920758405644 2.113560838624835 5.192043474822293 1.740620182827115 4.879107975881626 1.33758544921875 C 4.749789224222655 1.1814916972070932 4.62001452497975 1.0253974981606007 4.48611608312534 0.8720389008522034 C 3.9876004459726446 0.301666259765625 3.2233682016789036 0 2.2762494834030003 0 L 0.4687499908302672 0 C 0.34443167295803884 0.000006215450127911026 0.22520681402609827 0.049394164234399796 0.13730048864712233 0.1373004913330078 C 0.04939416326814637 0.22520681843161583 0.00000621545000632379 0.34443167969584465 0 0.46875 L 0 2.8125 C 0.00000621545000632379 2.9368183203041553 0.04939416326814637 3.056043181568384 0.13730048864712233 3.143949508666992 C 0.22520681402609827 3.2318558357656 0.34443167295803884 3.281243784549872 0.4687499908302672 3.28125 L 5.62503744088868 3.281240165233612 Z M 0.9375107104963841 0.9374901652336121 L 2.2762476952636916 0.9374901652336121 C 2.7424828357949202 0.9374901652336121 3.381752305633858 1.0331628005951643 3.7802319979272605 1.4890971779823303 C 3.9088640202728206 1.636268268339336 4.033375554979212 1.7861860804259777 4.15765992614426 1.9363313913345337 C 4.269813050342823 2.0713712414726615 4.383110318271758 2.2080135997384787 4.500297815979325 2.343740165233612 L 0.9375107104963841 2.343740165233612 L 0.9375107104963841 0.9374901652336121 Z" fill="rgb(116.00000068545341,116.00000068545341,116.00000068545341)"/>
        </svg>