<svg width="337" height="64" viewBox="0 0 337 64" fill="none" xmlns="http://www.w3.org/2000/svg">
<g filter="url(#filter0_d_0_681)">
<circle cx="32" cy="30" r="22" fill="#FDAD27"/>
</g>
<path fill-rule="evenodd" clip-rule="evenodd" d="M41.4001 34.6789V22.0125C41.4001 21.4602 40.9524 21.0125 40.4001 21.0125H35.5661H31.9984H27.5221C26.9702 21.0125 26.5226 21.4596 26.5221 22.0116L26.5148 30.4301H24C23.4477 30.4301 23 30.8778 23 31.4301V37.8002C23 38.3525 23.4477 38.8002 24 38.8002H26.8338C27.3309 38.8002 27.7339 38.3972 27.7339 37.9H41.3894C42.2775 37.9 43 37.1775 43 36.2894C43 35.4048 42.2833 34.6848 41.4001 34.6789Z" fill="white"/>
<path fill-rule="evenodd" clip-rule="evenodd" d="M26.5106 37.0768C26.5106 37.3529 26.2868 37.5768 26.0106 37.5768H24.7233C24.4471 37.5768 24.2233 37.3529 24.2233 37.0768V32.1533C24.2233 31.8772 24.4471 31.6533 24.7233 31.6533H26.0106C26.2868 31.6533 26.5106 31.8772 26.5106 32.1533V37.0768Z" fill="#FDAD27"/>
<path fill-rule="evenodd" clip-rule="evenodd" d="M27.7448 22.7353C27.745 22.4593 27.9688 22.2357 28.2448 22.2357H31.9984H35.566H39.6768C39.953 22.2357 40.1768 22.4596 40.1768 22.7357V34.1787C40.1768 34.4549 39.953 34.6787 39.6768 34.6787H33.8863C33.7443 34.6787 33.6288 34.5632 33.6288 34.4213C33.6288 34.2793 33.7443 34.1638 33.8863 34.1638H36.076C37.004 34.1638 37.7589 33.4088 37.7589 32.4809C37.7589 31.6523 37.1407 30.9365 36.3209 30.8159L34.416 30.5358C32.6281 30.2729 31.495 30.5288 30.0296 31.093L27.7366 32.0756L27.7448 22.7353Z" fill="#FDAD27"/>
<path fill-rule="evenodd" clip-rule="evenodd" d="M41.3893 36.6767H27.7339V34.9798H27.7342L27.7356 33.4068L30.4798 32.2304C31.9754 31.6556 32.855 31.5425 34.2381 31.7459L36.1429 32.026C36.3668 32.059 36.5357 32.2545 36.5357 32.4807C36.5357 32.7342 36.3295 32.9404 36.0761 32.9404H33.8863C33.0699 32.9404 32.4056 33.6046 32.4056 34.4211C32.4056 35.2376 33.0699 35.9018 33.8863 35.9018H41.3893C41.603 35.9018 41.7768 36.0756 41.7768 36.2893C41.7767 36.5029 41.603 36.6767 41.3893 36.6767Z" fill="#FDAD27"/>
<path d="M71.89 20.25V17.98H73.15C74.04 17.98 74.44 18.4 74.44 19.12C74.44 19.82 74.04 20.25 73.15 20.25H71.89ZM75.61 19.12C75.61 17.99 74.8 17.05 73.15 17.05H70.75V24H71.89V21.18H73.15C74.96 21.18 75.61 20.11 75.61 19.12ZM76.3173 21.22C76.3173 22.92 77.4673 24.09 78.8973 24.09C79.8173 24.09 80.4773 23.65 80.8273 23.18V24H81.9773V18.49H80.8273V19.29C80.4873 18.84 79.8473 18.4 78.9173 18.4C77.4673 18.4 76.3173 19.52 76.3173 21.22ZM80.8273 21.24C80.8273 22.43 80.0173 23.1 79.1573 23.1C78.3073 23.1 77.4873 22.41 77.4873 21.22C77.4873 20.03 78.3073 19.39 79.1573 19.39C80.0173 19.39 80.8273 20.06 80.8273 21.24ZM84.6146 21.1C84.6146 19.93 85.1346 19.58 85.9746 19.58H86.2646V18.4C85.4846 18.4 84.9346 18.74 84.6146 19.29V18.49H83.4746V24H84.6146V21.1ZM86.9325 21.24C86.9325 22.97 88.0525 24.09 89.6325 24.09C90.9825 24.09 91.8625 23.34 92.1725 22.26H90.9425C90.7325 22.83 90.3125 23.13 89.6325 23.13C88.7125 23.13 88.1025 22.45 88.1025 21.24C88.1025 20.04 88.7125 19.36 89.6325 19.36C90.3125 19.36 90.7525 19.7 90.9425 20.23H92.1725C91.8625 19.07 90.9825 18.4 89.6325 18.4C88.0525 18.4 86.9325 19.52 86.9325 21.24ZM95.6286 19.36C96.4786 19.36 97.1486 19.9 97.1686 20.75H94.1186C94.2386 19.88 94.8586 19.36 95.6286 19.36ZM98.2086 22.36H96.9786C96.7686 22.79 96.3786 23.13 95.6786 23.13C94.8386 23.13 94.1886 22.58 94.1086 21.67H98.3186C98.3486 21.48 98.3586 21.3 98.3586 21.11C98.3586 19.49 97.2486 18.4 95.6786 18.4C94.0486 18.4 92.9286 19.51 92.9286 21.24C92.9286 22.97 94.0986 24.09 95.6786 24.09C97.0286 24.09 97.8986 23.32 98.2086 22.36ZM99.4805 24H100.62V16.6H99.4805V24ZM104.715 24H105.855V20.92C105.855 19.91 106.405 19.39 107.245 19.39C108.075 19.39 108.625 19.91 108.625 20.92V24H109.755V20.75C109.755 19.21 108.795 18.4 107.565 18.4C106.855 18.4 106.235 18.67 105.855 19.13V16.6H104.715V24ZM110.829 21.22C110.829 22.92 111.979 24.09 113.409 24.09C114.329 24.09 114.989 23.65 115.339 23.18V24H116.489V18.49H115.339V19.29C114.999 18.84 114.359 18.4 113.429 18.4C111.979 18.4 110.829 19.52 110.829 21.22ZM115.339 21.24C115.339 22.43 114.529 23.1 113.669 23.1C112.819 23.1 111.999 22.41 111.999 21.22C111.999 20.03 112.819 19.39 113.669 19.39C114.529 19.39 115.339 20.06 115.339 21.24ZM121.896 24H123.026V20.75C123.026 19.21 122.056 18.4 120.766 18.4C120.106 18.4 119.496 18.67 119.126 19.12V18.49H117.986V24H119.126V20.92C119.126 19.91 119.676 19.39 120.516 19.39C121.346 19.39 121.896 19.91 121.896 20.92V24ZM124.1 21.22C124.1 22.92 125.25 24.09 126.7 24.09C127.6 24.09 128.26 23.67 128.61 23.17V24H129.76V16.6H128.61V19.26C128.19 18.74 127.43 18.4 126.71 18.4C125.25 18.4 124.1 19.52 124.1 21.22ZM128.61 21.24C128.61 22.43 127.8 23.1 126.94 23.1C126.09 23.1 125.27 22.41 125.27 21.22C125.27 20.03 126.09 19.39 126.94 19.39C127.8 19.39 128.61 20.06 128.61 21.24ZM133.578 19.36C134.428 19.36 135.098 19.9 135.118 20.75H132.068C132.188 19.88 132.808 19.36 133.578 19.36ZM136.158 22.36H134.928C134.718 22.79 134.328 23.13 133.628 23.13C132.788 23.13 132.138 22.58 132.058 21.67H136.268C136.298 21.48 136.308 21.3 136.308 21.11C136.308 19.49 135.198 18.4 133.628 18.4C131.998 18.4 130.878 19.51 130.878 21.24C130.878 22.97 132.048 24.09 133.628 24.09C134.978 24.09 135.848 23.32 136.158 22.36ZM137.05 21.22C137.05 22.92 138.2 24.09 139.65 24.09C140.55 24.09 141.21 23.67 141.56 23.17V24H142.71V16.6H141.56V19.26C141.14 18.74 140.38 18.4 139.66 18.4C138.2 18.4 137.05 19.52 137.05 21.22ZM141.56 21.24C141.56 22.43 140.75 23.1 139.89 23.1C139.04 23.1 138.22 22.41 138.22 21.22C138.22 20.03 139.04 19.39 139.89 19.39C140.75 19.39 141.56 20.06 141.56 21.24ZM152.055 21.24C152.055 19.51 150.815 18.4 149.245 18.4C147.675 18.4 146.435 19.51 146.435 21.24C146.435 22.97 147.625 24.09 149.195 24.09C150.775 24.09 152.055 22.97 152.055 21.24ZM147.595 21.24C147.595 19.99 148.365 19.39 149.225 19.39C150.075 19.39 150.885 19.99 150.885 21.24C150.885 22.49 150.045 23.1 149.195 23.1C148.335 23.1 147.595 22.49 147.595 21.24ZM152.532 18.49L154.622 24H155.982L158.082 18.49H156.872L155.312 22.98L153.752 18.49H152.532ZM161.263 19.36C162.113 19.36 162.783 19.9 162.803 20.75H159.753C159.873 19.88 160.493 19.36 161.263 19.36ZM163.843 22.36H162.613C162.403 22.79 162.013 23.13 161.313 23.13C160.473 23.13 159.823 22.58 159.743 21.67H163.953C163.983 21.48 163.993 21.3 163.993 21.11C163.993 19.49 162.883 18.4 161.313 18.4C159.683 18.4 158.563 19.51 158.563 21.24C158.563 22.97 159.733 24.09 161.313 24.09C162.663 24.09 163.533 23.32 163.843 22.36ZM166.255 21.1C166.255 19.93 166.775 19.58 167.615 19.58H167.905V18.4C167.125 18.4 166.575 18.74 166.255 19.29V18.49H165.115V24H166.255V21.1ZM171.731 22.47C171.731 23.59 172.341 24 173.321 24H174.221V23.05H173.521C173.041 23.05 172.881 22.88 172.881 22.47V19.42H174.221V18.49H172.881V17.12H171.731V18.49H171.081V19.42H171.731V22.47ZM180.521 21.24C180.521 19.51 179.281 18.4 177.711 18.4C176.141 18.4 174.901 19.51 174.901 21.24C174.901 22.97 176.091 24.09 177.661 24.09C179.241 24.09 180.521 22.97 180.521 21.24ZM176.061 21.24C176.061 19.99 176.831 19.39 177.691 19.39C178.541 19.39 179.351 19.99 179.351 21.24C179.351 22.49 178.511 23.1 177.661 23.1C176.801 23.1 176.061 22.49 176.061 21.24ZM184.426 22.47C184.426 23.59 185.036 24 186.016 24H186.916V23.05H186.216C185.736 23.05 185.576 22.88 185.576 22.47V19.42H186.916V18.49H185.576V17.12H184.426V18.49H183.776V19.42H184.426V22.47ZM187.967 24H189.107V20.92C189.107 19.91 189.657 19.39 190.497 19.39C191.327 19.39 191.877 19.91 191.877 20.92V24H193.007V20.75C193.007 19.21 192.047 18.4 190.817 18.4C190.107 18.4 189.487 18.67 189.107 19.13V16.6H187.967V24ZM196.781 19.36C197.631 19.36 198.301 19.9 198.321 20.75H195.271C195.391 19.88 196.011 19.36 196.781 19.36ZM199.361 22.36H198.131C197.921 22.79 197.531 23.13 196.831 23.13C195.991 23.13 195.341 22.58 195.261 21.67H199.471C199.501 21.48 199.511 21.3 199.511 21.11C199.511 19.49 198.401 18.4 196.831 18.4C195.201 18.4 194.081 19.51 194.081 21.24C194.081 22.97 195.251 24.09 196.831 24.09C198.181 24.09 199.051 23.32 199.361 22.36ZM202.85 21.24C202.85 22.97 203.97 24.09 205.55 24.09C206.9 24.09 207.78 23.34 208.09 22.26H206.86C206.65 22.83 206.23 23.13 205.55 23.13C204.63 23.13 204.02 22.45 204.02 21.24C204.02 20.04 204.63 19.36 205.55 19.36C206.23 19.36 206.67 19.7 206.86 20.23H208.09C207.78 19.07 206.9 18.4 205.55 18.4C203.97 18.4 202.85 19.52 202.85 21.24ZM214.477 21.24C214.477 19.51 213.237 18.4 211.667 18.4C210.097 18.4 208.857 19.51 208.857 21.24C208.857 22.97 210.047 24.09 211.617 24.09C213.197 24.09 214.477 22.97 214.477 21.24ZM210.017 21.24C210.017 19.99 210.787 19.39 211.647 19.39C212.497 19.39 213.307 19.99 213.307 21.24C213.307 22.49 212.467 23.1 211.617 23.1C210.757 23.1 210.017 22.49 210.017 21.24ZM220.594 18.49H219.454V21.56C219.454 22.57 218.904 23.09 218.064 23.09C217.234 23.09 216.684 22.57 216.684 21.56V18.49H215.554V21.73C215.554 23.27 216.534 24.08 217.824 24.08C218.474 24.08 219.094 23.81 219.454 23.34V24H220.594V18.49ZM223.238 21.1C223.238 19.93 223.758 19.58 224.598 19.58H224.888V18.4C224.108 18.4 223.558 18.74 223.238 19.29V18.49H222.098V24H223.238V21.1ZM225.936 24H227.076V18.49H225.936V24ZM226.516 17.76C226.916 17.76 227.236 17.44 227.236 17.03C227.236 16.62 226.916 16.3 226.516 16.3C226.106 16.3 225.786 16.62 225.786 17.03C225.786 17.44 226.106 17.76 226.516 17.76ZM230.892 19.36C231.742 19.36 232.412 19.9 232.432 20.75H229.382C229.502 19.88 230.122 19.36 230.892 19.36ZM233.472 22.36H232.242C232.032 22.79 231.642 23.13 230.942 23.13C230.102 23.13 229.452 22.58 229.372 21.67H233.582C233.612 21.48 233.622 21.3 233.622 21.11C233.622 19.49 232.512 18.4 230.942 18.4C229.312 18.4 228.192 19.51 228.192 21.24C228.192 22.97 229.362 24.09 230.942 24.09C232.292 24.09 233.162 23.32 233.472 22.36ZM235.884 21.1C235.884 19.93 236.404 19.58 237.244 19.58H237.534V18.4C236.754 18.4 236.204 18.74 235.884 19.29V18.49H234.744V24H235.884V21.1ZM239.762 23.34C239.762 22.93 239.442 22.61 239.042 22.61C238.632 22.61 238.312 22.93 238.312 23.34C238.312 23.75 238.632 24.07 239.042 24.07C239.442 24.07 239.762 23.75 239.762 23.34Z" fill="#111111"/>
<path d="M70.51 42.9H75.37V41.95H72.2C73.37 40.88 75.17 39.53 75.17 37.76C75.17 36.45 74.33 35.56 72.85 35.56C71.56 35.56 70.54 36.33 70.5 37.91H71.6C71.63 37.09 72.06 36.53 72.86 36.53C73.71 36.53 74.04 37.05 74.04 37.81C74.04 39.24 72.23 40.56 70.51 42.07V42.9ZM77.1515 43H78.3015V35.71H76.2215V36.75H77.1515V43ZM81.1976 42.34C81.1976 41.93 80.8776 41.61 80.4776 41.61C80.0676 41.61 79.7476 41.93 79.7476 42.34C79.7476 42.75 80.0676 43.07 80.4776 43.07C80.8776 43.07 81.1976 42.75 81.1976 42.34ZM82.2797 39.26C82.2797 41.38 82.8397 42.98 84.8797 42.98C86.9197 42.98 87.4797 41.38 87.4797 39.26C87.4797 37.18 86.9197 35.58 84.8797 35.58C82.8397 35.58 82.2797 37.18 82.2797 39.26ZM86.3597 39.26C86.3597 40.69 86.2097 41.94 84.8797 41.94C83.5497 41.94 83.3997 40.69 83.3997 39.26C83.3997 37.9 83.5497 36.62 84.8797 36.62C86.2097 36.62 86.3597 37.9 86.3597 39.26ZM89.9159 39.19C89.1859 39.46 88.6959 40.11 88.6959 40.99C88.6959 42.32 89.7759 43.18 91.2759 43.18C92.7859 43.18 93.8659 42.32 93.8659 40.99C93.8659 40.12 93.3759 39.47 92.6359 39.19C93.2259 38.9 93.6759 38.33 93.6759 37.55C93.6759 36.5 92.8859 35.58 91.2759 35.58C89.6659 35.58 88.8759 36.49 88.8759 37.55C88.8759 38.36 89.2959 38.88 89.9159 39.19ZM91.2759 38.83C90.5159 38.83 89.9759 38.36 89.9759 37.7C89.9759 36.93 90.4959 36.53 91.2759 36.53C92.0759 36.53 92.5859 36.94 92.5859 37.69C92.5859 38.35 92.0359 38.83 91.2759 38.83ZM91.2759 39.69C92.1359 39.69 92.7459 40.13 92.7459 40.95C92.7459 41.68 92.1959 42.23 91.2759 42.23C90.3459 42.23 89.7859 41.69 89.7859 40.95C89.7859 40.1 90.4359 39.69 91.2759 39.69ZM96.3929 42.34C96.3929 41.93 96.0729 41.61 95.6729 41.61C95.2629 41.61 94.9429 41.93 94.9429 42.34C94.9429 42.75 95.2629 43.07 95.6729 43.07C96.0729 43.07 96.3929 42.75 96.3929 42.34ZM97.385 42.9H102.245V41.95H99.075C100.245 40.88 102.045 39.53 102.045 37.76C102.045 36.45 101.205 35.56 99.725 35.56C98.435 35.56 97.415 36.33 97.375 37.91H98.475C98.505 37.09 98.935 36.53 99.735 36.53C100.585 36.53 100.915 37.05 100.915 37.81C100.915 39.24 99.105 40.56 97.385 42.07V42.9ZM103.246 39.26C103.246 41.38 103.806 42.98 105.846 42.98C107.886 42.98 108.446 41.38 108.446 39.26C108.446 37.18 107.886 35.58 105.846 35.58C103.806 35.58 103.246 37.18 103.246 39.26ZM107.326 39.26C107.326 40.69 107.176 41.94 105.846 41.94C104.516 41.94 104.366 40.69 104.366 39.26C104.366 37.9 104.516 36.62 105.846 36.62C107.176 36.62 107.326 37.9 107.326 39.26ZM109.563 42.9H114.423V41.95H111.253C112.423 40.88 114.223 39.53 114.223 37.76C114.223 36.45 113.383 35.56 111.903 35.56C110.613 35.56 109.593 36.33 109.553 37.91H110.653C110.683 37.09 111.113 36.53 111.913 36.53C112.763 36.53 113.093 37.05 113.093 37.81C113.093 39.24 111.283 40.56 109.563 42.07V42.9ZM115.424 39.26C115.424 41.38 115.984 42.98 118.024 42.98C120.064 42.98 120.624 41.38 120.624 39.26C120.624 37.18 120.064 35.58 118.024 35.58C115.984 35.58 115.424 37.18 115.424 39.26ZM119.504 39.26C119.504 40.69 119.354 41.94 118.024 41.94C116.694 41.94 116.544 40.69 116.544 39.26C116.544 37.9 116.694 36.62 118.024 36.62C119.354 36.62 119.504 37.9 119.504 39.26ZM124.698 39.86H128.808V38.9H124.698V39.86ZM134.105 39.19C133.375 39.46 132.885 40.11 132.885 40.99C132.885 42.32 133.965 43.18 135.465 43.18C136.975 43.18 138.055 42.32 138.055 40.99C138.055 40.12 137.565 39.47 136.825 39.19C137.415 38.9 137.865 38.33 137.865 37.55C137.865 36.5 137.075 35.58 135.465 35.58C133.855 35.58 133.065 36.49 133.065 37.55C133.065 38.36 133.485 38.88 134.105 39.19ZM135.465 38.83C134.705 38.83 134.165 38.36 134.165 37.7C134.165 36.93 134.685 36.53 135.465 36.53C136.265 36.53 136.775 36.94 136.775 37.69C136.775 38.35 136.225 38.83 135.465 38.83ZM135.465 39.69C136.325 39.69 136.935 40.13 136.935 40.95C136.935 41.68 136.385 42.23 135.465 42.23C134.535 42.23 133.975 41.69 133.975 40.95C133.975 40.1 134.625 39.69 135.465 39.69ZM140.582 42.34C140.582 41.93 140.262 41.61 139.862 41.61C139.452 41.61 139.132 41.93 139.132 42.34C139.132 42.75 139.452 43.07 139.862 43.07C140.262 43.07 140.582 42.75 140.582 42.34ZM140.582 38.14C140.582 37.73 140.262 37.41 139.862 37.41C139.452 37.41 139.132 37.73 139.132 38.14C139.132 38.55 139.452 38.87 139.862 38.87C140.262 38.87 140.582 38.55 140.582 38.14ZM141.614 42.9H146.474V41.95H143.304C144.474 40.88 146.274 39.53 146.274 37.76C146.274 36.45 145.434 35.56 143.954 35.56C142.664 35.56 141.644 36.33 141.604 37.91H142.704C142.734 37.09 143.164 36.53 143.964 36.53C144.814 36.53 145.144 37.05 145.144 37.81C145.144 39.24 143.334 40.56 141.614 42.07V42.9ZM147.455 37.51H148.565C148.635 37 149.005 36.52 149.805 36.52C150.585 36.52 150.995 36.94 150.995 37.57C150.995 38.35 150.365 38.65 149.335 38.66H149.065V39.6H149.325C150.515 39.6 151.135 39.93 151.135 40.89C151.135 41.57 150.715 42.09 149.865 42.09C149.005 42.09 148.505 41.57 148.455 40.89H147.355C147.425 42.32 148.495 43.04 149.875 43.04C151.395 43.04 152.215 42.16 152.215 41C152.215 39.99 151.725 39.36 150.965 39.13V39.09C151.535 38.9 152.085 38.31 152.085 37.44C152.085 36.38 151.295 35.54 149.845 35.54C148.515 35.54 147.535 36.25 147.455 37.51Z" fill="#333333" fill-opacity="0.5"/>
<defs>
<filter id="filter0_d_0_681" x="0" y="0" width="64" height="64" filterUnits="userSpaceOnUse" color-interpolation-filters="sRGB">
<feFlood flood-opacity="0" result="BackgroundImageFix"/>
<feColorMatrix in="SourceAlpha" type="matrix" values="0 0 0 0 0 0 0 0 0 0 0 0 0 0 0 0 0 0 127 0" result="hardAlpha"/>
<feOffset dy="2"/>
<feGaussianBlur stdDeviation="5"/>
<feColorMatrix type="matrix" values="0 0 0 0 0.657495 0 0 0 0 0.657495 0 0 0 0 0.657495 0 0 0 0.2 0"/>
<feBlend mode="normal" in2="BackgroundImageFix" result="effect1_dropShadow_0_681"/>
<feBlend mode="normal" in="SourceGraphic" in2="effect1_dropShadow_0_681" result="shape"/>
</filter>
</defs>
</svg>
