<svg width="347" height="227" viewBox="0 0 347 227" fill="none" xmlns="http://www.w3.org/2000/svg">
<g filter="url(#filter0_d_0_554)">
<rect x="10" y="10" width="327" height="206.285" rx="8" fill="url(#paint0_linear_0_554)"/>
<mask id="mask0_0_554" style="mask-type:alpha" maskUnits="userSpaceOnUse" x="10" y="10" width="327" height="207">
<rect x="10" y="10" width="327" height="206.285" rx="8" fill="white"/>
</mask>
<g mask="url(#mask0_0_554)">
<circle cx="70" cy="175" r="96" fill="url(#paint1_linear_0_554)"/>
<circle cx="27.5" cy="102.5" r="130.5" fill="url(#paint2_linear_0_554)"/>
<circle cx="306" cy="24" r="96" fill="url(#paint3_linear_0_554)"/>
</g>
</g>
<mask id="mask1_0_554" style="mask-type:alpha" maskUnits="userSpaceOnUse" x="265" y="30" width="51" height="18">
<path fill-rule="evenodd" clip-rule="evenodd" d="M291.062 36.1579C291.034 38.4159 293.075 39.6761 294.612 40.4252C296.192 41.194 296.722 41.6869 296.716 42.3743C296.704 43.4264 295.456 43.8907 294.288 43.9088C292.25 43.9404 291.065 43.3586 290.123 42.9184L289.389 46.3537C290.334 46.7894 292.084 47.1692 293.899 47.1858C298.159 47.1858 300.946 45.083 300.961 41.8226C300.978 37.6848 295.238 37.4557 295.277 35.6062C295.29 35.0454 295.825 34.447 296.998 34.2948C297.579 34.2179 299.181 34.1591 300.997 34.9957L301.71 31.672C300.733 31.3162 299.478 30.9755 297.915 30.9755C293.905 30.9755 291.085 33.107 291.062 36.1579ZM308.561 31.2619C307.783 31.2619 307.128 31.7157 306.835 32.4121L300.75 46.9416H305.007L305.854 44.6007H311.056L311.547 46.9416H315.299L312.025 31.2619H308.561ZM309.157 35.4977L310.385 41.3854H307.021L309.157 35.4977ZM285.901 31.2619L282.546 46.9416H286.602L289.956 31.2619L285.901 31.2619ZM279.9 31.2619L275.678 41.9341L273.97 32.8598C273.77 31.8468 272.978 31.2619 272.1 31.2619H265.197L265.101 31.7172C266.518 32.0247 268.128 32.5206 269.103 33.0512C269.7 33.3753 269.87 33.6587 270.066 34.4289L273.301 46.9416H277.588L284.16 31.2619H279.9Z" fill="white"/>
</mask>
<g mask="url(#mask1_0_554)">
<path fill-rule="evenodd" clip-rule="evenodd" d="M259.844 32.9115L309.304 14.6964L320.556 45.2503L271.097 63.4653" fill="white"/>
</g>
<path d="M239.94 126H242.74V123.16H244.5V120.72H242.74V111.6H239.48L232.94 120.96V123.16H239.94V126ZM236.02 120.72L240.12 114.6V120.72H236.02ZM247.283 118.52C247.283 122.78 248.563 125.96 252.683 125.96C256.803 125.96 258.083 122.78 258.083 118.52C258.083 114.3 256.803 111.14 252.683 111.14C248.563 111.14 247.283 114.3 247.283 118.52ZM255.323 118.52C255.323 121.12 255.043 123.36 252.683 123.36C250.323 123.36 250.043 121.12 250.043 118.52C250.043 116.02 250.323 113.74 252.683 113.74C255.043 113.74 255.323 116.02 255.323 118.52ZM262.812 126H265.692V111.42H260.872V114H262.812V126ZM269.298 125.8H279.178V123.48H273.278C275.598 121.52 278.858 118.88 278.858 115.5C278.858 112.96 277.278 111.1 274.138 111.1C271.518 111.1 269.378 112.64 269.278 115.98H271.998C272.018 114.44 272.758 113.48 274.098 113.48C275.478 113.48 276.058 114.36 276.058 115.66C276.058 118.34 272.598 120.92 269.298 123.72V125.8Z" fill="white"/>
<path fill-rule="evenodd" clip-rule="evenodd" d="M33 121C34.6569 121 36 119.657 36 118C36 116.343 34.6569 115 33 115C31.3431 115 30 116.343 30 118C30 119.657 31.3431 121 33 121ZM45 121C46.6569 121 48 119.657 48 118C48 116.343 46.6569 115 45 115C43.3431 115 42 116.343 42 118C42 119.657 43.3431 121 45 121ZM60 118C60 119.657 58.6569 121 57 121C55.3431 121 54 119.657 54 118C54 116.343 55.3431 115 57 115C58.6569 115 60 116.343 60 118ZM69 121C70.6569 121 72 119.657 72 118C72 116.343 70.6569 115 69 115C67.3431 115 66 116.343 66 118C66 119.657 67.3431 121 69 121ZM104 118C104 119.657 102.657 121 101 121C99.3431 121 98 119.657 98 118C98 116.343 99.3431 115 101 115C102.657 115 104 116.343 104 118ZM113 121C114.657 121 116 119.657 116 118C116 116.343 114.657 115 113 115C111.343 115 110 116.343 110 118C110 119.657 111.343 121 113 121ZM128 118C128 119.657 126.657 121 125 121C123.343 121 122 119.657 122 118C122 116.343 123.343 115 125 115C126.657 115 128 116.343 128 118ZM137 121C138.657 121 140 119.657 140 118C140 116.343 138.657 115 137 115C135.343 115 134 116.343 134 118C134 119.657 135.343 121 137 121ZM172 118C172 119.657 170.657 121 169 121C167.343 121 166 119.657 166 118C166 116.343 167.343 115 169 115C170.657 115 172 116.343 172 118ZM181 121C182.657 121 184 119.657 184 118C184 116.343 182.657 115 181 115C179.343 115 178 116.343 178 118C178 119.657 179.343 121 181 121ZM196 118C196 119.657 194.657 121 193 121C191.343 121 190 119.657 190 118C190 116.343 191.343 115 193 115C194.657 115 196 116.343 196 118ZM205 121C206.657 121 208 119.657 208 118C208 116.343 206.657 115 205 115C203.343 115 202 116.343 202 118C202 119.657 203.343 121 205 121Z" fill="white"/>
<path d="M36.516 193H38.292L35.28 184.612H33.324L30.312 193H32.076L32.628 191.404H35.964L36.516 193ZM35.508 190.06H33.084L34.296 186.556L35.508 190.06ZM44.9018 184.612V190.372L41.0978 184.612H39.4178V193H41.0978V187.252L44.9018 193H46.5818V184.612H44.9018ZM53.7261 184.612V190.372L49.9221 184.612H48.2421V193H49.9221V187.252L53.7261 193H55.4061V184.612H53.7261ZM57.0663 193H58.7463V184.624H57.0663V193ZM65.2661 184.612H60.4061V193H65.2661V191.632H62.0861V189.412H64.9061V188.08H62.0861V185.98H65.2661V184.612ZM74.0922 187.228C74.0922 187.984 73.6722 188.476 72.7362 188.476H71.3322V186.016H72.7362C73.6722 186.016 74.0922 186.484 74.0922 187.228ZM69.6522 184.624V193H71.3322V189.736H72.1242L73.9722 193H75.9162L73.9122 189.604C75.2562 189.244 75.8202 188.212 75.8202 187.192C75.8202 185.788 74.8122 184.624 72.7962 184.624H69.6522ZM85.5117 188.788C85.5117 186.28 83.6157 184.504 81.2277 184.504C78.8637 184.504 76.9317 186.28 76.9317 188.788C76.9317 191.308 78.8637 193.084 81.2277 193.084C83.6037 193.084 85.5117 191.308 85.5117 188.788ZM78.6597 188.788C78.6597 187.084 79.7037 186.016 81.2277 186.016C82.7397 186.016 83.7837 187.084 83.7837 188.788C83.7837 190.492 82.7397 191.584 81.2277 191.584C79.7037 191.584 78.6597 190.492 78.6597 188.788ZM91.4296 190.528C91.4296 191.236 90.9496 191.632 90.1336 191.632H88.4416V189.376H90.0976C90.9136 189.376 91.4296 189.808 91.4296 190.528ZM91.2256 187.036C91.2256 187.72 90.7696 188.08 89.9776 188.08H88.4416V185.98H89.9776C90.7696 185.98 91.2256 186.364 91.2256 187.036ZM93.1336 190.732C93.1336 189.748 92.4616 188.872 91.5136 188.704C92.3296 188.44 92.9416 187.804 92.9416 186.784C92.9416 185.536 91.9696 184.624 90.2176 184.624H86.7616V193H90.3736C92.1136 193 93.1336 192.064 93.1336 190.732ZM99.3325 184.612H94.4725V193H99.3325V191.632H96.1525V189.412H98.9725V188.08H96.1525V185.98H99.3325V184.612ZM105.299 187.228C105.299 187.984 104.879 188.476 103.943 188.476H102.539V186.016H103.943C104.879 186.016 105.299 186.484 105.299 187.228ZM100.859 184.624V193H102.539V189.736H103.331L105.179 193H107.123L105.119 189.604C106.463 189.244 107.027 188.212 107.027 187.192C107.027 185.788 106.019 184.624 104.003 184.624H100.859ZM108.103 185.98H110.335V193H112.015V185.98H114.247V184.624H108.103V185.98ZM121.329 190.576C121.329 187.624 117.033 188.56 117.033 186.88C117.033 186.196 117.525 185.872 118.185 185.896C118.905 185.908 119.349 186.34 119.385 186.892H121.233C121.125 185.38 119.949 184.504 118.233 184.504C116.505 184.504 115.281 185.416 115.281 186.928C115.269 189.964 119.589 188.872 119.589 190.684C119.589 191.284 119.121 191.704 118.329 191.704C117.549 191.704 117.105 191.26 117.057 190.588H115.257C115.281 192.172 116.625 193.084 118.365 193.084C120.273 193.084 121.329 191.896 121.329 190.576ZM130.957 188.788C130.957 186.28 129.061 184.504 126.673 184.504C124.309 184.504 122.377 186.28 122.377 188.788C122.377 191.308 124.309 193.084 126.673 193.084C129.049 193.084 130.957 191.308 130.957 188.788ZM124.105 188.788C124.105 187.084 125.149 186.016 126.673 186.016C128.185 186.016 129.229 187.084 129.229 188.788C129.229 190.492 128.185 191.584 126.673 191.584C125.149 191.584 124.105 190.492 124.105 188.788ZM137.691 184.612V190.372L133.887 184.612H132.207V193H133.887V187.252L137.691 193H139.371V184.612H137.691Z" fill="white"/>
<path d="M281.636 188.512C281.636 191.068 282.404 192.976 284.876 192.976C287.348 192.976 288.116 191.068 288.116 188.512C288.116 185.98 287.348 184.084 284.876 184.084C282.404 184.084 281.636 185.98 281.636 188.512ZM286.46 188.512C286.46 190.072 286.292 191.416 284.876 191.416C283.46 191.416 283.292 190.072 283.292 188.512C283.292 187.012 283.46 185.644 284.876 185.644C286.292 185.644 286.46 187.012 286.46 188.512ZM290.858 188.368C289.994 188.728 289.454 189.484 289.454 190.516C289.454 192.184 290.822 193.192 292.61 193.192C294.41 193.192 295.778 192.184 295.778 190.516C295.778 189.496 295.238 188.74 294.374 188.368C295.058 188.02 295.562 187.36 295.562 186.436C295.562 185.188 294.602 184.084 292.61 184.084C290.618 184.084 289.658 185.176 289.658 186.436C289.658 187.384 290.138 187.996 290.858 188.368ZM292.61 187.876C291.854 187.876 291.302 187.408 291.302 186.688C291.302 185.872 291.83 185.44 292.61 185.44C293.414 185.44 293.93 185.884 293.93 186.676C293.93 187.396 293.378 187.876 292.61 187.876ZM292.61 189.1C293.51 189.1 294.134 189.58 294.134 190.444C294.134 191.212 293.57 191.8 292.61 191.8C291.65 191.8 291.074 191.224 291.074 190.444C291.074 189.556 291.734 189.1 292.61 189.1ZM296.913 195.172H298.557L301.797 181.636H300.153L296.913 195.172ZM302.845 192.88H308.773V191.488H305.233C306.625 190.312 308.581 188.728 308.581 186.7C308.581 185.176 307.633 184.06 305.749 184.06C304.177 184.06 302.893 184.984 302.833 186.988H304.465C304.477 186.064 304.921 185.488 305.725 185.488C306.553 185.488 306.901 186.016 306.901 186.796C306.901 188.404 304.825 189.952 302.845 191.632V192.88ZM309.855 186.556H311.499C311.559 186.004 311.907 185.476 312.723 185.476C313.491 185.476 313.911 185.884 313.911 186.568C313.911 187.432 313.191 187.708 312.207 187.708H311.859V189.088H312.207C313.455 189.088 314.079 189.448 314.079 190.432C314.079 191.128 313.647 191.656 312.807 191.656C311.907 191.656 311.403 191.116 311.367 190.36H309.735C309.807 192.196 311.115 193.06 312.843 193.06C314.679 193.06 315.687 192.004 315.687 190.576C315.687 189.388 315.099 188.668 314.211 188.392V188.344C314.847 188.128 315.531 187.456 315.531 186.364C315.531 185.068 314.571 184.048 312.771 184.048C311.091 184.048 309.939 184.936 309.855 186.556Z" fill="white"/>
<defs>
<filter id="filter0_d_0_554" x="0" y="0" width="347" height="226.285" filterUnits="userSpaceOnUse" color-interpolation-filters="sRGB">
<feFlood flood-opacity="0" result="BackgroundImageFix"/>
<feColorMatrix in="SourceAlpha" type="matrix" values="0 0 0 0 0 0 0 0 0 0 0 0 0 0 0 0 0 0 127 0" result="hardAlpha"/>
<feOffset/>
<feGaussianBlur stdDeviation="5"/>
<feColorMatrix type="matrix" values="0 0 0 0 0.901961 0 0 0 0 0.901961 0 0 0 0 0.901961 0 0 0 0.5 0"/>
<feBlend mode="normal" in2="BackgroundImageFix" result="effect1_dropShadow_0_554"/>
<feBlend mode="normal" in="SourceGraphic" in2="effect1_dropShadow_0_554" result="shape"/>
</filter>
<linearGradient id="paint0_linear_0_554" x1="477.436" y1="124.961" x2="320.764" y2="-155.533" gradientUnits="userSpaceOnUse">
<stop/>
<stop offset="1" stop-color="#111111"/>
</linearGradient>
<linearGradient id="paint1_linear_0_554" x1="-5.04986" y1="140.636" x2="69.3634" y2="290.735" gradientUnits="userSpaceOnUse">
<stop stop-color="white" stop-opacity="0.05"/>
<stop offset="1" stop-color="#333333" stop-opacity="0.5"/>
</linearGradient>
<linearGradient id="paint2_linear_0_554" x1="54.9826" y1="-66.5611" x2="-101.598" y2="105.936" gradientUnits="userSpaceOnUse">
<stop stop-color="white" stop-opacity="0.05"/>
<stop offset="1" stop-color="#333333" stop-opacity="0.5"/>
</linearGradient>
<linearGradient id="paint3_linear_0_554" x1="281.251" y1="-38.7072" x2="186.909" y2="63.0563" gradientUnits="userSpaceOnUse">
<stop stop-color="#333333" stop-opacity="0.5"/>
<stop offset="1" stop-color="white" stop-opacity="0.05"/>
</linearGradient>
</defs>
</svg>
